<svg id="Layer_1" data-name="Layer 1" xmlns="http://www.w3.org/2000/svg" xmlns:xlink="http://www.w3.org/1999/xlink" viewBox="0 0 500 178.39"><defs><linearGradient id="linear-gradient" x1="396.46" y1="-505.41" x2="229.36" y2="-721.01" gradientTransform="matrix(1, 0, 0, -1, 0, -599.13)" gradientUnits="userSpaceOnUse"><stop offset="0" stop-color="#9a41da"/><stop offset="1" stop-color="#51509c"/></linearGradient><clipPath id="clip-path"><rect x="135.8" y="41.73" width="200.38" height="159.9" style="fill:none"/></clipPath></defs><title>footer-bg</title><g id="Layer_4" data-name="Layer 4"><g id="Desktop"><path id="Rectangle" d="M-.2,206H501.1V-16.61H-.2Z" style="fill:url(#linear-gradient)"/></g></g><polygon points="127.1 7.8 128.4 11.58 132.2 12.88 128.4 14.19 127.1 17.97 125.8 14.19 122.1 12.88 125.8 11.58 127.1 7.8" style="fill:#f2b6c2"/><polygon points="236.1 93.9 237 95.7 239.7 96.4 237 97 236.1 98.8 235.2 97 232.6 96.4 235.2 95.7 236.1 93.9" style="fill:#eb99c4"/><polygon points="365.1 23.7 365.9 25.3 368.2 25.8 365.9 26.3 365.1 27.9 364.4 26.3 362.1 25.8 364.4 25.3 365.1 23.7" style="fill:#eb97c4"/><polygon points="67.1 70.7 67.9 72.3 70.2 72.8 67.9 73.4 67.1 74.9 66.4 73.4 64.1 72.8 66.4 72.3 67.1 70.7" style="fill:#eb97c4"/><polygon points="433.1 74.9 433.7 75.9 435.2 76.3 433.7 76.7 433.1 77.7 432.6 76.7 431.1 76.3 432.6 75.9 433.1 74.9" style="fill:#eb97c4"/><polygon points="22.1 26.5 22.7 27.5 24.2 27.9 22.7 28.2 22.1 29.3 21.6 28.2 20.1 27.9 21.6 27.5 22.1 26.5" style="fill:#eb97c4"/><polygon points="465.1 7.8 465.7 8.8 467.2 9.2 465.7 9.5 465.1 10.6 464.6 9.5 463.1 9.2 464.6 8.8 465.1 7.8" style="fill:#f2b6c2"/><polygon points="224.1 33.4 224.7 34.4 226.2 34.8 224.7 35.2 224.1 36.2 223.6 35.2 222.1 34.8 223.6 34.4 224.1 33.4" style="fill:#f2b6c2"/><circle cx="187.1" cy="45.2" r="16.1" style="fill:#efa6c3"/><rect x="-0.01" y="124.35" width="500" height="81.6" style="fill:#541798"/><g id="OBJECTS"><g style="clip-path:url(#clip-path)"><g id="_Group_" data-name=" Group "><g id="_Group_2" data-name=" Group 2"><polygon id="_Path_" data-name=" Path " points="226.41 124.8 217.93 124.8 217.93 97.71 221.2 98.33 222.05 98.33 226.41 96.07 226.41 124.8" style="fill:#dd5dc8"/><g id="_Group_3" data-name=" Group 3"><polygon id="_Path_2" data-name=" Path 2" points="224.86 103.23 221.12 103.23 221.12 95.29 224.86 93.66 224.86 103.23" style="fill:#dd5dc8"/><rect id="_Rectangle_" data-name=" Rectangle " x="222.68" y="92.49" width="0.31" height="6.23" style="fill:#dd5dc8"/></g></g><g id="_Group_4" data-name=" Group 4"><rect id="_Rectangle_2" data-name=" Rectangle 2" x="177.37" y="100.43" width="11.91" height="24.37" style="fill:#dd5dc8"/><rect id="_Rectangle_3" data-name=" Rectangle 3" x="177.37" y="93.11" width="10.9" height="16.89" style="fill:#dd5dc8"/><rect id="_Rectangle_4" data-name=" Rectangle 4" x="179.86" y="88.75" width="5.61" height="8.49" style="fill:#dd5dc8"/><rect id="_Rectangle_5" data-name=" Rectangle 5" x="182.58" y="84.94" width="0.16" height="2.34" style="fill:#dd5dc8"/><path id="_Path_3" data-name=" Path 3" d="M184.06,97.78h-2.8V87.35a1.39,1.39,0,0,1,1.4-1.4h0a1.39,1.39,0,0,1,1.4,1.4Z" style="fill:#dd5dc8"/><rect id="_Rectangle_6" data-name=" Rectangle 6" x="179.08" y="91.32" width="7.24" height="8.49" style="fill:#dd5dc8"/></g><rect id="_Rectangle_7" data-name=" Rectangle 7" x="230.23" y="90.54" width="13" height="34.25" style="fill:#dd5dc8"/><g id="_Group_5" data-name=" Group 5"><rect id="_Rectangle_8" data-name=" Rectangle 8" x="158.45" y="90.54" width="13" height="34.25" style="fill:#dd5dc8"/><rect id="_Rectangle_9" data-name=" Rectangle 9" x="157.75" y="89.69" width="14.32" height="1.56" style="fill:#dd5dc8"/><rect id="_Rectangle_10" data-name=" Rectangle 10" x="158.84" y="89.22" width="2.49" height="1.56" style="fill:#dd5dc8"/><rect id="_Rectangle_11" data-name=" Rectangle 11" x="167.56" y="89.38" width="2.49" height="1.56" style="fill:#dd5dc8"/></g><g id="_Group_6" data-name=" Group 6"><rect id="_Rectangle_12" data-name=" Rectangle 12" x="289.78" y="90.54" width="13" height="34.25" style="fill:#dd5dc8"/><rect id="_Rectangle_13" data-name=" Rectangle 13" x="292.82" y="89.61" width="6.93" height="2.1" style="fill:#dd5dc8"/><polygon id="_Path_4" data-name=" Path 4" points="302.78 117.79 295.15 117.79 295.15 88.13 302.78 83.54 302.78 117.79" style="fill:#dd5dc8"/></g><g id="_Group_7" data-name=" Group 7"><rect id="_Rectangle_14" data-name=" Rectangle 14" x="246.19" y="90.54" width="16.66" height="34.25" style="fill:#dd5dc8"/><rect id="_Rectangle_15" data-name=" Rectangle 15" x="247.2" y="87.82" width="14.71" height="34.25" style="fill:#dd5dc8"/><rect id="_Rectangle_16" data-name=" Rectangle 16" x="247.82" y="85.72" width="13.39" height="34.25" style="fill:#dd5dc8"/><rect id="_Rectangle_17" data-name=" Rectangle 17" x="248.37" y="84.86" width="5.37" height="1.79" style="fill:#dd5dc8"/><rect id="_Rectangle_18" data-name=" Rectangle 18" x="248.99" y="83.69" width="0.31" height="1.79" style="fill:#dd5dc8"/><rect id="_Rectangle_19" data-name=" Rectangle 19" x="252.49" y="84.24" width="0.31" height="1.79" style="fill:#dd5dc8"/><rect id="_Rectangle_20" data-name=" Rectangle 20" x="258.64" y="84.86" width="1.79" height="1.79" style="fill:#dd5dc8"/></g><g id="_Group_8" data-name=" Group 8"><rect id="_Rectangle_21" data-name=" Rectangle 21" x="266.82" y="90.54" width="16.66" height="34.25" style="fill:#dd5dc8"/><rect id="_Rectangle_22" data-name=" Rectangle 22" x="270.01" y="89.69" width="13.39" height="34.25" style="fill:#dd5dc8"/><rect id="_Rectangle_23" data-name=" Rectangle 23" x="277.48" y="88.83" width="5.37" height="1.79" style="fill:#dd5dc8"/><rect id="_Rectangle_24" data-name=" Rectangle 24" x="273.51" y="88.83" width="3.11" height="1.79" style="fill:#dd5dc8"/><rect id="_Rectangle_25" data-name=" Rectangle 25" x="281.92" y="87.66" width="0.31" height="1.79" style="fill:#dd5dc8"/><rect id="_Rectangle_26" data-name=" Rectangle 26" x="278.42" y="88.21" width="0.31" height="1.79" style="fill:#dd5dc8"/><rect id="_Rectangle_27" data-name=" Rectangle 27" x="270.79" y="88.83" width="1.79" height="1.79" style="fill:#dd5dc8"/></g><g id="_Group_9" data-name=" Group 9"><polygon id="_Path_5" data-name=" Path 5" points="211.08 124.8 191.54 124.8 191.54 102.22 211.08 76.77 211.08 124.8" style="fill:#dd5dc8"/><rect id="_Rectangle_28" data-name=" Rectangle 28" x="210.53" y="72.02" width="0.54" height="21.49" style="fill:#dd5dc8"/></g><rect id="_Rectangle_29" data-name=" Rectangle 29" x="165.15" y="107.91" width="17.59" height="16.89" style="fill:#dd5dc8"/><rect id="_Rectangle_30" data-name=" Rectangle 30" x="145.61" y="112.58" width="17.59" height="12.22" style="fill:#dd5dc8"/><rect id="_Rectangle_31" data-name=" Rectangle 31" x="296.71" y="112.58" width="17.59" height="12.22" style="fill:#dd5dc8"/><rect id="_Rectangle_32" data-name=" Rectangle 32" x="290.4" y="109.23" width="17.59" height="12.22" style="fill:#dd5dc8"/><rect id="_Rectangle_33" data-name=" Rectangle 33" x="152.22" y="106.04" width="17.59" height="12.22" style="fill:#dd5dc8"/><rect id="_Rectangle_34" data-name=" Rectangle 34" x="175.03" y="100.43" width="7.01" height="24.37" style="fill:#dd5dc8"/><rect id="_Rectangle_35" data-name=" Rectangle 35" x="185.85" y="109.85" width="9.42" height="14.95" style="fill:#dd5dc8"/><rect id="_Rectangle_36" data-name=" Rectangle 36" x="207.34" y="102.61" width="7.01" height="22.19" style="fill:#dd5dc8"/><rect id="_Rectangle_37" data-name=" Rectangle 37" x="212.4" y="109.62" width="6.77" height="15.18" style="fill:#dd5dc8"/><rect id="_Rectangle_38" data-name=" Rectangle 38" x="224.7" y="108.14" width="8.95" height="16.66" style="fill:#dd5dc8"/><rect id="_Rectangle_39" data-name=" Rectangle 39" x="240.11" y="102.38" width="9.65" height="22.42" style="fill:#dd5dc8"/><rect id="_Rectangle_40" data-name=" Rectangle 40" x="273.82" y="110.08" width="13.47" height="14.71" style="fill:#dd5dc8"/><rect id="_Rectangle_41" data-name=" Rectangle 41" x="284.88" y="103.31" width="14.71" height="21.41" style="fill:#dd5dc8"/><rect id="_Rectangle_42" data-name=" Rectangle 42" x="259.81" y="110.79" width="12.3" height="14.01" style="fill:#dd5dc8"/></g><g id="_Group_10" data-name=" Group 10"><polygon id="_Path_6" data-name=" Path 6" points="268.84 124.95 262.46 124.95 263.47 84.55 262.92 69.68 268.37 69.68 267.83 84.55 268.84 124.95" style="fill:#481689"/><rect id="_Rectangle_43" data-name=" Rectangle 43" x="259.81" y="68.9" width="11.76" height="1.32" style="fill:#481689"/><rect id="_Rectangle_44" data-name=" Rectangle 44" x="262.53" y="55.67" width="6.15" height="1.32" style="fill:#481689"/><rect id="_Rectangle_45" data-name=" Rectangle 45" x="265.42" y="49.83" width="0.47" height="6.46" style="fill:#481689"/><rect id="_Rectangle_46" data-name=" Rectangle 46" x="265.57" y="45.24" width="0.23" height="6.46" style="fill:#481689"/><rect id="_Rectangle_47" data-name=" Rectangle 47" x="265.26" y="49.67" width="0.86" height="0.39" style="fill:#481689"/><polygon id="_Path_7" data-name=" Path 7" points="271.33 69.22 259.97 69.22 258.41 59.8 272.89 59.8 271.33 69.22" style="fill:#481689"/><polygon id="_Path_8" data-name=" Path 8" points="261.83 56.37 269.46 56.37 270.48 62.67 260.82 62.67 261.83 56.37" style="fill:#481689"/></g><g id="_Group_11" data-name=" Group 11"><rect id="_Rectangle_48" data-name=" Rectangle 48" x="171.22" y="118.03" width="42.74" height="6.85" style="fill:#481689"/><rect id="_Rectangle_49" data-name=" Rectangle 49" x="182.74" y="114.29" width="16.11" height="6.38" style="fill:#481689"/><rect id="_Rectangle_50" data-name=" Rectangle 50" x="172.78" y="115.92" width="16.11" height="3.89" style="fill:#481689"/><path id="_Path_9" data-name=" Path 9" d="M185.39,118.26a4.54,4.54,0,0,1-.47,2h-8.33a6.46,6.46,0,0,0,.08-1.24,13,13,0,0,0-1.87-6.78,11.55,11.55,0,0,1,2.26-.23C181.65,112,185.39,114.83,185.39,118.26Z" style="fill:#481689"/><path id="_Path_10" data-name=" Path 10" d="M190.84,116.78a4.94,4.94,0,0,1-.55,2.34h-9.73a9.24,9.24,0,0,0,.08-1.48,15.79,15.79,0,0,0-2.18-7.87,16,16,0,0,1,2.65-.31C186.48,109.46,190.84,112.73,190.84,116.78Z" style="fill:#481689"/><path id="_Path_11" data-name=" Path 11" d="M189.44,116.78a4.93,4.93,0,0,0,.54,2.34h9.73a9.24,9.24,0,0,1-.08-1.48,15.79,15.79,0,0,1,2.18-7.87,15.84,15.84,0,0,0-2.64-.31C193.79,109.46,189.44,112.73,189.44,116.78Z" style="fill:#481689"/><path id="_Path_12" data-name=" Path 12" d="M197.3,118.1a5.18,5.18,0,0,0,.39,1.87h7.08a5.76,5.76,0,0,1-.08-1.17,13.16,13.16,0,0,1,1.56-6.22,7.6,7.6,0,0,0-1.95-.24C200.41,112.26,197.3,114.91,197.3,118.1Z" style="fill:#481689"/><path id="_Path_13" data-name=" Path 13" d="M195.74,115.61a10.65,10.65,0,0,1-.54,3.51h-9.73c.07-.71.07-1.48.07-2.26a31.83,31.83,0,0,0-2.18-11.76,10.1,10.1,0,0,1,2.65-.39C191.38,104.64,195.74,109.54,195.74,115.61Z" style="fill:#481689"/><ellipse id="_Path_14" data-name=" Path 14" cx="205.63" cy="118.88" rx="5.99" ry="4.44" style="fill:#481689"/></g><g id="_Group_12" data-name=" Group 12"><rect id="_Rectangle_51" data-name=" Rectangle 51" x="149.73" y="117.4" width="21.41" height="7.55" style="fill:#481689"/><g id="_Group_13" data-name=" Group 13"><g id="_Group_14" data-name=" Group 14"><rect id="_Rectangle_52" data-name=" Rectangle 52" x="149.73" y="116.62" width="4.67" height="8.1" style="fill:#481689"/><rect id="_Rectangle_53" data-name=" Rectangle 53" x="150.74" y="116.39" width="2.49" height="8.1" style="fill:#481689"/></g><g id="_Group_15" data-name=" Group 15"><rect id="_Rectangle_54" data-name=" Rectangle 54" x="166.63" y="116.62" width="4.67" height="8.1" style="fill:#481689"/><rect id="_Rectangle_55" data-name=" Rectangle 55" x="167.72" y="116.39" width="2.49" height="8.1" style="fill:#481689"/></g></g><g id="_Group_16" data-name=" Group 16"><rect id="_Rectangle_56" data-name=" Rectangle 56" x="157.05" y="110.79" width="6.93" height="8.33" style="fill:#481689"/><rect id="_Rectangle_57" data-name=" Rectangle 57" x="157.83" y="106.19" width="5.37" height="8.33" style="fill:#481689"/><rect id="_Rectangle_58" data-name=" Rectangle 58" x="160.4" y="95.99" width="0.31" height="8.33" style="fill:#481689"/><path id="_Path_15" data-name=" Path 15" d="M162.66,109.77h-4.21v-5.52a6.12,6.12,0,0,1,2.1-4.6h0a6.21,6.21,0,0,1,2.11,4.6Z" style="fill:#481689"/><rect id="_Rectangle_59" data-name=" Rectangle 59" x="156.97" y="110.16" width="7.08" height="1.48" style="fill:#481689"/><rect id="_Rectangle_60" data-name=" Rectangle 60" x="157.75" y="106.11" width="5.53" height="0.47" style="fill:#481689"/><polygon id="_Path_16" data-name=" Path 16" points="165.54 124.95 155.57 124.95 155.57 115.14 160.55 113.51 165.54 115.14 165.54 124.95" style="fill:#481689"/><rect id="_Rectangle_61" data-name=" Rectangle 61" x="160.4" y="95.99" width="2.26" height="1.09" style="fill:#481689"/></g></g><g id="_Group_17" data-name=" Group 17"><g id="_Group_18" data-name=" Group 18"><g id="_Group_19" data-name=" Group 19"><rect id="_Rectangle_62" data-name=" Rectangle 62" x="279.66" y="115.46" width="4.52" height="9.5" style="fill:#481689"/><rect id="_Rectangle_63" data-name=" Rectangle 63" x="279.89" y="114.76" width="3.97" height="9.5" style="fill:#481689"/><path id="_Path_17" data-name=" Path 17" d="M283.4,122.62h-3v-7.94a1.56,1.56,0,0,1,1.56-1.56h0a1.56,1.56,0,0,1,1.56,1.56h0Z" style="fill:#481689"/></g><g id="_Group_20" data-name=" Group 20"><rect id="_Rectangle_64" data-name=" Rectangle 64" x="291.96" y="115.46" width="4.52" height="9.5" style="fill:#481689"/><rect id="_Rectangle_65" data-name=" Rectangle 65" x="292.19" y="114.76" width="3.97" height="9.5" style="fill:#481689"/><path id="_Path_18" data-name=" Path 18" d="M295.7,122.62h-3.12v-7.94a1.56,1.56,0,0,1,1.56-1.56h0a1.56,1.56,0,0,1,1.56,1.56h0Z" style="fill:#481689"/></g></g><rect id="_Rectangle_66" data-name=" Rectangle 66" x="282.78" y="116.78" width="10.51" height="8.17" style="fill:#481689"/><rect id="_Rectangle_67" data-name=" Rectangle 67" x="283.55" y="113.35" width="8.87" height="11.44" style="fill:#481689"/><rect id="_Rectangle_68" data-name=" Rectangle 68" x="279.43" y="116.86" width="17.2" height="0.39" style="fill:#481689"/><rect id="_Rectangle_69" data-name=" Rectangle 69" x="287.91" y="104.4" width="0.31" height="2.1" style="fill:#481689"/><path id="_Path_19" data-name=" Path 19" d="M292.51,118.18h-8.88v-7a4.43,4.43,0,0,1,4.44-4.43h0a4.43,4.43,0,0,1,4.44,4.43v7Z" style="fill:#481689"/><path id="_Path_20" data-name=" Path 20" d="M289.39,111.88h-2.64V106.5a1.36,1.36,0,0,1,1.32-1.32h0a1.36,1.36,0,0,1,1.32,1.32Z" style="fill:#481689"/><polygon id="_Path_21" data-name=" Path 21" points="292.66 113.67 283.4 113.67 283.55 113.04 292.51 113.04 292.66 113.67" style="fill:#481689"/></g><polygon points="328.16 118.1 328.16 118.49 326.53 118.49 326.53 117.33 324.97 117.33 324.97 114.52 324.27 113.28 324.11 113.28 324.11 110.71 323.57 109.31 323.33 109.31 323.33 108.53 322.56 108.53 322.56 107.67 322.17 107.67 322.17 106.89 314.15 106.89 314.15 107.67 313.76 107.67 313.76 108.53 312.98 108.53 312.98 109.31 312.67 109.31 312.12 110.71 312.12 113.28 312.05 113.28 311.35 114.52 311.35 117.33 310.18 117.33 310.18 118.49 308.15 118.49 308.15 118.1 306.52 118.1 306.52 124.88 306.44 124.88 308 124.88 309.87 124.88 311.5 124.88 313.52 124.88 317.03 124.88 319.21 124.88 322.71 124.88 324.81 124.88 326.37 124.88 328.24 124.88 329.8 124.88 329.72 124.88 329.72 118.1 328.16 118.1" style="fill:#481689"/><g id="_Group_21" data-name=" Group 21"><g id="_Group_22" data-name=" Group 22"><polygon id="_Path_22" data-name=" Path 22" points="147.87 124.95 140.78 124.95 141.64 115.38 147.01 115.38 147.87 124.95" style="fill:#481689"/><rect id="_Rectangle_70" data-name=" Rectangle 70" x="141.95" y="109.93" width="4.75" height="5.37" style="fill:#481689"/><rect id="_Rectangle_71" data-name=" Rectangle 71" x="141.4" y="116.47" width="5.76" height="0.31" style="fill:#481689"/><rect id="_Rectangle_72" data-name=" Rectangle 72" x="141.71" y="112.73" width="5.22" height="0.62" style="fill:#481689"/><rect id="_Rectangle_73" data-name=" Rectangle 73" x="144.13" y="106.19" width="0.31" height="2.26" style="fill:#481689"/><polygon id="_Path_23" data-name=" Path 23" points="146.7 110.4 141.95 110.4 141.95 109.62 144.28 107.52 146.7 109.62 146.7 110.4" style="fill:#481689"/><polygon id="_Path_24" data-name=" Path 24" points="147.01 115.61 141.64 115.61 140.7 114.29 147.94 114.29 147.01 115.61" style="fill:#481689"/><path id="_Path_25" data-name=" Path 25" d="M147,114.68h-5.37l-.86-1.25.93-.15a15.68,15.68,0,0,1,5.38,0l.93.15Z" style="fill:#481689"/><circle id="_Path_26" data-name=" Path 26" cx="144.28" cy="106.19" r="0.31" style="fill:#481689"/></g><g id="_Group_23" data-name=" Group 23"><rect id="_Rectangle_74" data-name=" Rectangle 74" x="139.38" y="124.02" width="2.26" height="0.86" style="fill:#481689"/><rect id="_Rectangle_75" data-name=" Rectangle 75" x="140.08" y="123.32" width="2.26" height="0.86" style="fill:#481689"/><rect id="_Rectangle_76" data-name=" Rectangle 76" x="140.62" y="122.85" width="2.26" height="0.86" style="fill:#481689"/></g></g><rect id="_Rectangle_77" data-name=" Rectangle 77" x="145.06" y="121.37" width="20.94" height="3.58" style="fill:#481689"/><rect id="_Rectangle_78" data-name=" Rectangle 78" x="260.82" y="119.04" width="23.59" height="5.92" style="fill:#481689"/><rect id="_Rectangle_79" data-name=" Rectangle 79" x="286.98" y="121.06" width="23.59" height="3.89" style="fill:#481689"/><rect id="_Rectangle_80" data-name=" Rectangle 80" x="286.98" y="119.5" width="15.57" height="5.37" style="fill:#481689"/><rect id="_Rectangle_81" data-name=" Rectangle 81" x="166.24" y="119.5" width="20.94" height="5.45" style="fill:#481689"/><rect x="135.88" y="123.4" width="5.37" height="1.56" style="fill:#481689"/><rect x="138.6" y="121.76" width="7.01" height="3.19" style="fill:#481689"/><rect x="324.5" y="121.45" width="8.8" height="3.5" style="fill:#481689"/><rect x="326.84" y="122.31" width="8.87" height="2.57" style="fill:#481689"/><path id="_Compound_Path_" data-name=" Compound Path " d="M260.82,119.43v-1.09l-.15-.39h-.16v-1.17h-.23v-.23h-2.49v.31h-.24V118h-.15l-.16.38v.71a44.93,44.93,0,0,0-7.24-3.59c-4.67-1.94-10.59-2-12.61-2h0c-.08,0-8.33-.31-13.93,2a45.52,45.52,0,0,0-7,3.43v-.55l-.16-.38h-.15v-1.17h-.24v-.31h-2.49v.31h-.23V118H213l-.15.38v1.09h-.24V125h4.13v-.85a28.6,28.6,0,0,1,3-2.5h33.86a27.83,27.83,0,0,1,3.27,2.73V125h4.13V119.5h-.24Zm-2.41-1.33h1.09v.16h-1.09Zm-1.4,1.33h-.08v1.4h-2.1v-2.65a10.14,10.14,0,0,1,2.18,1.25Zm-35.89.7-2.26-2.26c.62-.31,1.4-.7,2.26-1.09v3.35Zm-2.34-2.1,2.26,2.25a3.35,3.35,0,0,0-.85.63h-1.41V118Zm2.65-1.25,2,2c-.63.32-1.17.63-1.72.94l-.39.23Zm13.47-2.88,1.48,1.48a10.19,10.19,0,0,0-1.56.08l.08-1.56Zm12.3,3.66V115a14.9,14.9,0,0,1,2,.62l-1.94,2Zm-.16-.08c-.62-.23-1.24-.47-1.94-.7L247,115h0ZM241,115.77l1.56-1.48v1.79a6,6,0,0,0-1.56-.31Zm-1.95-.31,1.56-1.56v1.71c-.62-.08-1.09-.08-1.56-.15Zm5.61,1.16-1.79-.46,1.79-1.64Zm.16,0v-2.18c.62.16,1.32.24,1.94.39Zm-2.11-.62v-1.87l1.79.24Zm-2-.39V113.9c.54.08,1.09.08,1.63.16Zm-1.95-.15h0V113.9a10.66,10.66,0,0,1,1.56.08Zm-.23-1.64v1.56a10.19,10.19,0,0,0-1.56-.08l1.56-1.48Zm-3.81,1.64h0l-1.56-1.56c.54,0,1.09-.08,1.56-.08Zm-1.8-1.48,1.56,1.55a10.19,10.19,0,0,1-1.56.16Zm-2,2v-1.79l1.56,1.56c-.55.08-1.09.15-1.56.23Zm-2.1.62v-2.1l1.71,1.64c-.62.15-1.17.31-1.71.46Zm4-.93h0l-1.64-1.56c.63-.07,1.09-.07,1.64-.15Zm-2,.39-1.79-1.64c.63-.07,1.17-.15,1.79-.23Zm-2.17.62h0l-2-1.79a15.28,15.28,0,0,1,2-.39Zm-2.11-1.79,2,1.79c-.7.24-1.32.47-2,.7v-2.49Zm-.23,2.65h-.08l-2-2a14.9,14.9,0,0,1,2-.62Zm-.31.08c-.7.31-1.33.62-2,.93v-2.88Zm-2,1.4a14.78,14.78,0,0,1,2.26-1v2.8h-2.26Zm2.42-1.09h0a10.69,10.69,0,0,1,2.25-.78v3.74h-2.25v-3Zm2.49-.94c.7-.23,1.48-.39,2.25-.62v4.36h-2.33Zm2.41-.62a19,19,0,0,1,2.26-.39v4.83h-2.26Zm2.41-.47c.7-.07,1.48-.15,2.26-.15v5h-2.26Zm2.42-.15h1.32v5h-1.25Zm1.48,0c.77,0,1.47.08,2.25.15v4.83h-2.25v-5Zm2.33.15a19.7,19.7,0,0,1,2.18.39v4.44h-2.18Zm2.49.47c.78.16,1.48.39,2.26.62v3.82h-2.26Zm2.42.62c.77.24,1.55.55,2.18.78v.08h0v2.88h-2.26Zm2.41.94h0c.78.31,1.56.7,2.18,1v1.79H247.2Zm.31-.31,2-2v2.8a19.52,19.52,0,0,1-2-.85Zm4.59,2.41v-3.19c.94.39,1.64.78,2.26,1.09l-2.18,2.18ZM252,120l-.31-.23c-.55-.31-1.09-.62-1.72-.94l2-2Zm2.64-1.94h0v2.8h-1.4a3.58,3.58,0,0,1-.85-.62Zm-2.88-1.41-2,2-.08-.08v-2.88l.16.08a18.08,18.08,0,0,0,1.94.85Zm-13.54-2.8-1.4,1.4v-1.4Zm-1.64,0v1.4l-1.4-1.4Zm-13,2,.16-.08v3l-.08.07-2-2a14.47,14.47,0,0,1,1.94-.93Zm-5,2.25v2.65h-2v-1.4h-.23v-.08c.7-.39,1.4-.78,2.18-1.17Zm-4.59,0h1.09v.16H214Zm1.17,3.74H214v-1.09a.66.66,0,0,1,.54-.62h.08a.63.63,0,0,1,.39.15.61.61,0,0,1,.16.39v1.17Zm1.47-.23h2V122c-.86.62-1.48,1.16-2,1.55Zm2.11.23v-.23H219Zm3.27-1.71c.54-.31,1.09-.63,1.79-1v1.71h-2.88a10.83,10.83,0,0,1,1.09-.7Zm27.63.7v-1.71h0c.62.31,1.25.7,1.79,1a10.83,10.83,0,0,1,1.09.7Zm5,.78v.15l-.23-.15Zm.16.39v-.32h2.1v2.18a8.85,8.85,0,0,0-2.1-1.86Zm4.75-.16h-1.09v-1.09a.66.66,0,0,1,.54-.62H259a.63.63,0,0,1,.39.15.61.61,0,0,1,.16.39v1.17Z" style="fill:#481689"/><g id="_Group_24" data-name=" Group 24"><polygon id="_Path_27" data-name=" Path 27" points="268.84 124.8 262.46 124.8 263.47 165.2 262.92 179.99 268.37 179.99 267.83 165.2 268.84 124.8" style="fill:#4b178e"/></g><g id="_Group_25" data-name=" Group 25"><rect id="_Rectangle_82" data-name=" Rectangle 82" x="171.22" y="124.8" width="42.74" height="6.85" style="fill:#4b178e"/><rect id="_Rectangle_83" data-name=" Rectangle 83" x="182.74" y="129" width="16.11" height="6.38" style="fill:#4b178e"/><rect id="_Rectangle_84" data-name=" Rectangle 84" x="172.78" y="129.86" width="16.11" height="3.89" style="fill:#4b178e"/><path id="_Path_28" data-name=" Path 28" d="M185.39,131.42a4.55,4.55,0,0,0-.47-2h-8.33a6.57,6.57,0,0,1,.08,1.25,13.22,13.22,0,0,1-1.87,6.77,10.84,10.84,0,0,0,2.26.23C181.65,137.72,185.39,134.92,185.39,131.42Z" style="fill:#4b178e"/><path id="_Path_29" data-name=" Path 29" d="M190.84,133a4.88,4.88,0,0,0-.55-2.33h-9.73a9.12,9.12,0,0,1,.08,1.48,15.76,15.76,0,0,1-2.18,7.86,16,16,0,0,0,2.65.31C186.48,140.21,190.84,136.94,190.84,133Z" style="fill:#4b178e"/><path id="_Path_30" data-name=" Path 30" d="M189.44,133a4.87,4.87,0,0,1,.54-2.33h9.73a9.12,9.12,0,0,0-.08,1.48,15.76,15.76,0,0,0,2.18,7.86,15.84,15.84,0,0,1-2.64.31C193.79,140.21,189.44,136.94,189.44,133Z" style="fill:#4b178e"/><path id="_Path_31" data-name=" Path 31" d="M197.3,131.65a5.22,5.22,0,0,1,.39-1.87h7.08a5.76,5.76,0,0,0-.08,1.17,13.23,13.23,0,0,0,1.56,6.23,8.08,8.08,0,0,1-1.95.23C200.41,137.41,197.3,134.84,197.3,131.65Z" style="fill:#4b178e"/><path id="_Path_32" data-name=" Path 32" d="M195.74,134.14a10.59,10.59,0,0,0-.54-3.5h-9.73c.07.7.07,1.48.07,2.25a31.83,31.83,0,0,1-2.18,11.76A7.61,7.61,0,0,0,186,145C191.38,145,195.74,140.13,195.74,134.14Z" style="fill:#4b178e"/><ellipse id="_Path_33" data-name=" Path 33" cx="205.63" cy="130.87" rx="5.99" ry="4.44" style="fill:#4b178e"/></g><g id="_Group_26" data-name=" Group 26"><rect id="_Rectangle_85" data-name=" Rectangle 85" x="149.73" y="124.8" width="21.41" height="7.55" style="fill:#4b178e"/><g id="_Group_27" data-name=" Group 27"><g id="_Group_28" data-name=" Group 28"><rect id="_Rectangle_86" data-name=" Rectangle 86" x="149.73" y="124.95" width="4.67" height="8.1" style="fill:#4b178e"/><rect id="_Rectangle_87" data-name=" Rectangle 87" x="150.74" y="125.27" width="2.49" height="8.1" style="fill:#4b178e"/></g><g id="_Group_29" data-name=" Group 29"><rect id="_Rectangle_88" data-name=" Rectangle 88" x="166.63" y="124.95" width="4.67" height="8.1" style="fill:#4b178e"/><rect id="_Rectangle_89" data-name=" Rectangle 89" x="167.72" y="125.27" width="2.49" height="8.1" style="fill:#4b178e"/></g></g><g id="_Group_30" data-name=" Group 30"><rect id="_Rectangle_90" data-name=" Rectangle 90" x="157.05" y="130.64" width="6.93" height="8.33" style="fill:#4b178e"/><rect id="_Rectangle_91" data-name=" Rectangle 91" x="157.83" y="135.23" width="5.37" height="8.33" style="fill:#4b178e"/><rect id="_Rectangle_92" data-name=" Rectangle 92" x="160.4" y="145.43" width="0.31" height="8.33" style="fill:#4b178e"/><path id="_Path_34" data-name=" Path 34" d="M162.66,139.9h-4.21v5.53a6.1,6.1,0,0,0,2.1,4.59h0a6.2,6.2,0,0,0,2.11-4.59Z" style="fill:#4b178e"/><rect id="_Rectangle_93" data-name=" Rectangle 93" x="156.97" y="138.03" width="7.08" height="1.48" style="fill:#4b178e"/><rect id="_Rectangle_94" data-name=" Rectangle 94" x="157.75" y="143.17" width="5.53" height="0.47" style="fill:#4b178e"/><polygon id="_Path_35" data-name=" Path 35" points="165.54 124.8 155.57 124.8 155.57 134.53 160.55 136.16 165.54 134.53 165.54 124.8" style="fill:#4b178e"/><rect id="_Rectangle_95" data-name=" Rectangle 95" x="160.4" y="152.59" width="2.26" height="1.09" style="fill:#4b178e"/></g></g><g id="_Group_31" data-name=" Group 31"><g id="_Group_32" data-name=" Group 32"><g id="_Group_33" data-name=" Group 33"><rect id="_Rectangle_96" data-name=" Rectangle 96" x="279.66" y="124.8" width="4.52" height="9.5" style="fill:#4b178e"/><rect id="_Rectangle_97" data-name=" Rectangle 97" x="279.89" y="125.42" width="3.97" height="9.5" style="fill:#4b178e"/><path id="_Path_36" data-name=" Path 36" d="M283.4,127.13h-3v7.94a1.56,1.56,0,0,0,1.56,1.56h0a1.56,1.56,0,0,0,1.56-1.56h0Z" style="fill:#4b178e"/></g><g id="_Group_34" data-name=" Group 34"><rect id="_Rectangle_98" data-name=" Rectangle 98" x="291.96" y="124.8" width="4.52" height="9.5" style="fill:#4b178e"/><rect id="_Rectangle_99" data-name=" Rectangle 99" x="292.19" y="125.42" width="3.97" height="9.5" style="fill:#4b178e"/><path id="_Path_37" data-name=" Path 37" d="M295.7,127.13h-3.12v7.94a1.56,1.56,0,0,0,1.56,1.56h0a1.56,1.56,0,0,0,1.56-1.56h0Z" style="fill:#4b178e"/></g></g><rect id="_Rectangle_100" data-name=" Rectangle 100" x="282.78" y="124.8" width="10.51" height="8.17" style="fill:#4b178e"/><rect id="_Rectangle_101" data-name=" Rectangle 101" x="283.55" y="124.95" width="8.87" height="11.44" style="fill:#4b178e"/><rect id="_Rectangle_102" data-name=" Rectangle 102" x="279.43" y="132.43" width="17.2" height="0.39" style="fill:#4b178e"/><rect id="_Rectangle_103" data-name=" Rectangle 103" x="287.91" y="143.25" width="0.31" height="2.1" style="fill:#4b178e"/><path id="_Path_38" data-name=" Path 38" d="M292.51,131.57h-8.88v7a4.43,4.43,0,0,0,4.44,4.43h0a4.43,4.43,0,0,0,4.44-4.43v-7Z" style="fill:#4b178e"/><path id="_Path_39" data-name=" Path 39" d="M289.39,137.88h-2.64v5.37a1.36,1.36,0,0,0,1.32,1.32h0a1.36,1.36,0,0,0,1.32-1.32Z" style="fill:#4b178e"/><polygon id="_Path_40" data-name=" Path 40" points="292.66 136.09 283.4 136.09 283.55 136.71 292.51 136.71 292.66 136.09" style="fill:#4b178e"/></g><polygon points="328.16 131.65 328.16 131.26 326.53 131.26 326.53 132.5 324.97 132.5 324.97 135.15 324.27 136.47 324.11 136.47 324.11 138.97 323.57 140.45 323.33 140.45 323.33 141.3 322.56 141.3 322.56 142.08 322.17 142.08 322.17 142.86 314.15 142.86 314.15 142.08 313.76 142.08 313.76 141.3 312.98 141.3 312.98 140.45 312.67 140.45 312.12 138.97 312.12 136.47 312.05 136.47 311.35 135.15 311.35 132.5 310.18 132.5 310.18 131.26 308.15 131.26 308.15 131.65 306.52 131.65 306.52 124.88 306.44 124.88 308 124.88 309.87 124.88 311.5 124.88 313.52 124.88 317.03 124.88 319.21 124.88 322.71 124.88 324.81 124.88 326.37 124.88 328.24 124.88 329.8 124.88 329.72 124.88 329.72 131.65 328.16 131.65" style="fill:#4b178e"/><g id="_Group_35" data-name=" Group 35"><g id="_Group_36" data-name=" Group 36"><polygon id="_Path_41" data-name=" Path 41" points="147.87 124.8 140.78 124.8 141.64 134.37 147.01 134.37 147.87 124.8" style="fill:#4b178e"/><rect id="_Rectangle_104" data-name=" Rectangle 104" x="141.95" y="134.45" width="4.75" height="5.37" style="fill:#4b178e"/><rect id="_Rectangle_105" data-name=" Rectangle 105" x="141.4" y="132.89" width="5.76" height="0.31" style="fill:#4b178e"/><rect id="_Rectangle_106" data-name=" Rectangle 106" x="141.71" y="136.32" width="5.22" height="0.62" style="fill:#4b178e"/><rect id="_Rectangle_107" data-name=" Rectangle 107" x="144.13" y="141.3" width="0.31" height="2.26" style="fill:#4b178e"/><polygon id="_Path_42" data-name=" Path 42" points="146.7 139.28 141.95 139.28 141.95 140.13 144.28 142.16 146.7 140.13 146.7 139.28" style="fill:#4b178e"/><polygon id="_Path_43" data-name=" Path 43" points="147.01 134.14 141.64 134.14 140.7 135.38 147.94 135.38 147.01 134.14" style="fill:#4b178e"/><path id="_Path_44" data-name=" Path 44" d="M147,135.07h-5.37l-.86,1.25.93.16a15.68,15.68,0,0,0,5.38,0l.93-.16Z" style="fill:#4b178e"/><circle id="_Path_45" data-name=" Path 45" cx="144.28" cy="143.56" r="0.31" style="fill:#4b178e"/></g><g id="_Group_37" data-name=" Group 37"><rect id="_Rectangle_108" data-name=" Rectangle 108" x="139.38" y="124.8" width="2.26" height="0.86" style="fill:#4b178e"/><rect id="_Rectangle_109" data-name=" Rectangle 109" x="140.08" y="125.5" width="2.26" height="0.86" style="fill:#4b178e"/><rect id="_Rectangle_110" data-name=" Rectangle 110" x="140.62" y="125.97" width="2.26" height="0.86" style="fill:#4b178e"/></g></g><rect id="_Rectangle_111" data-name=" Rectangle 111" x="145.06" y="124.8" width="20.94" height="3.58" style="fill:#4b178e"/><rect id="_Rectangle_112" data-name=" Rectangle 112" x="260.82" y="124.8" width="23.59" height="5.92" style="fill:#4b178e"/><rect id="_Rectangle_113" data-name=" Rectangle 113" x="286.98" y="124.8" width="23.59" height="3.89" style="fill:#4b178e"/><rect id="_Rectangle_114" data-name=" Rectangle 114" x="286.98" y="124.8" width="15.57" height="5.37" style="fill:#4b178e"/><rect id="_Rectangle_115" data-name=" Rectangle 115" x="166.24" y="124.8" width="20.94" height="5.45" style="fill:#4b178e"/><rect x="135.88" y="124.8" width="5.37" height="1.56" style="fill:#4b178e"/><rect x="138.6" y="124.8" width="7.01" height="3.19" style="fill:#4b178e"/><rect x="324.5" y="124.8" width="8.8" height="3.5" style="fill:#4b178e"/><rect x="326.84" y="124.8" width="8.8" height="2.57" style="fill:#4b178e"/><path id="_Compound_Path_2" data-name=" Compound Path 2" d="M261.06,130.33V124.8h-4.13v.62a27.83,27.83,0,0,1-3.27,2.73H219.72a32.9,32.9,0,0,1-3-2.5v-.85h-4.12v5.53h.23v1.09l.16.38h.15V133h.23v.31h2.5V133h.23V131.8h.16l.15-.38v-.55a49.39,49.39,0,0,0,7,3.43c5.68,2.33,13.85,2,13.93,2h0c1.95,0,7.94-.08,12.61-2a38.27,38.27,0,0,0,7.24-3.59v.71l.16.38h.15V133h.24v.31h2.49V133h.23V131.8h.16l.15-.38v-1.09Zm-2.65,1.16h1.09v.16h-1.09Zm-1.4-1.16a16.1,16.1,0,0,1-2.18,1.24v-2.65h2.1v1.41Zm-35.73-.71v3.27A24.5,24.5,0,0,1,219,131.8l2.26-2.18Zm-2.5,2.11v-2.81h1.41c.23.16.54.39.85.63l-2.26,2.18Zm2.65-1.95.39.23c.55.32,1.09.63,1.71.94l-2,2v-3.19Zm13.47,6.07V134.3a11.56,11.56,0,0,0,1.56.07l-1.56,1.48Zm12.45-3.66,1.87,1.95a19.47,19.47,0,0,1-2,.62v-2.57Zm-.31,2.65h0l-1.94-1.79c.7-.23,1.32-.47,1.94-.7Zm-4.51-1.09v1.79L241,134.06a10,10,0,0,1,1.56-.31Zm-2,.31v1.71L239,134.3l1.55-.24Zm4.13,1.17-1.79-1.64,1.79-.46Zm2.18-.31a18.68,18.68,0,0,1-1.95.39v-2.18Zm-2.34.47-1.79.23v-1.87Zm-2.1.31c-.54.07-1.09.07-1.63.15v-1.71Zm-2.1.15c-.62,0-1.09.08-1.56.08v-1.56h0Zm-1.79.08-1.56-1.56a11.64,11.64,0,0,0,1.56-.07v1.63Zm-3.81-.08c-.47,0-1-.08-1.56-.08l1.56-1.55h0Zm-1.8-.08v-1.71a9.46,9.46,0,0,0,1.56.16l-1.56,1.55Zm-.54-1.79-1.56,1.48v-1.79c.55.08,1.09.24,1.56.31Zm-1.87-.39-1.71,1.64v-2.1c.54.15,1.09.31,1.71.46Zm2.18,2.18a11.23,11.23,0,0,1-1.63-.15l1.55-1.56h0v1.71Zm-2-.15-1.79-.23,1.79-1.64Zm-2.1-.31a18.68,18.68,0,0,1-2-.39l1.87-1.79h0v2.18Zm-2.18-.47v-2.57c.62.24,1.24.47,1.94.7l-1.94,1.87Zm-.24-.08a14.9,14.9,0,0,1-2-.62l1.94-1.95.08.08Zm-2.18-.7v-2.88c.62.31,1.25.62,2,.94Zm0-5.14h2.26v2.81c-.78-.31-1.56-.7-2.26-1Zm2.42,2.88V129h2.25v3.74c-.85-.31-1.55-.62-2.25-.94Zm2.41-2.88H231v4.36c-.78-.15-1.48-.39-2.26-.62Zm2.41,0h2.26v4.83a22.25,22.25,0,0,1-2.26-.39Zm2.42,0h2.25v5a21.08,21.08,0,0,1-2.25-.16Zm2.41,0h1.24v5h-1.32Zm1.48,0h2.26v4.83a20.2,20.2,0,0,1-2.26.16Zm2.41,0h2.18v4.44a20.77,20.77,0,0,1-2.18.39Zm2.41,0h2.26v3.82c-.7.23-1.48.39-2.26.62Zm2.42,0H247v2.81h0v.07a11.43,11.43,0,0,1-2.18.78Zm2.49,0h2.26v1.79a18.17,18.17,0,0,1-2.18,1h0Zm2.18,2.26V134L247.43,132a12.16,12.16,0,0,0,1.95-.86Zm2.8-1.56,2.18,2.18c-.62.32-1.4.71-2.26,1.09V129.7Zm-.31,3.35-2-2c.62-.31,1.16-.62,1.71-.94l.31-.23Zm.47-3.42a3.35,3.35,0,0,0,.85-.63h1.4v2.81h0Zm-2.57,4.36-.16.07V131.1l.08-.07,2,2-1.94.86Zm-13,1.94v-1.4l1.4,1.4Zm-1.64,0,1.4-1.4v1.4Zm-13.54-2.8,2-2,.08.07v3l-.16-.08a14.05,14.05,0,0,0-1.94-.93Zm-5.22-2.72h0l.23-.08v-1.4h2v2.64a8.49,8.49,0,0,1-2.18-1.16ZM214,131.49h1.09v.16H214Zm1.09-3v.62a.65.65,0,0,1-.78.39.92.92,0,0,1-.39-.39V128h1.09v.47Zm1.55-2.26c.47.39,1.09.93,1.95,1.56v.39h-1.95Zm2.34,2h-.31v-.24Zm1.87.77h2.88v1.72c-.63-.31-1.25-.7-1.79-1a10.83,10.83,0,0,1-1.09-.7Zm31.68,0c-.39.24-.7.47-1.09.7s-1.17.71-1.79,1h0v-1.72Zm1.79-.77.23-.16v.16Zm2.57-2.18v2.1h-2.1v-.31c.93-.78,1.63-1.4,2.1-1.79Zm2.65,2.49v.62a.6.6,0,0,1-.47.62.52.52,0,0,1-.62-.46v-1.17h1.09Z" style="fill:#4b178e"/></g></g></svg>