<svg id="Objects" xmlns="http://www.w3.org/2000/svg" viewBox="0 0 500 470"><title>goals</title><ellipse id="_Path_" data-name="&lt;Path&gt;" cx="95.28" cy="220.37" rx="40.15" ry="21.12" transform="translate(-19.76 9.64) rotate(-5.25)" style="fill:#009245"/><polygon id="_Path_2" data-name="&lt;Path&gt;" points="130.23 223.6 179.09 242.41 183.03 230.43 132.4 204.78 130.23 223.6" style="fill:#009245"/><ellipse id="_Path_3" data-name="&lt;Path&gt;" cx="114.58" cy="399.22" rx="40.15" ry="21.12" transform="translate(-161.82 89.21) rotate(-25.71)" style="fill:#009245"/><polygon id="_Path_4" data-name="&lt;Path&gt;" points="146.06 379.17 211.87 331.15 201.64 323.03 130.86 365.78 127.02 389.08 146.06 379.17" style="fill:#009245"/><ellipse id="_Path_5" data-name="&lt;Path&gt;" cx="404.58" cy="224.43" rx="21.12" ry="40.15" transform="translate(144.07 606.78) rotate(-84.75)" style="fill:#009245"/><polygon id="_Path_6" data-name="&lt;Path&gt;" points="368.13 225.84 318.93 248.75 312.11 230.43 379.88 199.6 368.13 225.84" style="fill:#009245"/><ellipse id="_Path_7" data-name="&lt;Path&gt;" cx="387.45" cy="397.88" rx="21.12" ry="40.15" transform="translate(-157.31 505.9) rotate(-56.98)" style="fill:#009245"/><polygon id="_Path_8" data-name="&lt;Path&gt;" points="360.1 381.82 295.42 334.2 305.84 324.41 382.67 376.28 378.91 392.18 360.1 381.82" style="fill:#009245"/><ellipse id="_Path_9" data-name="&lt;Path&gt;" cx="270.8" cy="122.43" rx="40.15" ry="21.12" transform="translate(-25.6 100.75) rotate(-20.14)" style="fill:#009245"/><polygon id="_Path_10" data-name="&lt;Path&gt;" points="262.3 140.84 259.9 199.01 245.59 192.75 246.65 131.71 262.3 140.84" style="fill:#009245"/><path id="_Path_11" data-name="&lt;Path&gt;" d="M201.41,439.13s-.56-18.09,2.72-11.74a32.92,32.92,0,0,1,3.13,11.74s4.94-3.86,7.67-6.42-3.23,10.56-3.23,10.56S201.76,444.71,201.41,439.13Z" style="fill:#009245"/><path id="_Path_12" data-name="&lt;Path&gt;" d="M144.82,55s-.57-18.09,2.71-11.74A32.73,32.73,0,0,1,150.66,55s5-3.85,7.67-6.41-3.22,10.56-3.22,10.56S145.16,60.59,144.82,55Z" style="fill:#009245"/><path id="_Path_13" data-name="&lt;Path&gt;" d="M439.17,456.53s-.57-18.09,2.72-11.74A32.92,32.92,0,0,1,445,456.53s4.94-3.85,7.66-6.42-3.22,10.56-3.22,10.56S439.52,462.11,439.17,456.53Z" style="fill:#009245"/><path id="_Path_14" data-name="&lt;Path&gt;" d="M175.94,156.65s-.56-18.09,2.72-11.74a32.92,32.92,0,0,1,3.13,11.74s4.94-3.85,7.66-6.42-3.22,10.56-3.22,10.56S176.29,162.23,175.94,156.65Z" style="fill:#009245"/><path id="_Path_15" data-name="&lt;Path&gt;" d="M433.86,74.67s-.57-18.09,2.72-11.74a33,33,0,0,1,3.13,11.74s4.94-3.85,7.66-6.41-3.22,10.56-3.22,10.56S434.2,80.25,433.86,74.67Z" style="fill:#009245"/><path id="_Path_16" data-name="&lt;Path&gt;" d="M357.76,28.39s-5.66-17.19-.71-12a33,33,0,0,1,6.32,10.38s3.65-5.1,5.53-8.32-.1,11-.1,11S359.67,33.65,357.76,28.39Z" style="fill:#009245"/><path id="_Path_17" data-name="&lt;Path&gt;" d="M294,390.88s-.57-18.09,2.72-11.74a33,33,0,0,1,3.13,11.74s4.94-3.85,7.66-6.41S304.28,395,304.28,395,294.34,396.46,294,390.88Z" style="fill:#009245"/><path id="_Path_18" data-name="&lt;Path&gt;" d="M28.94,263.86s-.57-18.09,2.71-11.75a32.76,32.76,0,0,1,3.13,11.75s4.95-3.86,7.67-6.42S39.23,268,39.23,268,29.28,269.44,28.94,263.86Z" style="fill:#009245"/><path id="_Path_19" data-name="&lt;Path&gt;" d="M471.78,246.11s-.57-18.09,2.71-11.74a32.73,32.73,0,0,1,3.13,11.74s4.95-3.85,7.67-6.41-3.22,10.56-3.22,10.56S472.12,251.7,471.78,246.11Z" style="fill:#009245"/><path id="_Path_20" data-name="&lt;Path&gt;" d="M67.54,447.83s.56-18.09-2.72-11.74a32.92,32.92,0,0,0-3.13,11.74S56.75,444,54,441.41,57.25,452,57.25,452,67.19,453.41,67.54,447.83Z" style="fill:#009245"/><path id="_Path_21" data-name="&lt;Path&gt;" d="M358.69,281.47s.56-18.09-2.72-11.74a32.73,32.73,0,0,0-3.13,11.74s-4.95-3.85-7.67-6.42,3.22,10.56,3.22,10.56S358.34,287.05,358.69,281.47Z" style="fill:#009245"/><path id="_Path_22" data-name="&lt;Path&gt;" d="M62.34,41.92s.57-18.09-2.72-11.74a32.92,32.92,0,0,0-3.13,11.74s-4.94-3.85-7.66-6.42,3.22,10.56,3.22,10.56S62,47.5,62.34,41.92Z" style="fill:#009245"/><path id="_Path_23" data-name="&lt;Path&gt;" d="M323.91,161s.57-18.09-2.72-11.74A33,33,0,0,0,318.06,161s-4.94-3.85-7.66-6.41,3.22,10.56,3.22,10.56S323.56,166.57,323.91,161Z" style="fill:#009245"/><g id="_Group_" data-name="&lt;Group&gt;"><circle id="_Path_24" data-name="&lt;Path&gt;" cx="247.57" cy="277.08" r="76.75" transform="translate(-123.41 256.22) rotate(-45)" style="fill:#009245"/><g id="_Group_2" data-name="&lt;Group&gt;"><path d="M290,228.33c2.87,3,3.87,7.86-.75,14-7.91,10.45-16,5.69-18.29-.92a10.63,10.63,0,0,0-1.23-2.57,5.23,5.23,0,0,0-.52-.66,4.58,4.58,0,0,0-4.56-1.65l-.3.09-.2,0c-.06,0-.07,0-.07,0l-16.52,22.78L231,236.66a4.54,4.54,0,0,1,2.3-4,8.33,8.33,0,0,1,4.3-1c.3,0,.61,0,.9,0a12.48,12.48,0,0,0,3.5-.87,9.66,9.66,0,0,0,2.95-1.93c2.94-2.86,3.75-7.73-.82-14.25a17.32,17.32,0,0,0-3.48-3.79,9.81,9.81,0,0,0-2.36-1.41s0,0,0,0a8.24,8.24,0,0,0-5.7-.41,7.65,7.65,0,0,0-1.41.51c-.24.12-.46.22-.69.35a9.67,9.67,0,0,0-2.38,1.81,12.79,12.79,0,0,0-1,1.08c-.14.18-.29.38-.43.58a10.66,10.66,0,0,0-1,1.8,4.37,4.37,0,0,1-.31.65l-.4.6c-.34.54-1.11,1-1.11,1.39v0c0,.23-.31.45-.54.67h0c-.24.17-.47.34-.7.48a1.26,1.26,0,0,1-.37.18,4.62,4.62,0,0,1-3,.35l-.51-.13-.23-.08-.23-.1-16.58-22.85a77.73,77.73,0,0,1,41.9-14.79c1.31-.07,2.65-.1,4-.1a77,77,0,0,1,9.42.56,77.78,77.78,0,0,1,36.46,14.31L276.94,219a5.11,5.11,0,0,0,.32,2.26c.09.27.45.53.45.8v0c0,.26.31.53.58.79a7.3,7.3,0,0,0,4.8,2,10.73,10.73,0,0,1,1.62.31,11.65,11.65,0,0,1,4,1.91A9.64,9.64,0,0,1,290,228.33Z" style="fill:#33438a"/><path d="M247.6,259.47l-26.81,8.68a2.67,2.67,0,0,1-.26-.07,1.07,1.07,0,0,1-.22-.1l-.22-.1a1.22,1.22,0,0,1-.27-.15,5.48,5.48,0,0,1-.65-.45l-.18-.18a3.49,3.49,0,0,1-.68-.81,3.19,3.19,0,0,1-.31-.58,4.65,4.65,0,0,1-.22-.54.5.5,0,0,1,0-.16,4.55,4.55,0,0,1-.17-.75,6.89,6.89,0,0,1-.05-1.39,10.68,10.68,0,0,1,.27-1.69c.07-.27.14-.56.23-.85a11.48,11.48,0,0,0,.42-5.19,9.43,9.43,0,0,0-1.09-3.15,9.14,9.14,0,0,0-1-1.34,3.05,3.05,0,0,0-.6-.59.33.33,0,0,0-.18-.15,2.91,2.91,0,0,0-.48-.4,6.37,6.37,0,0,0-.89-.54,3.61,3.61,0,0,0-.56-.27,8.44,8.44,0,0,0-2.2-.63,4.42,4.42,0,0,0-.73-.1,17.66,17.66,0,0,0-7,.86,17.32,17.32,0,0,0-4.18,1.82,12.73,12.73,0,0,0-1.56,1.12c-.24.21-.44.4-.65.62a9.07,9.07,0,0,0-1.91,9.53c.09.27.2.54.32.81a5.68,5.68,0,0,0,.39.78l.28.5a10.7,10.7,0,0,0,2.08,2.58c.27.24.51.49.74.73a10.4,10.4,0,0,1,1.08,1.37,6,6,0,0,1,.37.65q.15.33.27.63a4.69,4.69,0,0,1,.26,2.33,5.35,5.35,0,0,1-.46,1.52,6.71,6.71,0,0,1-.42.67,2.73,2.73,0,0,1-.29.38l-26.87,8.71a78.63,78.63,0,0,1-.12-47.86,76.74,76.74,0,0,1,4.78-11.61A78.39,78.39,0,0,1,201.6,196.3L218.17,219l.1,0c.09.05.26.1.46.18a2.9,2.9,0,0,0,.51.13l.48.07a4.34,4.34,0,0,0,2.48-.42,1.26,1.26,0,0,0,.37-.18,4.61,4.61,0,0,0,.7-.48h0c.23-.2.54-.42.54-.67v0c0-.2.43-.4.6-.63a8.69,8.69,0,0,0,.55-.76l.34-.6a5.6,5.6,0,0,0,.34-.65c.09-.2.21-.41.31-.61a5,5,0,0,1,.34-.59,11.84,11.84,0,0,1,.82-1.18l.49-.56a10.72,10.72,0,0,1,5-3.19,8.45,8.45,0,0,1,3.41-.24,7.23,7.23,0,0,1,1.14.25c.2.06.41.11.58.18a10.91,10.91,0,0,1,1.17.51,10.26,10.26,0,0,1,1.78,1.14c.29.23.6.49.88.76a7.73,7.73,0,0,1,.58.57,18.85,18.85,0,0,1,2,2.46,19.05,19.05,0,0,1,2.45,4.56,5.16,5.16,0,0,1,.24.73,10.32,10.32,0,0,1,.53,3.28,6.73,6.73,0,0,1-.06.91,3.91,3.91,0,0,1-.15.83c0,.2-.08.39-.13.59a.24.24,0,0,1-.06.15c-.06.16-.11.34-.18.5a2.14,2.14,0,0,1-.2.44,7.22,7.22,0,0,1-1.62,2.26,7.5,7.5,0,0,1-1.38,1.1,10.18,10.18,0,0,1-1.57.83,11.53,11.53,0,0,1-3.5.87,8.88,8.88,0,0,1-.9,0c-.4,0-.77,0-1.11.05a10,10,0,0,0-1.84.36,5.11,5.11,0,0,0-.72.27,2.67,2.67,0,0,0-.63.33c-.19.11-.34.22-.49.32a1.37,1.37,0,0,0-.21.18,1.56,1.56,0,0,0-.29.28,4.32,4.32,0,0,0-1.27,2.63.64.64,0,0,0,0,.2,2.56,2.56,0,0,0,0,.4v.05Z" style="fill:#f4be44"/><path d="M247.6,337.51h0a77.7,77.7,0,0,1-48.78-17.07c-.45-.34-.88-.71-1.32-1.07-1.9-1.58-3.74-3.26-5.48-5-1.39-1.4-2.71-2.84-4-4.34a77.93,77.93,0,0,1-14.76-26.36l26.8-8.73,0-.05a1.28,1.28,0,0,0,.29-.38,3.22,3.22,0,0,0,.42-.67,4.19,4.19,0,0,0,.46-1.52,4.35,4.35,0,0,0-.12-1.87A3.37,3.37,0,0,0,201,270a5.42,5.42,0,0,0-.27-.63,1.57,1.57,0,0,0-.13-.23,3,3,0,0,0-.24-.42,7.87,7.87,0,0,0-1.08-1.37,3.17,3.17,0,0,0-.37-.36,2.13,2.13,0,0,0-.35-.38,11.21,11.21,0,0,1-2.1-2.57l-.28-.5a11.87,11.87,0,0,1-.71-1.59c-.13-.38-.26-.74-.35-1.12a9.76,9.76,0,0,1-.3-3.4c0-.16,0-.34,0-.5v-.06c0-.21.18-.43.25-.65a4,4,0,0,1,.23-.57,4.7,4.7,0,0,1,.25-.6l.07-.09a2.72,2.72,0,0,1,.27-.54,9.2,9.2,0,0,1,2.15-2.62,17,17,0,0,1,1.56-1.12c.29-.16.58-.34.9-.51a19.55,19.55,0,0,1,2.09-.91c.38-.15.78-.28,1.19-.4a19.66,19.66,0,0,1,5.66-.94l.87,0c.18,0,.35,0,.52.06a2.76,2.76,0,0,1,.65.09,7.11,7.11,0,0,1,1.15.25,6.11,6.11,0,0,1,.94.35.77.77,0,0,1,.2.07,2,2,0,0,1,.41.21l.39.21c.19.1.37.23.56.35a5.07,5.07,0,0,1,.66.55,4.17,4.17,0,0,1,.6.59,9.94,9.94,0,0,1,1,1.34,9.43,9.43,0,0,1,1.09,3.15,11.48,11.48,0,0,1-.42,5.19c-.09.29-.16.58-.23.85a8.33,8.33,0,0,0-.22,3.08,4.66,4.66,0,0,0,.42,1.45,3.19,3.19,0,0,0,.31.58,3.47,3.47,0,0,0,.3.42,5.4,5.4,0,0,0,.83.78,3.36,3.36,0,0,0,.38.24,1.22,1.22,0,0,0,.27.15.49.49,0,0,0,.22.1,1,1,0,0,0,.21.1l.32.11,26.74-8.72,0,28.18s0,.06-.08.11a1.26,1.26,0,0,1-.1.15.62.62,0,0,1-.14.14l-.15.17a3.35,3.35,0,0,1-.6.49,1.7,1.7,0,0,1-.23.17,2.09,2.09,0,0,0-.28.17,6.1,6.1,0,0,1-.84.34l-.4.09c-1.34.27-3.14,0-5.45-1.65-.24-.16-.49-.32-.75-.46a11.46,11.46,0,0,0-2-1,9.83,9.83,0,0,0-5.56-.44,7.85,7.85,0,0,0-1.84.68,5,5,0,0,0-.56.31,7.15,7.15,0,0,0-1.11.86c-2,1.87-3.42,5.08-3.52,10a16.81,16.81,0,0,0,.84,5.84,10.79,10.79,0,0,0,.93,2,7.81,7.81,0,0,0,1.24,1.56,7.54,7.54,0,0,0,1.44,1.17,9.19,9.19,0,0,0,1.6.8,11.36,11.36,0,0,0,9.21-.88,6.74,6.74,0,0,1,.64-.34c.39-.19.75-.36,1.12-.5a7.54,7.54,0,0,1,2.43-.47,5.36,5.36,0,0,1,.94.09.34.34,0,0,0,.13,0l.43.13a2.65,2.65,0,0,1,.37.12l.45.22.3.18a4.17,4.17,0,0,1,.83.69.9.9,0,0,1,.19.2,3.48,3.48,0,0,1,.39.51l.09.13s.06,0,.06.05Z" style="fill:#ed2d63"/><path d="M321.9,283.66a78.23,78.23,0,0,1-74.3,53.94V309.47a.36.36,0,0,0-.05-.1s0-.05-.06-.09l-.09-.13a3.48,3.48,0,0,0-.39-.51.9.9,0,0,0-.19-.2,4.17,4.17,0,0,0-.83-.69l-.3-.18-.45-.22a2.65,2.65,0,0,0-.37-.12l-.43-.13a.34.34,0,0,1-.13,0,5.36,5.36,0,0,0-.94-.09,7.54,7.54,0,0,0-2.43.47,7.73,7.73,0,0,0-1.12.5,6.74,6.74,0,0,0-.64.34,11.36,11.36,0,0,1-9.21.88,9.19,9.19,0,0,1-1.6-.8,7.54,7.54,0,0,1-1.44-1.17,7.81,7.81,0,0,1-1.24-1.56,10.79,10.79,0,0,1-.93-2,16.81,16.81,0,0,1-.84-5.84c.1-4.95,1.51-8.16,3.52-10a6.48,6.48,0,0,1,1.11-.86,5,5,0,0,1,.56-.31c2.9-1.53,6.54-1,9.42.75.26.14.51.3.75.46,2.31,1.65,4.11,1.92,5.45,1.65l.4-.09a6.1,6.1,0,0,0,.84-.34,2.09,2.09,0,0,1,.28-.17,1.7,1.7,0,0,0,.23-.17,3.35,3.35,0,0,0,.6-.49l.15-.17a.62.62,0,0,0,.14-.14c.15-.19.23-.31.23-.31l0-28.13,26.79,8.72a2.12,2.12,0,0,1,.22.3,2.8,2.8,0,0,1,.31.58,5.79,5.79,0,0,1,.27.83c0,.14.07.31.09.48a4.81,4.81,0,0,1-.2,2,5.16,5.16,0,0,1-.65,1.28,7.74,7.74,0,0,1-.51.7,9.26,9.26,0,0,1-1.91,1.79,11.44,11.44,0,0,0-.94.75l-.43.44c-4.48,4.54-5.17,12.57,6.13,16.47a20.72,20.72,0,0,0,4.2,1,9.35,9.35,0,0,0,7.88-2.55,8.39,8.39,0,0,0,1.12-1.43,10.66,10.66,0,0,0,1.43-3.56,12,12,0,0,0,.05-4.73,8,8,0,0,1,.27-4.92,4.59,4.59,0,0,1,.26-.49,3,3,0,0,1,.29-.41,2,2,0,0,1,.34-.43c.1-.08.2-.2.29-.27a2.19,2.19,0,0,1,.35-.27,1.66,1.66,0,0,1,.32-.22,4.16,4.16,0,0,1,.63-.32l0,0,.47-.16a1.55,1.55,0,0,1,.38-.11Z" style="fill:#359ad4"/><path d="M325.71,259.47a77.86,77.86,0,0,1-3.78,24.08l-26.79-8.67,0,0a1.23,1.23,0,0,0-.41.11,1.63,1.63,0,0,0-.47.16,3.73,3.73,0,0,0-1,.56,2.19,2.19,0,0,0-.35.27c-.05,0-.11.07-.14.14a2.43,2.43,0,0,0-.49.56,1.91,1.91,0,0,0-.29.41,2.82,2.82,0,0,0-.26.49,7.72,7.72,0,0,0-.28,4.92,11.13,11.13,0,0,1,.18,3.13c0,.22,0,.43-.07.65a4.64,4.64,0,0,1-.13.79,7.91,7.91,0,0,1-.29,1.21,9.51,9.51,0,0,1-.65,1.61,8.77,8.77,0,0,1-2.24,2.89,6.72,6.72,0,0,1-.66.5,6.15,6.15,0,0,1-.73.44,6.4,6.4,0,0,1-.8.37,6.74,6.74,0,0,1-.85.5c-.29.09-.61.42-.93.42h-.07c-.31,0-.62-.08-.94-.06a13.24,13.24,0,0,1-3.75-.33,8.51,8.51,0,0,1-1.24-.34c-.48-.12-1-.29-1.5-.47-6.68-2.31-9.17-6.06-9.17-9.67a7.52,7.52,0,0,1,.05-.82,1.74,1.74,0,0,1,.05-.34,4.21,4.21,0,0,1,.12-.71,5.33,5.33,0,0,1,.2-.74c0-.08.05-.16.09-.25a6.07,6.07,0,0,1,.32-.8,7.62,7.62,0,0,1,.44-.85,5.93,5.93,0,0,1,.53-.81c.17-.27.37-.53.56-.78a9.1,9.1,0,0,1,.68-.72l.43-.44a7.45,7.45,0,0,1,.94-.76c.16-.14.33-.24.47-.37a4.48,4.48,0,0,1,.42-.36,11,11,0,0,0,1-1.05,7.74,7.74,0,0,0,.51-.7,3.58,3.58,0,0,0,.37-.65,5,5,0,0,0,.42-1.27,1.11,1.11,0,0,0,0-.23,4.33,4.33,0,0,0,0-1.13,2.27,2.27,0,0,0-.09-.48,4,4,0,0,0-.27-.83,2.8,2.8,0,0,0-.31-.58,3.35,3.35,0,0,0-.23-.36l-26.78-8.66,16.59-22.8.2,0a2.36,2.36,0,0,1,.52-.12,4.32,4.32,0,0,1,1.36,0l.32.05.34.09a4.34,4.34,0,0,1,.72.29c.12.05.24.13.37.2a5.72,5.72,0,0,1,1.77,1.75,8.94,8.94,0,0,1,.63,1.12c.2.43.39.9.58,1.43,2.25,6.61,10.38,11.37,18.29.92,2.3-3.06,3.21-5.78,3.2-8.12a6.73,6.73,0,0,0-.06-.91,7.45,7.45,0,0,0-.23-1.2,4.31,4.31,0,0,0-.19-.61.81.81,0,0,0-.1-.25,2.43,2.43,0,0,0-.19-.47,2.92,2.92,0,0,0-.25-.5s0,0,0-.06a3.52,3.52,0,0,0-.4-.63,3.7,3.7,0,0,0-.47-.65,4.22,4.22,0,0,0-.53-.6,9.1,9.1,0,0,0-1.34-1.21,6.33,6.33,0,0,0-.77-.5,5.43,5.43,0,0,0-.57-.35,10.28,10.28,0,0,0-1.26-.59l-.51-.2c-.29-.11-.58-.19-.87-.27a9,9,0,0,0-1.64-.33,10.83,10.83,0,0,1-1.68-.29.54.54,0,0,0-.21-.05,9.93,9.93,0,0,1-1.43-.56,4,4,0,0,1-.58-.34,4.39,4.39,0,0,1-.87-.76c-.25-.26-.58-.53-.58-.79v0c0-.27-.35-.56-.45-.8a5.05,5.05,0,0,1-.3-2.17l16.6-22.81a78.32,78.32,0,0,1,26.24,33.31,76.21,76.21,0,0,1,4.06,12.93A77.57,77.57,0,0,1,325.71,259.47Z" style="fill:#f25e9e"/></g></g><g id="_Group_3" data-name="&lt;Group&gt;"><g id="_Group_4" data-name="&lt;Group&gt;"><g id="_Group_5" data-name="&lt;Group&gt;"><path id="_Path_25" data-name="&lt;Path&gt;" d="M438.12,382.89c-.56,1.81-1.24,3.6-1.92,5.26a74.41,74.41,0,0,1-3.57,7c-1.41,3-2.35,6.11-3.47,9.19-.49,1.33-1,2.67-1.61,4a5.08,5.08,0,0,1-1.45,2.15h0a1,1,0,0,1-.39.16c-1.78.32-.59-2.6-.41-3.25.08-.28.34-.87.23-1.15a.4.4,0,0,0-.25-.28c-.45-.08-1.16,1.18-1.32,1.4-.44.61-.78,1.3-1.21,1.93s-.72,1.42-1.45,1.54c-1.81.29-1.21-1.65-.83-2.64.23-.66.75-1.63.94-2.29.09-.34.05-.69-.17-.74s-.32,0-.59.28a25.25,25.25,0,0,0-2.07,2.46,1.86,1.86,0,0,1-1.49.69h0a.86.86,0,0,1-.41-.05c-1-.31-.6-1.54-.19-2.19s1-1.43,1.44-2.18l.24-.36c.34-.55.81-1.33.68-1.82-.19-.73-1.15.11-1.47.27a3.13,3.13,0,0,1-2,.44,1,1,0,0,1-.71-1.11c0-.82.71-1.24,1.29-1.71a17.18,17.18,0,0,0,2.32-2.19,13.87,13.87,0,0,0,3.24-5.32c.46-1.71.89-3.42,1.36-5.14.31-1.14.63-2.27,1-3.41,2.17-6.74,5.41-13.5,10.89-15.14C440.88,369.21,440.26,376.12,438.12,382.89Z" style="fill:#f4ac8d"/></g><path id="_Path_26" data-name="&lt;Path&gt;" d="M423.57,392.44c-1.11,2.37-2.88,4.95-3.17,7s-.1,3.22-2.24,5.8-1.71,3.11-1.09,3.32a.86.86,0,0,1-.41-.05c-1-.31-.6-1.54-.19-2.19s1-1.43,1.44-2.18l.24-.36c.34-.55.81-1.33.68-1.82-.19-.73-1.15.11-1.47.27a3.13,3.13,0,0,1-2,.44,1,1,0,0,1-.71-1.11c0-.82.71-1.24,1.29-1.71a17.18,17.18,0,0,0,2.32-2.19,13.87,13.87,0,0,0,3.24-5.32c.46-1.71.89-3.42,1.36-5.14C423.3,388.06,424.46,390.51,423.57,392.44Z" style="fill:#db825e;opacity:0.5"/><path id="_Path_27" data-name="&lt;Path&gt;" d="M421.29,410.8c-1.81.29-1.21-1.65-.83-2.64.23-.66.75-1.63.94-2.29.09-.34.05-.69-.17-.74a.69.69,0,0,1,.75.47c.19.58-.7,2.31-1.09,3.26S420.54,410.6,421.29,410.8Z" style="fill:#db825e;opacity:0.5"/><path id="_Path_28" data-name="&lt;Path&gt;" d="M426.09,410.45a1,1,0,0,1-.39.16c-1.78.32-.59-2.6-.41-3.25.08-.28.34-.87.23-1.15a.4.4,0,0,0-.25-.28c.1-.05.87-.42.8.64s-.9,2.64-.64,3.34S426,410.47,426.09,410.45Z" style="fill:#db825e;opacity:0.5"/></g><path id="_Path_29" data-name="&lt;Path&gt;" d="M460.81,378.93s-8.12,18.58-37.7-.25a19.5,19.5,0,0,1-6.12-6.11c-13-20.56,12.36-63.8,12.36-63.8s18.46-2.25,28.71,14.83-5.12,46.19-3.61,52.42c1.56,6.49,6,3.17,6.34,2.93Z" style="fill:#074959"/><path id="_Path_30" data-name="&lt;Path&gt;" d="M460.81,378.93s-8.12,18.58-37.7-.25a19.5,19.5,0,0,1-6.12-6.11c3.5-4.9,9.77-13.78,10.08-14s16.82,5.75,16.82,5.75-2.55,11.95,4.78,17c7.11,4.91,11.85-2,12.12-2.43Z" style="fill:#0f3142"/><g id="_Group_6" data-name="&lt;Group&gt;"><path id="_Path_31" data-name="&lt;Path&gt;" d="M371.75,393.08q-.3.14-.6.24h0a8.78,8.78,0,0,1-3.82.71c-5.63-.7-7.13-4.53.9-12.59s12.94-9.84,12.94-9.84l3.42,13.92S377.27,390.86,371.75,393.08Z" style="fill:#01484c"/><path id="_Path_32" data-name="&lt;Path&gt;" d="M371.11,393.33a8.78,8.78,0,0,1-3.82.71c-5.63-.7-7.13-4.53.9-12.59s12.94-9.84,12.94-9.84l3.42,13.92a17.77,17.77,0,0,1-8.11-1.55c-3.94-1.87-8.39,1.08-10.43,5S368.37,394.29,371.11,393.33Z" style="fill:#191f34;opacity:0.30000000000000004"/></g><g id="_Group_7" data-name="&lt;Group&gt;"><path id="_Path_33" data-name="&lt;Path&gt;" d="M397.39,411.31c-2.65-4.07,0-19,0-19L411.47,389a27,27,0,0,1-.79,7.52,69.42,69.42,0,0,1-2.37,8.44,31.8,31.8,0,0,1-2.35,5.38C402.94,415.64,399.85,415.08,397.39,411.31Z" style="fill:#01484c"/><path id="_Path_34" data-name="&lt;Path&gt;" d="M397.39,411.31c-2.65-4.07,0-19,0-19L411.47,389a27,27,0,0,1-.79,7.52h0a16,16,0,0,1-7.82,1.09c-4.41-.5-4.73,9-3.47,12.12s3.76,3.93,6.57.61C402.94,415.64,399.85,415.08,397.39,411.31Z" style="fill:#191f34;opacity:0.30000000000000004"/></g><path id="_Path_35" data-name="&lt;Path&gt;" d="M420.89,393s-11,8.13-31.87-4.46c-14.08-8.48-16-16.29-15.59-23.12Z" style="fill:#a6183d"/><g id="_Group_8" data-name="&lt;Group&gt;"><path d="M308,309.05a77.52,77.52,0,0,1-11.92,11.69c-3.05.18-6.79-.33-9.66,1.21-.55.29-1.43.62-1.43.65h0c-1,0-1.13-.31-1-1.49a5.67,5.67,0,0,1,2.65-3.63c1.09-.7,3-.91,3.75-1.76a32.21,32.21,0,0,0-6.71-3.31c-2.75-1.05-4.55-1.77-5-3a2.21,2.21,0,0,1,.08-1.68c.89-2.34,6.13.22,8,1s3.13.72,3.4.1v0c.24-.54-.34-1.53-2.14-2.8-2.94-2.11-5.47-3.81-5.84-5.74h0a2.79,2.79,0,0,1,.3-1.88c1.67-3.22,9.86,5.44,11.43,4.21,1.24-1-5.51-7.25-4.08-9.25,1.16-1.64,3.16-1.55,6.19,1.8,2.49,2.72,4.58,5.61,6.06,7.31C303.7,304.34,305,306.92,308,309.05Z" style="fill:#191f34;opacity:0.30000000000000004"/><path id="_Path_36" data-name="&lt;Path&gt;" d="M284.43,318.05c.15-1.48,1.61-2.89,2.76-3.64s3-.9,3.79-1.75a30.8,30.8,0,0,0-6.68-3.31c-2.75-1.05-4.53-1.77-5-3a2.21,2.21,0,0,1,.09-1.68c.88-2.34,6.12.22,8,1s3.13.71,3.4.09v0c.24-.55-.35-1.54-2.14-2.81-2.93-2.1-5.46-3.8-5.84-5.74h0a2.77,2.77,0,0,1,.3-1.87c1.67-3.22,9.87,5.44,11.43,4.2,1.25-1-5.51-7.25-4.08-9.24,1.16-1.64,3.16-1.56,6.2,1.79,2.48,2.73,4.58,5.62,6.05,7.32,2.08,2.38,3.66,5.92,8.75,8.21,0,0,56.61,22.78,64.09,26.86,8.72,4.77,7.73,8.64,7.73,8.64a8.62,8.62,0,0,1-1.42,3.82c-2.8,4.28-9.59,7.4-20,1.48-7.44-4.07-57.6-30.71-57.63-30.73-2.15-1.31-6-.11-7.48,0-3.07.19-7.06-.34-9.95,1.21a4.74,4.74,0,0,1-1.64.66h0C284.67,319.57,284.31,319.23,284.43,318.05Z" style="fill:#f0b89f"/><path id="_Path_37" data-name="&lt;Path&gt;" d="M284.43,318.05c.15-1.48,1.61-2.89,2.76-3.64s3-.9,3.79-1.75c0,0,2.57,1.42,3,1.53s-.83.75-3.39.79a5.9,5.9,0,0,0-5.2,3c-.65,1.44-.13,1.58-.13,1.58h0C284.67,319.57,284.31,319.23,284.43,318.05Z" style="fill:#db825e;opacity:0.5"/><path id="_Path_38" data-name="&lt;Path&gt;" d="M279.31,306.37a2.21,2.21,0,0,1,.09-1.68c.88-2.34,6.12.22,8,1s3.13.71,3.4.09c0,.22-.18,1.77-1.3,1.74s-4.76-1.63-6.81-2.11S279.38,304.59,279.31,306.37Z" style="fill:#db825e;opacity:0.5"/><path id="_Path_39" data-name="&lt;Path&gt;" d="M282.85,297.2a2.77,2.77,0,0,1,.3-1.87c1.67-3.22,9.87,5.44,11.43,4.2,0,0-.37,2.15-3.24.38S284.15,294.17,282.85,297.2Z" style="fill:#db825e;opacity:0.5"/><path id="_Path_40" data-name="&lt;Path&gt;" d="M304.29,305.59c-4.31-6.32-11.33-16.36-13.79-15.3,1.16-1.64,3.16-1.56,6.2,1.79,2.48,2.73,4.58,5.62,6.05,7.32,2.08,2.38,3.66,5.92,8.75,8.21,0,0,56.61,22.78,64.09,26.86,8.72,4.77,7.73,8.64,7.73,8.64a8.62,8.62,0,0,1-1.42,3.82c.38-1.43-.08-3-13.11-9.12-15.75-7.44-29.68-13.42-34.71-15.49C327.34,319.54,308.61,311.9,304.29,305.59Z" style="fill:#db825e;opacity:0.5"/></g><g id="_Group_9" data-name="&lt;Group&gt;"><path id="_Path_41" data-name="&lt;Path&gt;" d="M436.88,389.17a33.94,33.94,0,0,1-4.86,8.36c-3.23.82-11.34-2.8-11.13-4.54-11.22,0-23.72-2.6-36.07-13.33-5-4.37-13.41-15.39-14.52-22.19-.39-2.34-17.53-11.24-18.39-13.29a11.9,11.9,0,0,1,1-7.92c2.18-4.85,6.71-8.87,10.53-7.27,10.52,4.37,37.32,16.28,50.54,24.51,0,0,7.91,5.88,18.26,15.07C437.68,373.44,440.25,380.54,436.88,389.17Z" style="fill:#94dadd"/></g><path id="_Path_42" data-name="&lt;Path&gt;" d="M436.88,389.17a6.9,6.9,0,0,1,.15-.95c1.47-6.43-4.47-15.86-17.85-11.24s-22.19-2.55-26.43-9.2-1.95-18.11-3.72-20-9.21-6.44-18.42-10.79a23.4,23.4,0,0,0-17.72-.75c2.18-4.85,6.71-8.87,10.53-7.27,10.52,4.37,37.32,16.28,50.54,24.51,0,0,7.91,5.88,18.26,15.07C437.68,373.44,440.25,380.54,436.88,389.17Z" style="fill:#77c6c6"/><g id="_Group_10" data-name="&lt;Group&gt;"><path id="_Path_43" data-name="&lt;Path&gt;" d="M397.49,363s-2.35,8.16,7.53,12.33,14.66-2.43,14.66-2.43-15.26-9.17-22.19-9.9" style="fill:#f0b89f"/><path id="_Path_44" data-name="&lt;Path&gt;" d="M397.49,363s-2.35,8.16,7.53,12.33,14.66-2.43,14.66-2.43-15.26-9.17-22.19-9.9" style="fill:#db825e;opacity:0.8"/></g><g id="face"><g id="_Group_11" data-name="&lt;Group&gt;"><circle id="ear" cx="395.2" cy="332.75" r="7.75" transform="translate(-74.57 547.74) rotate(-64.69)" style="fill:#f0b89f"/><circle id="ear-2" data-name="ear" cx="395.2" cy="332.75" r="7.75" transform="translate(-74.57 547.74) rotate(-64.69)" style="fill:#db825e;opacity:0.30000000000000004"/><path id="_Path_45" data-name="&lt;Path&gt;" d="M395.25,328c2.16-.36,3.52,1.86,3.35,3.77,0,.47-1.08.73-1.14.18-.13-1.14-.18-1.47-1.23-1.87q-1.23-.93-1,.72c.14.29.28.58.44.86a.79.79,0,0,1-.76,1.22c-1.29-.15-2.66,1.16-1.59,2.36s2.1.87,3.29.34c.24-.1.58,0,.39.34-1.11,1.83-3.48,1.35-4.85.06-1.8-1.71-.4-4,1.52-4.63C393.19,329.87,393.29,328.28,395.25,328Z" style="fill:#db825e;opacity:0.5"/></g><path id="head" d="M395.86,331.32c7.13-14.45,23.25-20.83,37.7-13.7a29.18,29.18,0,0,1,13.28,39.07c-7.13,14.46-29.46,20-40.28,14.7-6.32-2.6-11.88-10.51-13.44-19.35C392.07,346.14,393,337.11,395.86,331.32Z" style="fill:#f0b89f"/><g id="_Group_12" data-name="&lt;Group&gt;"><path id="ear-3" data-name="ear" d="M437.84,360a7.75,7.75,0,1,1,1.08,10.9A7.75,7.75,0,0,1,437.84,360Z" style="fill:#f0b89f"/><path id="_Path_46" data-name="&lt;Path&gt;" d="M448.2,362.91c-.55-2.13-3.13-2.48-4.8-1.55-.42.23-.24,1.28.29,1.12,1.09-.35,1.41-.44,2.21.37.9.5.81.91-.25,1.23l-1-.06a.79.79,0,0,0-.82,1.18c.66,1.12,0,2.9-1.51,2.41-1.36-.44-1.64-1.58-1.64-2.87,0-.27-.27-.52-.47-.23-1.22,1.76.17,3.73,1.9,4.46,2.29,1,3.79-1.22,3.62-3.25C447.28,365.56,448.69,364.83,448.2,362.91Z" style="fill:#db825e;opacity:0.5"/></g><path id="nose" d="M405.47,346.91l8.1,6.8s-6.29-.69-7.51-2.69A5.51,5.51,0,0,1,405.47,346.91Z" style="fill:#db825e"/><g id="mouth"><path id="_Path_47" data-name="&lt;Path&gt;" d="M406.14,358.39a3.2,3.2,0,0,0,1.56,4.18,8,8,0,0,0,9-1A19.58,19.58,0,0,1,406.14,358.39Z" style="fill:#ec5e76"/><path id="_Path_48" data-name="&lt;Path&gt;" d="M416.44,361.46a55.46,55.46,0,0,1-7.07-2.68c-2.33-1.07-4.33-2.67-6.61-3.81-.37-.19-.42.55-.26.73,2.79,3.35,9.57,6.75,14,6.13C416.92,361.77,416.79,361.56,416.44,361.46Z" style="fill:#ca1535"/></g><path id="_Path_49" data-name="&lt;Path&gt;" d="M433.78,349.79a4,4,0,0,1-2.9-.05A6.58,6.58,0,0,0,427,344.4c-5.54-2.6-8.68,1.61-8.68,1.61a14.14,14.14,0,0,1,7.18,1.73,11.74,11.74,0,0,1,5.18,5.77,9.21,9.21,0,0,0,.27-1.73A2.91,2.91,0,0,0,433.78,349.79Z" style="fill:#191f34"/><path id="_Path_50" data-name="&lt;Path&gt;" d="M398.11,331.15a3.64,3.64,0,0,0,1.48,2.26,6.13,6.13,0,0,1,6.13.4c4.81,3.06,3.06,7.62,3.06,7.62a13.12,13.12,0,0,0-4.94-4.77,10.88,10.88,0,0,0-7.11-1.21,9,9,0,0,1,1.22-1.07A2.71,2.71,0,0,1,398.11,331.15Z" style="fill:#191f34"/><path id="_Path_51" data-name="&lt;Path&gt;" d="M420.4,353.44c-1.76,1.77-1.36,5,.9,7.25s5.52,2.63,7.28.86,1.36-5-.9-7.25S422.16,351.68,420.4,353.44Z" style="fill:#ec5e76;opacity:0.4"/><path id="_Path_52" data-name="&lt;Path&gt;" d="M403.25,341.26c-.2-2.49-2.93-4.29-6.1-4s-5.58,2.5-5.38,5,2.94,4.28,6.11,4S403.45,343.74,403.25,341.26Z" style="fill:#ec5e76;opacity:0.4"/></g><path id="_Path_53" data-name="&lt;Path&gt;" d="M433.54,311.29c-17.48-12.41-33.25.81-37.63,11.63,0,0,8.48,8.15,14.42,10l9.35-9.55-4.76,13.77s5.15,5.37,9.59,4.6l8.75-15.11-4.8,17.47a27.8,27.8,0,0,0,10.76,8.36l3.86-8-1.71,11s-4.11,2.61-4.69,6.62c0,0,5.22-8,12.2-3.12C461,345,457.2,314.62,433.54,311.29Z" style="fill:#045f68"/><path id="_Path_54" data-name="&lt;Path&gt;" d="M421.81,307.89a18.47,18.47,0,0,0-12.71,2.61c-6.63,4-10.8,12.12-10.8,12.12s5.84,6.21,10,7.2c0,0-6.77-5.24-5.69-8.76S408.58,309.4,421.81,307.89Z" style="fill:#6badc1"/><path id="_Path_55" data-name="&lt;Path&gt;" d="M433,324.39l-9.29,15.95a17.59,17.59,0,0,1-6.78-3s3.73,1.37,5.55.42S433,324.39,433,324.39Z" style="fill:#6badc1"/><path id="_Path_56" data-name="&lt;Path&gt;" d="M444.18,338.76,439,351s-5.22-2-7.69-5.14c0,0,5.44,3.24,6.76,2.49S444.18,338.76,444.18,338.76Z" style="fill:#6badc1"/><path id="_Path_57" data-name="&lt;Path&gt;" d="M449.17,323s6.6,11.51,4.35,22S448.33,358,448.33,358s4.09-10.07,3.92-18.48C452,328.82,449.17,323,449.17,323Z" style="fill:#6badc1"/><path id="_Path_58" data-name="&lt;Path&gt;" d="M412.75,328c-.64-2.79-4.39-3.35-6.8-3.44-3.17-.11-4.53,1-6.33,3.29-.13.16-.16.89.2.65,3.68-2.5,8.13.34,11.91.61A.93.93,0,0,0,412.75,328Z" style="fill:#0f3142"/><path id="_Path_59" data-name="&lt;Path&gt;" d="M430.18,338.1c2.6-1.18,5.32,1.47,6.85,3.34,2,2.45,2,4.19,1.21,7-.05.2-.62.67-.64.23-.24-4.43-5.18-6.25-7.69-9.11A.92.92,0,0,1,430.18,338.1Z" style="fill:#0f3142"/></g><g id="_Group_13" data-name="&lt;Group&gt;"><path id="_Path_60" data-name="&lt;Path&gt;" d="M61.56,367.56s-7.36,2-6.71,13.69c.49,8.8-5.73,6.5-5.73,6.5s5.29,8.61,17.45-.3C75.52,380.9,72.3,363.08,61.56,367.56Z" style="fill:#edaa51"/><g id="_Group_14" data-name="&lt;Group&gt;"><g id="_Group_15" data-name="&lt;Group&gt;"><path id="_Path_61" data-name="&lt;Path&gt;" d="M66.43,408.45c.14,1.42.32,2.84.58,4.24a5.05,5.05,0,0,0,.88,2.44,1.06,1.06,0,0,0,.34.26c1.65.74,1.22-2.37,1.2-3.06,0-.28-.11-.92.07-1.17a.39.39,0,0,1,.31-.2c.45,0,.83,1.43.93,1.68.27.7.44,1.46.69,2.17s.35,1.56,1,1.85c1.68.73,1.57-1.3,1.46-2.35-.07-.69-.33-1.76-.34-2.45,0-.35.12-.68.35-.68s.29.12.5.42a28,28,0,0,1,1.39,2.9,1.84,1.84,0,0,0,1.28,1,.91.91,0,0,0,.41,0c1.06,0,1-1.35.73-2.08s-.6-1.62-.86-2.46c0-.11-.08-.25-.13-.41a3,3,0,0,1-.22-1.93c.37-.66,1.09.39,1.36.62a3.1,3.1,0,0,0,1.86.93,1.05,1.05,0,0,0,1-.9c.18-.8-.38-1.37-.83-2a18,18,0,0,1-1.7-2.7,13.86,13.86,0,0,1-1.82-6c0-1.77,0-3.53,0-5.31,0-1.18,0-2.36-.11-3.55-.2-3.58-.26-7.49-1.69-10.85a16.58,16.58,0,0,0-3.6-5.22c-4.45,1.24-7.23,6.39-7.63,9.46C62.55,389.88,66.21,406.18,66.43,408.45Z" style="fill:#f4ac8d"/></g><path id="_Path_62" data-name="&lt;Path&gt;" d="M74.8,398.31c.49,2.57,1.56,5.51,1.34,7.57s-.71,3.14.73,6.17.89,3.44.23,3.49a.91.91,0,0,0,.41,0c1.06,0,1-1.35.73-2.08s-.6-1.62-.86-2.46c0-.11-.08-.25-.13-.41a3,3,0,0,1-.22-1.93c.37-.66,1.09.39,1.36.62a3.1,3.1,0,0,0,1.86.93,1.05,1.05,0,0,0,1-.9c.18-.8-.38-1.37-.83-2a18,18,0,0,1-1.7-2.7,13.86,13.86,0,0,1-1.82-6c0-1.77,0-3.53,0-5.31-.34.36-8.61-17.68-9.3-17C61.19,383,74.61,397.27,74.8,398.31Z" style="fill:#db825e;opacity:0.5"/><path id="_Path_63" data-name="&lt;Path&gt;" d="M72.46,416.66c1.68.73,1.57-1.3,1.46-2.35-.07-.69-.33-1.76-.34-2.45,0-.35.12-.68.35-.68a.7.7,0,0,0-.85.28c-.33.51.1,2.4.24,3.42S73.23,416.66,72.46,416.66Z" style="fill:#db825e;opacity:0.5"/><path id="_Path_64" data-name="&lt;Path&gt;" d="M67.89,415.13a1.06,1.06,0,0,0,.34.26c1.65.74,1.22-2.37,1.2-3.06,0-.28-.11-.92.07-1.17a.39.39,0,0,1,.31-.2c-.09-.07-.74-.63-.93.42s.21,2.78-.21,3.39S68,415.17,67.89,415.13Z" style="fill:#db825e;opacity:0.5"/></g><g id="_Group_16" data-name="&lt;Group&gt;"><path id="_Path_65" data-name="&lt;Path&gt;" d="M133.54,396.74c.2.09.4.16.59.23l0,0a9,9,0,0,0,3.83.71c5.62-.7,7.13-4.53-.9-12.6s-12.95-9.84-12.95-9.84l-3.63,13.82S128,394.51,133.54,396.74Z" style="fill:#01484c"/><path id="_Path_66" data-name="&lt;Path&gt;" d="M134.17,397a9,9,0,0,0,3.83.71c5.62-.7,7.13-4.53-.9-12.6s-12.95-9.84-12.95-9.84l-3.63,13.82a17.73,17.73,0,0,0,8.33-1.45c3.94-1.87,8.39,1.08,10.42,5C141.22,396.43,136.92,397.94,134.17,397Z" style="fill:#191f34;opacity:0.30000000000000004"/></g><g id="_Group_17" data-name="&lt;Group&gt;"><path id="_Path_67" data-name="&lt;Path&gt;" d="M107.9,415c2.65-4.07,0-19,0-19l-14-3.25a27.08,27.08,0,0,0,.78,7.51A69.72,69.72,0,0,0,97,408.62,31,31,0,0,0,99.33,414C102.35,419.29,105.44,418.73,107.9,415Z" style="fill:#01484c"/><path id="_Path_68" data-name="&lt;Path&gt;" d="M107.9,415c2.65-4.07,0-19,0-19l-14-3.25a27.08,27.08,0,0,0,.78,7.51h0a15.94,15.94,0,0,0,7.82,1.08c4.41-.5,4.72,9,3.46,12.13s-3.75,3.92-6.56.6C102.35,419.29,105.44,418.73,107.9,415Z" style="fill:#191f34;opacity:0.30000000000000004"/></g><path id="_Path_69" data-name="&lt;Path&gt;" d="M84.39,396.64s11,8.12,31.88-4.47c14.08-8.47,14.43-17.65,14-24.48Z" style="fill:#3c8aee"/><g id="_Group_18" data-name="&lt;Group&gt;"><path d="M219.13,308.21c-.36,1.23-2.06,2.08-4.68,3.32a30.52,30.52,0,0,0-6.3,3.78c.81.78,2.75.82,3.87,1.42s2.73,1.92,3,3.36a4.17,4.17,0,0,1,.08.63c0,.66-.31.89-.73.89a4.62,4.62,0,0,1-1.67-.52c-3-1.29-6.84-.46-9.87-.41-.84,0-2.44-.26-4-.24-.45-.34-.88-.71-1.32-1.07-1.9-1.58-3.74-3.26-5.48-5-1-1.07-2-2.17-2.95-3.29,3.66-2.52,4.85-5.62,6.5-7.85,1.31-1.78,3.14-4.8,5.37-7.67,2.73-3.53,4.69-3.77,6-2.26,1.56,1.85-4.59,8.53-3.28,9.42,1.63,1.09,9-8.07,10.89-5a2.66,2.66,0,0,1,.45,1.81h0c-.22,1.94-2.83,3.8-5.55,6.1-1.66,1.39-2.14,2.41-2.14,2.92v0c1,.59,1.89.53,3.6-.35s6.88-3.84,7.92-1.61A2.39,2.39,0,0,1,219.13,308.21Z" style="fill:#191f34;opacity:0.30000000000000004"/><path id="_Path_70" data-name="&lt;Path&gt;" d="M212.55,317.11c-.26-1.44-1.81-2.71-3-3.36s-3.05-.65-3.87-1.41a30.37,30.37,0,0,1,6.31-3.79c2.61-1.24,4.31-2.09,4.67-3.32a2.22,2.22,0,0,0-.22-1.64c-1-2.23-6,.69-7.8,1.61s-3,.94-3.34.36v0c-.28-.52.22-1.54,1.88-2.93,2.72-2.3,5.07-4.16,5.28-6.1h0a2.71,2.71,0,0,0-.45-1.81c-1.89-3-9.26,6.12-10.89,5-1.31-.88,4.84-7.57,3.28-9.41-1.27-1.52-3.22-1.28-5.95,2.25-2.22,2.88-4.06,5.88-5.38,7.67-1.84,2.5-3.13,6.1-8,8.75,0,0-53.83,26.83-60.85,31.42-8.2,5.37-6.92,9.1-6.92,9.1a8.47,8.47,0,0,0,1.69,3.64c3.08,4,1.69,6.82,12.4,1.91,7.42-3.4,61.53-36.72,61.56-36.74,2-1.46,5.85-.58,7.35-.61,3-.06,6.91-.88,9.87.41a4.64,4.64,0,0,0,1.66.52h0C212.44,318.63,212.76,318.26,212.55,317.11Z" style="fill:#f0b89f"/><path id="_Path_71" data-name="&lt;Path&gt;" d="M212.55,317.11c-.26-1.44-1.81-2.71-3-3.36s-3.05-.65-3.87-1.41c0,0-2.41,1.59-2.78,1.73s.87.67,3.39.51a5.8,5.8,0,0,1,5.34,2.51c.76,1.36.25,1.54.25,1.54h0C212.44,318.63,212.76,318.26,212.55,317.11Z" style="fill:#db825e;opacity:0.5"/><path id="_Path_72" data-name="&lt;Path&gt;" d="M216.67,305.23a2.22,2.22,0,0,0-.22-1.64c-1-2.23-6,.69-7.8,1.61s-3,.94-3.34.36c0,.22.32,1.73,1.41,1.61s4.55-2,6.53-2.61S216.46,303.49,216.67,305.23Z" style="fill:#db825e;opacity:0.5"/><path id="_Path_73" data-name="&lt;Path&gt;" d="M212.47,296.5a2.71,2.71,0,0,0-.45-1.81c-1.89-3-9.26,6.12-10.89,5,0,0,.53,2.07,3.21.11S211,293.63,212.47,296.5Z" style="fill:#db825e;opacity:0.5"/><path id="_Path_74" data-name="&lt;Path&gt;" d="M192.06,306.42c3.74-6.54,9.85-17,12.35-16.11-1.27-1.52-3.22-1.28-5.95,2.25-2.22,2.88-4.06,5.88-5.38,7.67-1.84,2.5-3.13,6.1-8,8.75,0,0-53.83,26.83-60.85,31.42-8.2,5.37-6.92,9.1-6.92,9.1a8.47,8.47,0,0,0,1.69,3.64c-.48-1.37.23-3.55,12.55-10.62,14.89-8.54,25.55-13.8,30.24-16.4C167.51,323,188.31,313,192.06,306.42Z" style="fill:#db825e;opacity:0.5"/></g><path id="_Path_75" data-name="&lt;Path&gt;" d="M131.14,356.65c0,1.41,0,2.91-.08,4.53-.17,8.59-2.29,15-10.6,22.13a52.65,52.65,0,0,1-36.07,13.33l-1.25-.29,0,0C67.73,392.45,63.2,380,68.53,375.28c10.34-9.19,22.79-18.13,22.79-18.13,13.23-8.23,18.42-9.78,28.58-14.94a42.9,42.9,0,0,1,4.36-2l1.16-.55a2.12,2.12,0,0,1,.2.12c1.31.08,3.31,3.19,4.61,7v0C131.36,350.11,132,353.89,131.14,356.65Z" style="fill:#811d77"/><path id="_Path_76" data-name="&lt;Path&gt;" d="M83.14,396.35l0,0h0Z" style="fill:#811d77"/><path id="_Path_77" data-name="&lt;Path&gt;" d="M130.23,346.81v0s-5.45-4.26-9.21.07-5,5.1-7.45,17.9-11.43,17.27-22.87,18.32S76,378.83,73,385.29c-2.94,6.29,9.47,10.8,10.14,11C67.73,392.45,63.2,380,68.53,375.28c10.34-9.19,22.79-18.13,22.79-18.13,13.23-8.23,18.42-9.78,28.58-14.94a42.9,42.9,0,0,1,4.36-2l1.16-.55a2.12,2.12,0,0,1,.2.12C126.93,339.9,128.93,343,130.23,346.81Z" style="fill:#750872"/><g id="_Group_19" data-name="&lt;Group&gt;"><path id="_Path_78" data-name="&lt;Path&gt;" d="M107.79,366.63s2.35,8.17-7.52,12.33-14.67-2.42-14.67-2.42,15.26-9.17,22.19-9.91" style="fill:#f0b89f"/><path id="_Path_79" data-name="&lt;Path&gt;" d="M107.79,366.63s2.35,8.17-7.52,12.33-14.67-2.42-14.67-2.42,15.26-9.17,22.19-9.91" style="fill:#db825e;opacity:0.8"/></g><g id="face-2" data-name="face"><g id="_Group_20" data-name="&lt;Group&gt;"><path id="ear-4" data-name="ear" d="M103.18,339.9a7.74,7.74,0,1,1,10.4,3.41A7.74,7.74,0,0,1,103.18,339.9Z" style="fill:#f0b89f"/><path id="ear-5" data-name="ear" d="M103.18,339.9a7.74,7.74,0,1,1,10.4,3.41A7.74,7.74,0,0,1,103.18,339.9Z" style="fill:#db825e;opacity:0.30000000000000004"/><path id="_Path_80" data-name="&lt;Path&gt;" d="M110,331.61c-2.16-.35-3.52,1.86-3.35,3.77,0,.47,1.08.74,1.14.18.12-1.13.17-1.47,1.23-1.87q1.23-.93,1,.72c-.14.29-.29.58-.44.86a.79.79,0,0,0,.76,1.22c1.29-.14,2.66,1.16,1.59,2.36s-2.11.87-3.29.35c-.24-.11-.58,0-.39.33,1.11,1.83,3.48,1.35,4.84.06,1.81-1.71.41-4-1.52-4.63C112.09,333.52,112,331.94,110,331.61Z" style="fill:#db825e;opacity:0.5"/></g><path id="head-2" data-name="head" d="M109.42,335c-7.12-14.46-23.24-20.83-37.7-13.71a29.19,29.19,0,0,0-13.27,39.07c7.13,14.46,29.45,20,40.28,14.71,6.32-2.6,11.87-10.52,13.44-19.36C113.21,349.79,112.27,340.76,109.42,335Z" style="fill:#f0b89f"/><g id="_Group_21" data-name="&lt;Group&gt;"><path id="ear-6" data-name="ear" d="M67.44,363.62a7.74,7.74,0,1,0-1.07,10.9A7.75,7.75,0,0,0,67.44,363.62Z" style="fill:#f0b89f"/><path id="_Path_81" data-name="&lt;Path&gt;" d="M57.09,366.56c.55-2.12,3.12-2.47,4.8-1.55.42.23.24,1.29-.29,1.12-1.1-.34-1.42-.43-2.21.37-.9.5-.82.91.25,1.23l1-.06a.79.79,0,0,1,.81,1.19c-.65,1.12,0,2.9,1.52,2.4,1.36-.44,1.64-1.57,1.64-2.87,0-.26.27-.51.47-.22,1.22,1.75-.17,3.73-1.9,4.46-2.29,1-3.79-1.23-3.63-3.26C58,369.21,56.6,368.48,57.09,366.56Z" style="fill:#db825e;opacity:0.5"/></g><path id="nose-2" data-name="nose" d="M99.82,350.57l-8.1,6.8s6.29-.69,7.51-2.7A5.49,5.49,0,0,0,99.82,350.57Z" style="fill:#db825e"/><g id="mouth-2" data-name="mouth"><path id="_Path_82" data-name="&lt;Path&gt;" d="M99.15,362a3.2,3.2,0,0,1-1.56,4.18,8,8,0,0,1-9-1A19.6,19.6,0,0,0,99.15,362Z" style="fill:#ec5e76"/><path id="_Path_83" data-name="&lt;Path&gt;" d="M88.84,365.11a54.67,54.67,0,0,0,7.08-2.68c2.32-1.07,4.33-2.67,6.6-3.81.38-.19.42.56.27.74-2.79,3.34-9.57,6.74-14,6.12C88.36,365.43,88.49,365.22,88.84,365.11Z" style="fill:#ca1535"/></g><path id="_Path_84" data-name="&lt;Path&gt;" d="M71.51,353.44a4,4,0,0,0,2.9-.05,6.6,6.6,0,0,1,3.89-5.34c5.54-2.6,8.67,1.62,8.67,1.62a14.1,14.1,0,0,0-7.17,1.73,11.7,11.7,0,0,0-5.18,5.76,9.21,9.21,0,0,1-.27-1.73A2.88,2.88,0,0,1,71.51,353.44Z" style="fill:#191f34"/><path id="_Path_85" data-name="&lt;Path&gt;" d="M107.18,334.81a3.68,3.68,0,0,1-1.48,2.25,6.17,6.17,0,0,0-6.14.4c-4.8,3.07-3,7.63-3,7.63a13.13,13.13,0,0,1,4.93-4.78,10.94,10.94,0,0,1,7.12-1.2,9.08,9.08,0,0,0-1.23-1.08A2.68,2.68,0,0,0,107.18,334.81Z" style="fill:#191f34"/><path id="_Path_86" data-name="&lt;Path&gt;" d="M84.89,357.1c1.76,1.76,1.35,5-.91,7.25s-5.52,2.62-7.28.85-1.35-5,.9-7.25S83.13,355.33,84.89,357.1Z" style="fill:#ec5e76;opacity:0.4"/><path id="_Path_87" data-name="&lt;Path&gt;" d="M102,344.91c.21-2.49,2.94-4.28,6.11-4s5.57,2.5,5.37,5-2.93,4.28-6.1,4S101.83,347.4,102,344.91Z" style="fill:#ec5e76;opacity:0.4"/></g><path id="_Path_88" data-name="&lt;Path&gt;" d="M106.59,329.49c-6.36,1.38-20.59.51-32.39-5.94.09,1.3.14,2.53.18,3.71.53,14.67-2,21.53-10.47,31.89,0,0,4.11,2.61,4.69,6.63,0,0-3.88-6-12-2.9-12.08-14-9.09-37.08,11.22-46.56l.1-.05C83.31,299.38,106,313.78,106.59,329.49Z" style="fill:#f4dd69"/><path id="_Path_89" data-name="&lt;Path&gt;" d="M68.6,365.78s-3.88-6-12-2.9c-12.08-14-9.09-37.08,11.22-46.56-1.22.76-14.35,9.14-13.53,23.53C55.14,355,60,354.2,65.9,350.53c5.69-3.54,8.32-22.11,8.48-23.27.53,14.67-2,21.53-10.47,31.89C63.91,359.15,68,361.76,68.6,365.78Z" style="fill:#efc150"/><path id="_Path_90" data-name="&lt;Path&gt;" d="M97.12,328.23a39.91,39.91,0,0,0,7.78-.08,19.4,19.4,0,0,0-8-13.34c-7.45-5.35-15.09-4.93-18.61-3.85,0,0,10.68-.14,16.34,4.52a24.23,24.23,0,0,1,7.43,11Z" style="fill:#fceba2"/><path id="_Path_91" data-name="&lt;Path&gt;" d="M75.72,336.79c-.76-2.37-4.92.34-5.77.95a11.6,11.6,0,0,0-3.63,4.09c-1.39,2.83-.73,6.25.38,9.07.11.28.39.14.32-.14-.85-3.51,1-6.61,3.54-8.92,1.45-1.3,4.78-2.34,5.39-4.27C76.05,337.26,75.8,337.05,75.72,336.79Z" style="fill:#edaa51"/><path id="_Path_92" data-name="&lt;Path&gt;" d="M90,329.45c-1.58-1.93,3-3.94,3.94-4.32a11.48,11.48,0,0,1,5.4-.81c3.13.37,5.64,2.78,7.4,5.25.18.25-.1.41-.29.2-2.48-2.62-6.07-2.79-9.41-1.89-1.87.5-4.56,2.72-6.52,2.19C90.17,330,90.13,329.67,90,329.45Z" style="fill:#edaa51"/></g><g id="_Group_22" data-name="&lt;Group&gt;"><g id="_Group_23" data-name="&lt;Group&gt;"><path id="_Path_93" data-name="&lt;Path&gt;" d="M59.4,220.37c-.38.34-1.09.28-1.95-.39s-1.73-2.46-2.77-2.63c-1.14.76,2.23,4.05,2.41,5.63a1.2,1.2,0,0,1-.79,1.18h0a1.08,1.08,0,0,1-.5.09,2.7,2.7,0,0,1-1.47-1c-.91-.93-2.69-4.68-3.43-3.71-.12,1,1.49,3.61,1.18,4.52a1.07,1.07,0,0,1-1.93.46h0l-.18-.19c-1.09-1.23-1.54-2.87-2.24-4.11a7.57,7.57,0,0,0-.88-1.49c-.29-.28-.61-.25-.92.61s-.36,2-.95,2.53c-.84.76-1.47-.21-1.72-1a0,0,0,0,1,0,0,1.4,1.4,0,0,1-.06-.24,10.72,10.72,0,0,1,.13-4,12.64,12.64,0,0,0-.4-6.79c-1.12-2.72-2.33-5.42-3.34-8.2-2.4-6.66-3.95-14-.61-18.65,5.24-3.32,9,2.54,11.39,9.2h0c.65,1.78,1.21,3.61,1.69,5.34a75.37,75.37,0,0,1,1.43,7.72A29.25,29.25,0,0,0,56.56,214c1.23,2.11,2.25,3.14,2.87,4.51C59.8,219.39,59.75,220.06,59.4,220.37Z" style="fill:#f4ac8d"/><path id="_Path_94" data-name="&lt;Path&gt;" d="M59.4,220.37c.42-.8-2.71-4.52-4.46-4.9s-2.91.77-5.18.9-2.07.13.26-1.6.46-4.74-.32-6.89-5.06-14.43-5.06-14.43,3.91-.89,5.69-1.22c.65,1.78,1.21,3.61,1.69,5.34a75.37,75.37,0,0,1,1.43,7.72A29.25,29.25,0,0,0,56.56,214c1.23,2.11,2.25,3.14,2.87,4.51C59.8,219.39,59.75,220.06,59.4,220.37Z" style="fill:#db825e;opacity:0.30000000000000004"/><path id="_Path_95" data-name="&lt;Path&gt;" d="M57.09,223a1.2,1.2,0,0,1-.79,1.18,1.64,1.64,0,0,0,.13-1c-.26-.77-2.33-3.4-2.76-4.4s1-1.37,1-1.37C53.54,218.11,56.91,221.4,57.09,223Z" style="fill:#db825e;opacity:0.30000000000000004"/><path id="_Path_96" data-name="&lt;Path&gt;" d="M52.07,224.09a1.07,1.07,0,0,1-1.93.46c.8.53,1.15,0,1.2-.39A31.75,31.75,0,0,0,50.22,221a1.11,1.11,0,0,1,.67-1.44C50.77,220.59,52.38,223.18,52.07,224.09Z" style="fill:#db825e;opacity:0.30000000000000004"/><path id="_Path_97" data-name="&lt;Path&gt;" d="M46.82,218.75c-.29-.28-.61-.25-.92.61s-.36,2-.95,2.53c-.84.76-1.47-.21-1.72-1,.58,1.17,1.11.78,1.41-.17s.22-3.15.91-3.4S46.82,218.75,46.82,218.75Z" style="fill:#db825e;opacity:0.30000000000000004"/></g><path id="_Path_98" data-name="&lt;Path&gt;" d="M39.53,163.68s-4.51-8.59-2.62-16.36,15.41-6.39,15.41-6.39L48,157.86Z" style="fill:#a6432d"/><g id="_Group_24" data-name="&lt;Group&gt;"><path id="_Path_99" data-name="&lt;Path&gt;" d="M98.55,213.37h0c.25.43,7.91,13.05,12.52,14.34,5.45,1.53,8.32-1.43,4-12S107,201.67,107,201.67Z" style="fill:#01484c"/><path id="_Path_100" data-name="&lt;Path&gt;" d="M98.55,213.37h0a25.34,25.34,0,0,0,10.51,1.39c5.37-.61,8.16,13.57,2,12.95,5.45,1.53,8.32-1.43,4-12S107,201.67,107,201.67Z" style="fill:#191f34;opacity:0.30000000000000004"/></g><g id="_Group_25" data-name="&lt;Group&gt;"><path id="_Path_101" data-name="&lt;Path&gt;" d="M76.12,227.66c.78,5.91,3.83,6.54,7.51,4,4-2.73,7.33-17.58,7.33-17.58L79.27,205.7a20.7,20.7,0,0,0-1.56,4.46A61.93,61.93,0,0,0,76,221.63,31.21,31.21,0,0,0,76.12,227.66Z" style="fill:#01484c"/><path id="_Path_102" data-name="&lt;Path&gt;" d="M76.12,227.66c.78,5.91,3.83,6.54,7.51,4,4-2.73,7.33-17.58,7.33-17.58L79.27,205.7a20.7,20.7,0,0,0-1.56,4.46l-.17,2.77s4.6,2.56,7.19,4.22-.35,10.9-2.77,12.93C79.7,232,77.14,231,76.12,227.66Z" style="fill:#191f34;opacity:0.30000000000000004"/></g><path id="_Path_103" data-name="&lt;Path&gt;" d="M66.08,208.6s15.89,8.58,32,5.51,18.64-11.06,15-13.8Z" style="fill:#94dadd"/><g id="_Group_26" data-name="&lt;Group&gt;"><path d="M195.16,235c-.19,2,11.52,4.22,9.71,7.36a2.75,2.75,0,0,1-1.41,1.26h0c-1.83.74-4.62-.48-8-1.82-2-.82-3.19-.78-3.52-.29,0,0,0,0,0,0-.37.56.31,1.7,1.92,2.81s6.66,4.21,5.17,6.21a2.16,2.16,0,0,1-1.37,1c-1.27.26-2.84-.85-5.2-2.6a31.18,31.18,0,0,0-6.4-3.83c-.3,1.09.59,2.84.57,4.13s-.38,3.37-1.55,4.29c-.92.73-1.65.62-1.65.14h0c0-.4-.31-1.11-.35-1.74-.26-3.26-2.86-6.34-4.36-9-.74-1.33-1.8-5.19-4.06-6.29l-1.53-.86a76.7,76.7,0,0,1,4.77-11.61l1.35,1c4.67,3.06,8.5,2.48,11.63,2.94,2.22.33,5.79.53,9.43,1.15,4.46.76,5.61,2.38,4.86,4.25C204.25,235.69,195.33,233.38,195.16,235Z" style="fill:#191f34;opacity:0.30000000000000004"/><path id="_Path_104" data-name="&lt;Path&gt;" d="M185.05,250.74c1.17-.92,1.57-2.92,1.58-4.29s-.88-3-.58-4.13a31.18,31.18,0,0,1,6.4,3.83c2.36,1.75,3.94,2.86,5.2,2.6a2.24,2.24,0,0,0,1.37-1c1.49-2-3.49-5-5.17-6.22s-2.29-2.25-1.92-2.81l0,0c.33-.49,1.48-.53,3.52.29,3.36,1.34,6.15,2.56,8,1.82h0a2.75,2.75,0,0,0,1.41-1.26c1.82-3.14-9.9-5.37-9.7-7.35.16-1.6,9.08.72,10-1.56.75-1.86-.4-3.49-4.86-4.25-3.64-.62-7.21-.82-9.43-1.15-3.12-.46-7,.11-11.63-2.94,0,0-49.73-35.37-57.19-39.46-8.72-4.77-11.45-1.85-11.45-1.85a8.65,8.65,0,0,0-2.45,3.25c-2.1,4.66-1.06,12.07,9.53,17.62,7.45,4.07,56.93,31.93,57,31.95,2.26,1.1,3.31,5,4,6.29,1.5,2.68,4.09,5.76,4.35,9a4.59,4.59,0,0,0,.33,1.73h0C183.64,251.36,184.12,251.48,185.05,250.74Z" style="fill:#f4ac8d"/><path id="_Path_105" data-name="&lt;Path&gt;" d="M185.05,250.74c1.17-.92,1.57-2.92,1.58-4.29s-.88-3-.58-4.13c0,0-2.58-1.4-2.88-1.67s-.18,1.11,1.16,3.28a5.86,5.86,0,0,1,.3,6c-.85,1.33-1.25,1-1.25,1h0C183.64,251.36,184.12,251.48,185.05,250.74Z" style="fill:#db825e;opacity:0.5"/><path id="_Path_106" data-name="&lt;Path&gt;" d="M197.65,248.75a2.24,2.24,0,0,0,1.37-1c1.49-2-3.49-5-5.17-6.22s-2.29-2.25-1.92-2.81c-.17.14-1.39,1.11-.76,2s3.94,3.13,5.45,4.6S199.11,247.73,197.65,248.75Z" style="fill:#db825e;opacity:0.5"/><path id="_Path_107" data-name="&lt;Path&gt;" d="M203.46,240.82a2.75,2.75,0,0,0,1.41-1.26c1.82-3.14-9.9-5.37-9.7-7.35,0,0-1.6,1.46,1.43,2.93S205.31,238.1,203.46,240.82Z" style="fill:#db825e;opacity:0.5"/><path id="_Path_108" data-name="&lt;Path&gt;" d="M184.83,227.29c7.65.23,19.89.72,20.33,3.36.75-1.86-.4-3.49-4.86-4.25-3.64-.62-7.21-.82-9.43-1.15-3.12-.46-7,.11-11.63-2.94,0,0-49.73-35.37-57.19-39.46-8.72-4.77-11.45-1.85-11.45-1.85a8.65,8.65,0,0,0-2.45,3.25c1-1.09,2.77-1.87,15,5.77,14.76,9.26,28,18.25,33.19,21.52C165,217,177.19,227.06,184.83,227.29Z" style="fill:#db825e;opacity:0.5"/></g><g id="_Group_27" data-name="&lt;Group&gt;"><path id="_Path_109" data-name="&lt;Path&gt;" d="M136.53,190.23s-1.75,7.66-4.12,14.51h0v0c-.6,1.74-1.25,3.44-1.91,4.93a156,156,0,0,1-15.92-8.31c-.92.66-1.91,1.33-3,2-9.9,6.2-35.45,13.48-54.28,2.27a32.81,32.81,0,0,1-4.08-3.31l.38,1.74c-5.22.37-10.34-.25-15.2-3.29-2.63-4.75-2.6-13-2.1-14.42a.37.37,0,0,1,0-.09c.09-.2.14-.34.14-.34a10.62,10.62,0,0,1,3.67-4.43A28.08,28.08,0,0,1,51,177c.34-.08.69-.16,1-.22,13.59-2.6,23.41-3.41,23.41-3.41l2.89,0c10.69,0,21.64.75,29.87,3.48C122.76,181,136.53,190.23,136.53,190.23Z" style="fill:#00a99d"/><g id="_Group_28" data-name="&lt;Group&gt;"><path id="_Path_110" data-name="&lt;Path&gt;" d="M136.53,190.23s-1.75,7.66-4.12,14.51h0v0c-.4-8-10.53-17.68-19-20.42-8.81-2.82-14.51-.26-16.58,0s-5.36,7-9.87,9.65-4,3.78-20.35,4.22-22.22-12.09-22.22-12.09c-4.14.46-5.78,3.39-6.34,6.11s.35,8.58.35,8.58c-2.63-4.75-2.6-13-2.1-14.42a.37.37,0,0,1,0-.09c.09-.2.14-.34.14-.34a10.62,10.62,0,0,1,3.67-4.43A23,23,0,0,1,43,179.79,37,37,0,0,1,51,177c.34-.08.69-.16,1-.22,13.59-2.6,23.41-3.41,23.41-3.41l2.89,0c10.69,0,21.64.75,29.87,3.48C122.76,181,136.53,190.23,136.53,190.23Z" style="fill:#191f34;opacity:0.30000000000000004"/></g></g><g id="_Group_29" data-name="&lt;Group&gt;"><path id="_Path_111" data-name="&lt;Path&gt;" d="M88.24,187.19s2.29,7.07-7.35,11.74-14.29-.69-14.29-.69,14.76-10,21.64-11.05" style="fill:#f4ac8d"/><path id="_Path_112" data-name="&lt;Path&gt;" d="M88.24,187.19s2.29,7.07-7.35,11.74-14.29-.69-14.29-.69,14.76-10,21.64-11.05" style="fill:#db825e;opacity:0.8"/></g><g id="face-3" data-name="face"><g id="_Group_30" data-name="&lt;Group&gt;"><path id="ear-7" data-name="ear" d="M48,170.68a7.74,7.74,0,1,0-7,8.42A7.74,7.74,0,0,0,48,170.68Z" style="fill:#f4ac8d"/><path id="ear-8" data-name="ear" d="M48,170.68a7.74,7.74,0,1,0-7,8.42A7.74,7.74,0,0,0,48,170.68Z" style="fill:#db825e;opacity:0.30000000000000004"/><path id="_Path_113" data-name="&lt;Path&gt;" d="M37.73,167.31c1.65-1.46,4-.3,4.84,1.4.22.43-.52,1.2-.86.77-.72-.9-.93-1.15-2-.93-1-.09-1.19.29-.48,1.15.27.17.55.34.83.49a.8.8,0,0,1,0,1.44c-1.17.56-1.64,2.4-.09,2.84,1.37.4,2.24-.38,3-1.45.15-.22.51-.28.51.08,0,2.13-2.23,3-4.07,2.62-2.44-.49-2.45-3.14-1.18-4.73C37,170,36.25,168.62,37.73,167.31Z" style="fill:#db825e;opacity:0.5"/><path id="head-3" data-name="head" d="M40,169.83c-1.65-16,8.62-30,24.65-31.65a29.18,29.18,0,0,1,32,26c1.65,16-14.29,32.63-26.3,33.86-6.73,1.16-15.65-2.59-21.67-9.25C44.71,184.39,40.7,176.25,40,169.83Z" style="fill:#f4ac8d"/></g><g id="_Group_31" data-name="&lt;Group&gt;"><path id="ear-9" data-name="ear" d="M90.83,171.77a7.74,7.74,0,1,1,6.7,8.67A7.74,7.74,0,0,1,90.83,171.77Z" style="fill:#f4ac8d"/><path id="_Path_114" data-name="&lt;Path&gt;" d="M101.16,168.76c-1.59-1.51-4-.43-4.89,1.24-.23.42.48,1.22.84.79.74-.87,1-1.12,2.07-.86,1-.05,1.17.34.44,1.18l-.85.46a.79.79,0,0,0,0,1.43c1.15.61,1.55,2.45,0,2.85-1.38.34-2.23-.46-2.91-1.56-.15-.23-.5-.3-.52.06-.1,2.13,2.13,3.07,4,2.76,2.45-.4,2.56-3.05,1.34-4.68C101.79,171.49,102.6,170.13,101.16,168.76Z" style="fill:#db825e;opacity:0.5"/></g><path id="nose-3" data-name="nose" d="M56.47,177.93l10.47,1.45s-5.69,2.76-7.79,1.71A5.49,5.49,0,0,1,56.47,177.93Z" style="fill:#db825e"/><g id="mouth-3" data-name="mouth"><path id="_Path_115" data-name="&lt;Path&gt;" d="M63.13,187.29A3.19,3.19,0,0,0,66.67,190a8,8,0,0,0,7.12-5.62A19.57,19.57,0,0,1,63.13,187.29Z" style="fill:#ca1535"/><path id="_Path_116" data-name="&lt;Path&gt;" d="M73.49,184.41a55.57,55.57,0,0,1-7.41,1.5c-2.54.33-5.09,0-7.63.28-.42,0-.06.69.17.76,4.14,1.35,11.69.63,15.15-2.27C74.07,184.43,73.85,184.32,73.49,184.41Z" style="fill:#db825e"/></g><path id="_Path_117" data-name="&lt;Path&gt;" d="M79.49,166.81a6.61,6.61,0,0,0-6.13-2.45c-6.08.74-6.49,6-6.49,6a14,14,0,0,1,7-2.35,11.74,11.74,0,0,1,7.46,2.13,10,10,0,0,0-.69-1.61A14.81,14.81,0,0,0,79.49,166.81Z" style="fill:#191f34"/><path id="_Path_118" data-name="&lt;Path&gt;" d="M44.3,169.62a6.15,6.15,0,0,1,5.41-2.93c5.71,0,6.64,4.84,6.64,4.84a13.14,13.14,0,0,0-6.71-1.43A10.92,10.92,0,0,0,43,172.87a9.14,9.14,0,0,1,.47-1.56C43.68,170.71,44.3,169.62,44.3,169.62Z" style="fill:#191f34"/><path id="_Path_119" data-name="&lt;Path&gt;" d="M72.58,175.52c-.55,2.43,1.52,5,4.62,5.66s6.07-.71,6.62-3.14-1.51-5-4.61-5.67S73.14,173.09,72.58,175.52Z" style="fill:#ec5e76;opacity:0.2"/><path id="_Path_120" data-name="&lt;Path&gt;" d="M51.58,176.39c-1.49-2-4.76-2.07-7.3-.16s-3.4,5.08-1.91,7.08,4.77,2.07,7.31.16S53.07,178.39,51.58,176.39Z" style="fill:#ec5e76;opacity:0.2"/></g><path id="_Path_121" data-name="&lt;Path&gt;" d="M96.78,165.22s-5,1.08-5.81,7.64H86.28s1.24-7.82.72-10.72c0,0-5.28-2.38-9.46-14.3l0,0a31,31,0,0,1-19.26,7.06c-11.49,0-26.72-11.16-25-19.69s32.78-12.25,49-4.83a26.36,26.36,0,0,1,2.72,1.29l0,0C102.64,141.34,96.78,165.22,96.78,165.22Z" style="fill:#c96344"/><path id="_Path_122" data-name="&lt;Path&gt;" d="M96.78,165.22s-5,1.08-5.81,7.64H86.28s1.24-7.82.72-10.72c0,0-5.28-2.38-9.46-14.3,0,0,6.46,9.49,12.79,10.19s3-21.87-5.25-26.32C102.64,141.34,96.78,165.22,96.78,165.22Z" style="fill:#a6432d"/><path id="_Path_123" data-name="&lt;Path&gt;" d="M58.26,127.54s-16.87,1-21.35,5.45,2.28,12.43,6.32,15.2c0,0-8-8.81-4.24-13.47S58.26,127.54,58.26,127.54Z" style="fill:#db825e"/><path id="_Path_124" data-name="&lt;Path&gt;" d="M49.76,155.41c-5-.06-8.62,5.17-7.56,9.94,0,.1.13,0,.14,0a11.2,11.2,0,0,1,8.09-7.4C52.09,157.54,51.1,155.43,49.76,155.41Z" style="fill:#c96344"/><path id="_Path_125" data-name="&lt;Path&gt;" d="M71.1,154.91c4.77-1.59,9.77,2.31,10.21,7.17,0,.11-.11,0-.15,0a11.18,11.18,0,0,0-10-4.6C69.52,157.64,69.82,155.33,71.1,154.91Z" style="fill:#c96344"/></g><g id="_Group_32" data-name="&lt;Group&gt;"><path d="M323.86,242.52c-.82,1.45-1.36,3.07-1.78,3.85-1.5,2.68-4.25,5.76-4.51,9,0,.63.54,1.33-.49,1.74h0c0,.47-.59.6-1.52-.15-1.16-.91-1.48-2.91-1.5-4.28s.92-3,.62-4.13a30.11,30.11,0,0,0-6.37,3.83c-2.37,1.75-3.93,2.86-5.19,2.59a2.12,2.12,0,0,1-1.36-1c-1.5-2,3.48-5,5.17-6.22s2.28-2.26,1.91-2.82h0c-.33-.48-1.45-.54-3.49.28-3.36,1.35-5.88,2.56-7.95,1.83h0c-1-.22-1.07-.63-1.45-1.27-1.81-3.14,9.88-5.37,9.68-7.34-.16-1.6-9.08.71-10-1.56-.75-1.86.4-3.5,4.85-4.26,3.64-.61,7.2-.82,9.43-1.15,2.71-.39,6,0,9.88-1.92A76.24,76.24,0,0,1,323.86,242.52Z" style="fill:#191f34;opacity:0.30000000000000004"/><g id="_Group_33" data-name="&lt;Group&gt;"><path id="_Path_126" data-name="&lt;Path&gt;" d="M440.46,224c.37.35,1.08.28,1.94-.38s1.73-2.46,2.77-2.63c1.14.76-2.23,4.05-2.4,5.63a1.19,1.19,0,0,0,.78,1.18h0a1.11,1.11,0,0,0,.5.09,2.7,2.7,0,0,0,1.47-1c.91-.94,2.7-4.69,3.43-3.71.13,1-1.49,3.6-1.18,4.51a1.07,1.07,0,0,0,1.93.47h0l.19-.2c1.08-1.22,1.53-2.87,2.23-4.1a7.57,7.57,0,0,1,.88-1.49c.29-.28.61-.25.93.61s.35,2,.94,2.53c.84.75,1.47-.21,1.72-1a0,0,0,0,0,0,0,1.05,1.05,0,0,0,.06-.24,10.88,10.88,0,0,0-.12-4,12.53,12.53,0,0,1,.39-6.79c1.12-2.73,2.33-5.42,3.35-8.21,2.39-6.66,3.94-14,.6-18.65-5.23-3.31-9,2.54-11.39,9.2v0c-.65,1.78-1.21,3.61-1.69,5.34A74.4,74.4,0,0,0,446.4,209a29.1,29.1,0,0,1-3.11,8.74c-1.23,2.12-2.24,3.14-2.87,4.52C440.05,223.07,440.1,223.73,440.46,224Z" style="fill:#f4ac8d"/><path id="_Path_127" data-name="&lt;Path&gt;" d="M440.46,224c-.43-.79,2.7-4.51,4.45-4.9s2.91.78,5.18.91,2.07.13-.26-1.6-.45-4.75.32-6.89,5.06-14.43,5.06-14.43-3.91-.89-5.69-1.22c-.65,1.78-1.21,3.61-1.69,5.34A74.4,74.4,0,0,0,446.4,209a29.1,29.1,0,0,1-3.11,8.74c-1.23,2.12-2.24,3.14-2.87,4.52C440.05,223.07,440.1,223.73,440.46,224Z" style="fill:#db825e;opacity:0.30000000000000004"/><path id="_Path_128" data-name="&lt;Path&gt;" d="M442.77,226.66a1.19,1.19,0,0,0,.78,1.18,1.72,1.72,0,0,1-.13-1c.26-.78,2.33-3.41,2.76-4.4s-1-1.37-1-1.37C446.31,221.79,442.94,225.08,442.77,226.66Z" style="fill:#db825e;opacity:0.30000000000000004"/><path id="_Path_129" data-name="&lt;Path&gt;" d="M447.78,227.76a1.07,1.07,0,0,0,1.93.47c-.8.53-1.15,0-1.19-.39a26,26,0,0,1,1.12-3.15,1.12,1.12,0,0,0-.68-1.44C449.09,224.26,447.47,226.85,447.78,227.76Z" style="fill:#db825e;opacity:0.30000000000000004"/><path id="_Path_130" data-name="&lt;Path&gt;" d="M453,222.43c.29-.28.61-.25.93.61s.35,2,.94,2.53c.84.75,1.47-.21,1.72-1-.58,1.17-1.11.79-1.41-.16s-.22-3.15-.91-3.4S453,222.43,453,222.43Z" style="fill:#db825e;opacity:0.30000000000000004"/></g><path id="_Path_131" data-name="&lt;Path&gt;" d="M460,168.69s4.85-9.92,3-17.69-15.4-6.39-15.4-6.39l4.33,16.92Z" style="fill:#7c1905"/><g id="_Group_34" data-name="&lt;Group&gt;"><path id="_Path_132" data-name="&lt;Path&gt;" d="M401.3,217.05h0c-.24.43-7.91,13.05-12.52,14.34-5.45,1.52-8.32-1.43-4-12s8.13-14.08,8.13-14.08Z" style="fill:#01484c"/><path id="_Path_133" data-name="&lt;Path&gt;" d="M401.3,217.05h0a25.52,25.52,0,0,1-10.51,1.39c-5.37-.61-8.16,13.56-2,13-5.45,1.52-8.32-1.43-4-12s8.13-14.08,8.13-14.08Z" style="fill:#191f34;opacity:0.30000000000000004"/></g><g id="_Group_35" data-name="&lt;Group&gt;"><path id="_Path_134" data-name="&lt;Path&gt;" d="M423.74,231.34c-.79,5.9-3.84,6.54-7.52,4-4-2.74-7.33-17.58-7.33-17.58l11.7-8.43a21.45,21.45,0,0,1,1.55,4.47,61.93,61.93,0,0,1,1.7,11.47A32.19,32.19,0,0,1,423.74,231.34Z" style="fill:#01484c"/><path id="_Path_135" data-name="&lt;Path&gt;" d="M423.74,231.34c-.79,5.9-3.84,6.54-7.52,4-4-2.74-7.33-17.58-7.33-17.58l11.7-8.43a21.45,21.45,0,0,1,1.55,4.47l.18,2.77s-4.6,2.55-7.19,4.21.34,10.9,2.76,12.93C420.15,235.65,422.71,234.72,423.74,231.34Z" style="fill:#191f34;opacity:0.30000000000000004"/></g><path id="_Path_136" data-name="&lt;Path&gt;" d="M433.77,212.28s-15.88,8.58-32,5.51-18.63-11.06-15-13.81Z" style="fill:#94dadd"/><g id="_Group_36" data-name="&lt;Group&gt;"><path id="_Path_137" data-name="&lt;Path&gt;" d="M314.8,254.41c-1.17-.92-1.56-2.91-1.58-4.28s.88-3,.58-4.14a31,31,0,0,0-6.4,3.84c-2.36,1.75-3.93,2.86-5.2,2.6a2.28,2.28,0,0,1-1.37-1c-1.49-2,3.49-5,5.17-6.22s2.29-2.25,1.92-2.82h0c-.33-.49-1.48-.53-3.52.29-3.36,1.34-6.15,2.55-8,1.82h0a2.73,2.73,0,0,1-1.41-1.27c-1.81-3.14,9.9-5.37,9.71-7.35-.17-1.59-9.09.72-10-1.55-.76-1.86.39-3.5,4.85-4.25,3.64-.62,7.21-.83,9.43-1.15,3.12-.46,7,.11,11.64-2.94,0,0,49.72-35.37,57.19-39.47,8.71-4.77,11.44-1.84,11.44-1.84a8.57,8.57,0,0,1,2.45,3.25c2.1,4.66,1.06,12.07-9.53,17.62-7.44,4.07-56.93,31.93-57,31.95-2.26,1.1-3.31,5-4.05,6.28-1.5,2.69-4.09,5.76-4.35,9a4.61,4.61,0,0,1-.33,1.74h0C316.21,255,315.73,255.16,314.8,254.41Z" style="fill:#f4ac8d"/><path id="_Path_138" data-name="&lt;Path&gt;" d="M314.8,254.41c-1.17-.92-1.56-2.91-1.58-4.28s.88-3,.58-4.14c0,0,2.58-1.39,2.88-1.66s.18,1.1-1.16,3.28a5.86,5.86,0,0,0-.3,6c.85,1.32,1.25,1,1.25,1h0C316.21,255,315.73,255.16,314.8,254.41Z" style="fill:#db825e;opacity:0.5"/><path id="_Path_139" data-name="&lt;Path&gt;" d="M302.2,252.43a2.28,2.28,0,0,1-1.37-1c-1.49-2,3.49-5,5.17-6.22s2.29-2.25,1.92-2.82c.17.14,1.39,1.11.77,2s-3.95,3.13-5.46,4.6S300.74,251.4,302.2,252.43Z" style="fill:#db825e;opacity:0.5"/><path id="_Path_140" data-name="&lt;Path&gt;" d="M296.39,244.5a2.73,2.73,0,0,1-1.41-1.27c-1.81-3.14,9.9-5.37,9.71-7.35,0,0,1.6,1.47-1.43,2.93S294.54,241.77,296.39,244.5Z" style="fill:#db825e;opacity:0.5"/><path id="_Path_141" data-name="&lt;Path&gt;" d="M315,231c-7.65.23-19.89.71-20.32,3.36-.76-1.86.39-3.5,4.85-4.25,3.64-.62,7.21-.83,9.43-1.15,3.12-.46,7,.11,11.64-2.94,0,0,49.72-35.37,57.19-39.47,8.71-4.77,11.44-1.84,11.44-1.84a8.57,8.57,0,0,1,2.45,3.25c-1-1.09-3.28-1.43-15.49,6.22C361.45,203.4,353,209.06,347,212.67,342.28,215.45,322.67,230.74,315,231Z" style="fill:#db825e;opacity:0.5"/></g><g id="_Group_37" data-name="&lt;Group&gt;"><path id="_Path_142" data-name="&lt;Path&gt;" d="M363.32,193.91s1.75,7.65,4.12,14.51h0s0,0,0,0c.61,1.74,1.25,3.44,1.91,4.93a153.32,153.32,0,0,0,15.93-8.31c.91.67,1.9,1.34,3,2,9.9,6.21,35.45,13.48,54.28,2.27a31.37,31.37,0,0,0,4.08-3.3l-.38,1.74c5.22.36,10.34-.25,15.21-3.3,2.62-4.74,2.59-13,2.09-14.42a.31.31,0,0,0,0-.08c-.08-.21-.14-.34-.14-.34a10.68,10.68,0,0,0-3.66-4.44,28.34,28.34,0,0,0-10.84-4.53c-.34-.09-.68-.16-1-.22-13.59-2.6-23.41-3.41-23.41-3.41l-2.89,0c-10.68,0-21.63.74-29.87,3.48C377.09,184.62,363.32,193.91,363.32,193.91Z" style="fill:#0e547a"/><g id="_Group_38" data-name="&lt;Group&gt;"><path id="_Path_143" data-name="&lt;Path&gt;" d="M363.32,193.91s1.75,7.65,4.12,14.51h0s0,0,0,0c.4-8,10.53-17.67,19-20.41,8.8-2.83,14.5-.27,16.57,0s5.36,7,9.88,9.65,4,3.78,20.35,4.21,22.21-12.09,22.21-12.09c4.14.46,5.78,3.4,6.34,6.12s-.34,8.57-.34,8.57c2.62-4.74,2.59-13,2.09-14.42a.31.31,0,0,0,0-.08c-.08-.21-.14-.34-.14-.34a10.68,10.68,0,0,0-3.66-4.44,22.76,22.76,0,0,0-2.86-1.76,35.92,35.92,0,0,0-8-2.77c-.34-.09-.68-.16-1-.22-13.59-2.6-23.41-3.41-23.41-3.41l-2.89,0c-10.68,0-21.63.74-29.87,3.48C377.09,184.62,363.32,193.91,363.32,193.91Z" style="fill:#191f34;opacity:0.30000000000000004"/></g></g><g id="_Group_39" data-name="&lt;Group&gt;"><path id="_Path_144" data-name="&lt;Path&gt;" d="M411.61,190.87s-2.29,7.06,7.36,11.73,14.29-.68,14.29-.68-14.77-9.95-21.65-11" style="fill:#f4ac8d"/><path id="_Path_145" data-name="&lt;Path&gt;" d="M411.61,190.87s-2.29,7.06,7.36,11.73,14.29-.68,14.29-.68-14.77-9.95-21.65-11" style="fill:#db825e;opacity:0.8"/></g><g id="face-4" data-name="face"><g id="_Group_40" data-name="&lt;Group&gt;"><path id="ear-10" data-name="ear" d="M452.74,174.74a7.75,7.75,0,1,1,7,8.43A7.74,7.74,0,0,1,452.74,174.74Z" style="fill:#f4ac8d"/><path id="ear-11" data-name="ear" d="M452.74,174.74a7.75,7.75,0,1,1,7,8.43A7.74,7.74,0,0,1,452.74,174.74Z" style="fill:#db825e;opacity:0.30000000000000004"/><path id="_Path_146" data-name="&lt;Path&gt;" d="M463,171.37c-1.64-1.45-4-.3-4.84,1.41-.22.42.52,1.2.87.76.71-.9.93-1.15,2-.93,1-.09,1.18.29.48,1.15-.28.18-.55.34-.83.5a.78.78,0,0,0,0,1.43c1.17.57,1.64,2.4.09,2.84-1.37.4-2.24-.38-3-1.45-.15-.22-.51-.28-.51.08,0,2.13,2.23,3,4.08,2.62,2.43-.48,2.45-3.14,1.17-4.73C463.69,174.08,464.45,172.68,463,171.37Z" style="fill:#db825e;opacity:0.5"/><path id="head-4" data-name="head" d="M459.81,173.5c1.65-16-8.62-30-24.65-31.64a29.17,29.17,0,0,0-32,26c-1.65,16,14.29,32.63,26.3,33.86,6.73,1.16,15.65-2.6,21.67-9.25C455.15,188.07,459.15,179.92,459.81,173.5Z" style="fill:#f4ac8d"/></g><g id="_Group_41" data-name="&lt;Group&gt;"><path id="ear-12" data-name="ear" d="M409,175.45a7.74,7.74,0,1,0-6.7,8.66A7.74,7.74,0,0,0,409,175.45Z" style="fill:#f4ac8d"/><path id="_Path_147" data-name="&lt;Path&gt;" d="M398.69,172.44c1.59-1.51,4-.44,4.89,1.24.23.41-.48,1.21-.84.79-.74-.87-1-1.12-2.07-.86-1-.05-1.17.34-.44,1.17.28.16.56.32.85.46a.8.8,0,0,1,.05,1.44c-1.14.6-1.55,2.45,0,2.84,1.38.35,2.23-.46,2.92-1.55.14-.23.5-.3.51.05.1,2.14-2.12,3.07-4,2.77-2.45-.4-2.56-3-1.34-4.68C398.06,175.17,397.25,173.8,398.69,172.44Z" style="fill:#db825e;opacity:0.5"/></g><path id="nose-4" data-name="nose" d="M443.38,181.6l-10.47,1.46s5.7,2.76,7.8,1.71A5.46,5.46,0,0,0,443.38,181.6Z" style="fill:#db825e"/><g id="mouth-4" data-name="mouth"><path id="_Path_148" data-name="&lt;Path&gt;" d="M436.72,191a3.19,3.19,0,0,1-3.54,2.71,8,8,0,0,1-7.12-5.62A19.57,19.57,0,0,0,436.72,191Z" style="fill:#ca1535"/><path id="_Path_149" data-name="&lt;Path&gt;" d="M426.36,188.09a55.86,55.86,0,0,0,7.41,1.49c2.54.33,5.09,0,7.63.28.42,0,.06.7-.17.77-4.14,1.35-11.69.62-15.15-2.28C425.78,188.1,426,188,426.36,188.09Z" style="fill:#db825e"/></g><path id="_Path_150" data-name="&lt;Path&gt;" d="M420.36,171.2a6.59,6.59,0,0,1,6.13-2.45c6.08.74,6.49,6,6.49,6a14,14,0,0,0-7-2.35,11.69,11.69,0,0,0-7.45,2.13,9,9,0,0,1,.69-1.61A12.71,12.71,0,0,1,420.36,171.2Z" style="fill:#191f34"/><path id="_Path_151" data-name="&lt;Path&gt;" d="M455.55,174a6.15,6.15,0,0,0-5.41-2.93c-5.7,0-6.64,4.84-6.64,4.84a13.08,13.08,0,0,1,6.72-1.43,10.91,10.91,0,0,1,6.66,2.77,8.7,8.7,0,0,0-.46-1.57C456.17,175.1,455.55,174,455.55,174Z" style="fill:#191f34"/><path id="_Path_152" data-name="&lt;Path&gt;" d="M427.27,179.2c.55,2.43-1.52,5-4.62,5.66s-6.07-.71-6.62-3.15,1.51-5,4.62-5.66S426.72,176.77,427.27,179.2Z" style="fill:#ec5e76;opacity:0.2"/><path id="_Path_153" data-name="&lt;Path&gt;" d="M448.27,180.06c1.49-2,4.76-2.07,7.31-.16S459,185,457.48,187s-4.76,2.08-7.31.16S446.78,182.06,448.27,180.06Z" style="fill:#ec5e76;opacity:0.2"/></g><path id="_Compound_Path_" data-name="&lt;Compound Path&gt;" d="M447.53,129.41c-22.23,0-31.12,12.85-31.12,12.85s-8.4-.76-11.83,6.49S403,168.88,403,168.88a11,11,0,0,1,2.58,1.52,9,9,0,0,1,3.4,5l3.17-1.44a21.33,21.33,0,0,1,2.59-12.65,47,47,0,0,1,9.15-11.57s9,14.85,22.45,14.68c13-.16,10.27-10.86,10.09-11.56.3.56,3.83,6.71,11.5,1.44C476,148.83,472.11,129.41,447.53,129.41Z" style="fill:#a03717"/><path id="_Path_154" data-name="&lt;Path&gt;" d="M412.19,174,409,175.45a9,9,0,0,0-3.4-5,11,11,0,0,0-2.58-1.52s-1.9-12.87,1.54-20.13,11.83-6.49,11.83-6.49c-8.8,2.48-11.58,12.71-9.51,21.17S412.19,174,412.19,174Z" style="fill:#7c1905"/><path id="_Path_155" data-name="&lt;Path&gt;" d="M449.33,130.36s15.93,1.69,19.43,10.49-3.48,16.58-10.55,12.31c0,0,6.66,1.2,9.15-5.18C470.08,141,462.41,133,449.33,130.36Z" style="fill:#db825e"/><path id="_Path_156" data-name="&lt;Path&gt;" d="M454.9,153s1.7,5.59-3,8.5-14.71-1-18.21-4.25c0,0,10.3,5.36,15.67,3.13A8.84,8.84,0,0,0,454.9,153Z" style="fill:#db825e"/><path id="_Path_157" data-name="&lt;Path&gt;" d="M430.35,160a9.64,9.64,0,0,0-12.55,5.35c0,.05,0,.18.08.11a11.41,11.41,0,0,1,7.48-3c1.45-.1,5.26,1.48,6-.35A1.58,1.58,0,0,0,430.35,160Z" style="fill:#a03717"/><path id="_Path_158" data-name="&lt;Path&gt;" d="M451.29,163.47a8.43,8.43,0,0,1,9.16,7.65s-.05.15-.09.07a10,10,0,0,0-5.5-4.43c-1.19-.46-4.78-.1-4.92-1.81A1.39,1.39,0,0,1,451.29,163.47Z" style="fill:#a03717"/></g><g id="_Group_42" data-name="&lt;Group&gt;"><g id="_Group_43" data-name="&lt;Group&gt;"><path id="_Path_159" data-name="&lt;Path&gt;" d="M308.16,98.2c-1.17-.29-2.72-2.52-3.09-2.1a1.72,1.72,0,0,0-.45,1v0a12.24,12.24,0,0,0,.36,2.69,10.85,10.85,0,0,1,.21,3.72,1,1,0,0,1-.21.49h0a1.35,1.35,0,0,1-2.2-.09,8.09,8.09,0,0,1-1-3.54c-.06-.43-.39-2.08-1-2.08h0a.34.34,0,0,0-.25.1c-.46.34-.42,1.58-.44,2.06,0,.8.15,1.71.15,2.51a2.22,2.22,0,0,1-.3,1.49h0a.92.92,0,0,1-.8.2c-.87-.12-1.26-.76-1.48-1.56a16.85,16.85,0,0,1-.5-3.54c-.09-1.33,0-2.75-.92-2.81-1.28-.09-.19,3.06-.76,4.49a1,1,0,0,1-1.06.68c-.8,0-1.26-.82-1.5-1.48-.54-1.54-.34-3.25-.41-4.86a39.42,39.42,0,0,1,.22-4.61,112.6,112.6,0,0,1,1.84-11.66c.53-2.92.87-5.86,1.29-8.78a27.79,27.79,0,0,1,2-7.68c1.47-3.16,3.75-5,7.22-3.68A5.29,5.29,0,0,1,307.18,63c0,1.84.08,3.68.08,5.53,0,3.69-.81,7.37-1.22,11a31.26,31.26,0,0,0,.32,10.78c.54,2.1,2,3.63,2.87,5.53a4.28,4.28,0,0,1,.38,1.07s0,0,0,0C309.84,97.86,309.64,98.57,308.16,98.2Z" style="fill:#f0b89f"/><path id="_Path_160" data-name="&lt;Path&gt;" d="M298.22,94.94c-1.5-.39-3.37-.51-4.15,1.12-.5,1.06-.88,6.07,1.39,5.21a1,1,0,0,1-1.06.68c-.8,0-1.26-.82-1.5-1.48-.54-1.54-.34-3.25-.41-4.86a39.42,39.42,0,0,1,.22-4.61,112.6,112.6,0,0,1,1.84-11.66c.53-2.92.87-5.86,1.29-8.78a27.79,27.79,0,0,1,2-7.68c.34,1.87-.36,4.32-.41,5.8,0,1.66,9.72,3.33,9.41,5-1.89,10.1-7,12.12-7.62,15.73a4.12,4.12,0,0,0,1,4,8.23,8.23,0,0,0,2.65,1.52C301.08,96.39,299.37,95.23,298.22,94.94Z" style="fill:#db825e;opacity:0.30000000000000004"/><path id="_Path_161" data-name="&lt;Path&gt;" d="M299.92,104.49a.92.92,0,0,1-.8.2c-.87-.12-1.26-.76-1.48-1.56a16.85,16.85,0,0,1-.5-3.54c-.09-1.33,0-2.75-.92-2.81,0,0,.8-1,1.66,1.51S298.14,104.75,299.92,104.49Z" style="fill:#db825e;opacity:0.30000000000000004"/><path id="_Path_162" data-name="&lt;Path&gt;" d="M305,104h0a1.35,1.35,0,0,1-2.2-.09,8.09,8.09,0,0,1-1-3.54c-.06-.43-.39-2.08-1-2.08.11-.06.94-.44,1.46,0s.64,4.15,1.25,5.18A1.06,1.06,0,0,0,305,104Z" style="fill:#db825e;opacity:0.30000000000000004"/><path id="_Path_163" data-name="&lt;Path&gt;" d="M308.16,98.2c-1.17-.29-2.72-2.52-3.09-2.1a1.72,1.72,0,0,0-.45,1c0-.35-.28-2.72.94-2s2,1.85,2.94,2.47,1.08-.35,1.11-.53C309.84,97.86,309.64,98.57,308.16,98.2Z" style="fill:#db825e;opacity:0.30000000000000004"/></g><path id="_Path_164" data-name="&lt;Path&gt;" d="M269.67,129a2.81,2.81,0,0,1,.07-.3c0,.22-.08.42-.12.63C269.64,129.18,269.66,129.07,269.67,129Z" style="fill:#191f34"/><g id="_Group_44" data-name="&lt;Group&gt;"><path id="_Path_165" data-name="&lt;Path&gt;" d="M250,45.76A9.65,9.65,0,0,1,238.38,53a10.18,10.18,0,0,1-1.59-.51,9.66,9.66,0,0,1,3.93-18.54,10.33,10.33,0,0,1,2,.25A9.63,9.63,0,0,1,250,45.76Z" style="fill:#d13c2c"/><path id="_Path_166" data-name="&lt;Path&gt;" d="M250.71,34a9.47,9.47,0,0,1-2.15,4.19A9.59,9.59,0,0,1,236.25,40a9.52,9.52,0,0,1-2.93-2.79,9.67,9.67,0,0,1,7.24-15,9.82,9.82,0,0,1,2.94.23A9.64,9.64,0,0,1,250.71,34Z" style="fill:#d13c2c"/><path id="_Path_167" data-name="&lt;Path&gt;" d="M240.86,19.81a9.65,9.65,0,1,1,7.21,11.58A9.64,9.64,0,0,1,240.86,19.81Z" style="fill:#d13c2c"/><path id="_Path_168" data-name="&lt;Path&gt;" d="M252.9,24.59a9.65,9.65,0,1,1,7.21,11.58A9.64,9.64,0,0,1,252.9,24.59Z" style="fill:#d13c2c"/></g><path id="_Path_169" data-name="&lt;Path&gt;" d="M236.25,40a6.52,6.52,0,0,0,1.14,6l-.6,6.48a9.64,9.64,0,0,1-3.47-15.26,9.67,9.67,0,0,1,7.24-15s-9.4,6.15.16,11.76C240.72,33.93,237.29,36.5,236.25,40Z" style="fill:#bc281d"/><g id="_Group_45" data-name="&lt;Group&gt;"><path id="_Path_170" data-name="&lt;Path&gt;" d="M269.74,128.66c0,.22-.08.42-.12.63,0,0,0,0,0,0A8.73,8.73,0,0,1,268.2,133c-3.55,4.41-7.6,3.68-10.23-7.4s-1.56-16.18-1.56-16.18L270.07,114S270.75,122.8,269.74,128.66Z" style="fill:#01484c"/><path id="_Path_171" data-name="&lt;Path&gt;" d="M269.61,129.33A8.73,8.73,0,0,1,268.2,133c-3.55,4.41-7.6,3.68-10.23-7.4s-1.56-16.18-1.56-16.18L270.07,114a18.45,18.45,0,0,1-5.61,5.87c-3.66,2.37-3.5,7.7-1.22,11.5C265.44,135,269,132.17,269.61,129.33Z" style="fill:#191f34;opacity:0.30000000000000004"/></g><g id="_Group_46" data-name="&lt;Group&gt;"><path id="_Path_172" data-name="&lt;Path&gt;" d="M292.85,120.26c-4.86.11-16.17-10.05-16.17-10.05l4.62-13.66a27.14,27.14,0,0,1,6,4.62,68.41,68.41,0,0,1,5.92,6.47,30.86,30.86,0,0,1,3.34,4.83C299.45,117.82,297.35,120.15,292.85,120.26Z" style="fill:#01484c"/><path id="_Path_173" data-name="&lt;Path&gt;" d="M292.85,120.26c-4.86.11-16.17-10.05-16.17-10.05l4.62-13.66a27.14,27.14,0,0,1,6,4.62h0a16,16,0,0,1-3.19,7.22c-2.75,3.49,5.2,8.78,8.48,9.33s5.32-1.13,4-5.26C299.45,117.82,297.35,120.15,292.85,120.26Z" style="fill:#191f34;opacity:0.30000000000000004"/></g><path id="_Path_174" data-name="&lt;Path&gt;" d="M293.13,93.14s-7.36,14.33-22.28,21.21-21.6,1.82-20.25-2.51Z" style="fill:#94dadd"/><g id="_Group_47" data-name="&lt;Group&gt;"><path id="_Path_175" data-name="&lt;Path&gt;" d="M308.6,67.16a32.25,32.25,0,0,1-1.3,5.25c-5.14,15.78-22.92,29.85-37.65,37-6,2.89-11.49,4.63-15.4,4.87-20.27,1.2-19.15-8.66-16.71-15.47,3.49-9.75,15.91-21.08,28.69-30,0,0,8.47-5.06,21-10.83C298.58,52.77,310.74,53.26,308.6,67.16Z" style="fill:#ec5e76"/><path id="_Path_176" data-name="&lt;Path&gt;" d="M308.6,67.16c-1.4-11.74-15.47.82-15.47.82S287,88.56,276.05,92c-12.81,4-17.84-2-20.43,3.51-5,10.7,14,13.89,14,13.89-6,2.89-11.49,4.63-15.4,4.87-20.27,1.2-19.15-8.66-16.71-15.47,3.49-9.75,15.91-21.08,28.69-30,0,0,8.47-5.06,21-10.83C298.58,52.77,310.74,53.26,308.6,67.16Z" style="fill:#db2a50"/></g><g id="_Group_48" data-name="&lt;Group&gt;"><path d="M265.62,196.17a5.79,5.79,0,0,1-4.49-.65c-1.12-.64-2.2-2.22-3.3-2.51a31.28,31.28,0,0,0,.13,7.49c.33,2.92.51,4.86-.35,5.82a2.26,2.26,0,0,1-1.54.7c-2.48.29-2.62-5.54-2.8-7.58s-.8-3.1-1.48-3.06h0c-.59,0-1.2.8-1.51,3-.52,3.58-.86,6.57-2.41,7.61h0c-.48,1-1.06.81-1.81.81-3.62,0,.3-11.16-1.51-12-1.46-.66-3.92,8.28-6.34,7.92-2-.28-2.83-2.06-1.25-6.3,1.28-3.46,2.89-6.64,3.72-8.73s2.27-4.21,2.94-7.28c1.31-.07,2.65-.1,4-.1a79,79,0,0,1,9.42.56c.86,1.54,2.12,2.93,2.59,3.72,1.58,2.65,3,6.17,5.65,8,.52.35,1.1.91,1.34.91h0C266.87,195.57,266.73,195.73,265.62,196.17Z" style="fill:#191f34;opacity:0.30000000000000004"/><path id="_Path_177" data-name="&lt;Path&gt;" d="M263.38,194.43c-1.38.55-3.31-.1-4.5-.78s-2.2-2.28-3.3-2.57a31,31,0,0,0,.13,7.46c.33,2.92.51,4.84-.35,5.8a2.19,2.19,0,0,1-1.54.7c-2.48.29-2.62-5.54-2.79-7.59s-.81-3.1-1.49-3.06h0c-.59,0-1.2,1-1.51,3.19-.52,3.57-.86,6.6-2.41,7.82h0a2.79,2.79,0,0,1-1.81.59c-3.62,0,.3-11.26-1.51-12.08-1.46-.65-3.92,8.23-6.34,7.88-2-.28-2.83-2.1-1.25-6.33,1.28-3.47,2.89-6.66,3.72-8.75,1.16-2.93,3.57-6,3.27-11.54,0,0-5.77-60.75-5.58-69.26.22-9.94,4.12-10.84,4.12-10.84a8.82,8.82,0,0,1,4-.5c5.09.52,11,5.12,10.5,17.07-.2,8.48-.82,65.27-.82,65.31-.18,2.51,2.64,5.35,3.42,6.65,1.57,2.64,2.94,6.43,5.64,8.28a4.75,4.75,0,0,1,1.34,1.16h0C264.62,193.52,264.48,194,263.38,194.43Z" style="fill:#f0b89f"/><path id="_Path_178" data-name="&lt;Path&gt;" d="M263.38,194.43c-1.38.55-3.31-.1-4.5-.78s-2.2-2.28-3.3-2.57c0,0,.09-2.93,0-3.32s1,.39,2.26,2.64a5.88,5.88,0,0,0,5,3.25c1.57-.07,1.46-.6,1.46-.6h0C264.62,193.52,264.48,194,263.38,194.43Z" style="fill:#db825e;opacity:0.5"/><path id="_Path_179" data-name="&lt;Path&gt;" d="M255.36,204.34a2.19,2.19,0,0,1-1.54.7c-2.48.29-2.62-5.54-2.79-7.59s-.81-3.1-1.49-3.06c.21-.08,1.66-.66,2.15.35s.73,5,1.25,7S253.74,205.1,255.36,204.34Z" style="fill:#db825e;opacity:0.5"/><path id="_Path_180" data-name="&lt;Path&gt;" d="M245.59,205.41a2.79,2.79,0,0,1-1.81.59c-3.62,0,.3-11.26-1.51-12.08,0,0,2.07-.65,1.82,2.71S242.3,205.65,245.59,205.41Z" style="fill:#db825e;opacity:0.5"/><path id="_Path_181" data-name="&lt;Path&gt;" d="M243.18,182.51c-3.62,6.74-9.32,17.59-7.25,19.29-2-.28-2.83-2.1-1.25-6.33,1.28-3.47,2.89-6.66,3.72-8.75,1.16-2.93,3.57-6,3.27-11.54,0,0-5.77-60.75-5.58-69.26.22-9.94,4.12-10.84,4.12-10.84a8.82,8.82,0,0,1,4-.5c-1.44.32-3.45,3.77-2.93,18.17.63,17.4,2.32,33,2.77,40.85C244.39,159,246.81,175.78,243.18,182.51Z" style="fill:#db825e;opacity:0.30000000000000004"/></g><g id="_Group_49" data-name="&lt;Group&gt;"><path id="_Path_182" data-name="&lt;Path&gt;" d="M263.24,86.71s2.24,7.08,12.81,5.27,11.23-8.86,11.23-8.86-17.8.48-24,3.59" style="fill:#f0b89f"/><path id="_Path_183" data-name="&lt;Path&gt;" d="M263.24,86.71s2.24,7.08,12.81,5.27,11.23-8.86,11.23-8.86-17.8.48-24,3.59" style="fill:#db825e;opacity:0.7000000000000001"/></g><g id="face-5" data-name="face"><g id="_Group_50" data-name="&lt;Group&gt;"><path id="ear-13" data-name="ear" d="M289.46,55a7.74,7.74,0,1,1,9.68,5.12A7.74,7.74,0,0,1,289.46,55Z" style="fill:#f0b89f"/><path id="ear-14" data-name="ear" d="M289.46,55a7.74,7.74,0,1,1,9.68,5.12A7.74,7.74,0,0,1,289.46,55Z" style="fill:#db825e;opacity:0.30000000000000004"/><path id="_Path_184" data-name="&lt;Path&gt;" d="M297.62,47.94c-2.07-.71-3.79,1.25-3.94,3.15,0,.48.94.91,1.09.38.32-1.1.42-1.42,1.53-1.64.92-.47,1.21-.18.89.88-.19.27-.38.52-.58.78a.79.79,0,0,0,.54,1.33c1.3.07,2.43,1.58,1.17,2.59s-2.22.5-3.3-.21c-.22-.15-.58-.07-.44.26.79,2,3.2,1.92,4.76.87,2.07-1.38,1.07-3.83-.71-4.81C299.32,50.17,299.49,48.59,297.62,47.94Z" style="fill:#db825e;opacity:0.5"/></g><path id="head-5" data-name="head" d="M296.45,51.16C291.86,35.71,277,26.71,261.59,31.3a29.17,29.17,0,0,0-19.66,36.28c4.59,15.45,25.66,24.71,37.22,21.27,6.67-1.49,13.48-8.36,16.51-16.81C297.69,66.4,298.28,57.34,296.45,51.16Z" style="fill:#f0b89f"/><g id="_Group_51" data-name="&lt;Group&gt;"><path id="ear-15" data-name="ear" d="M250.24,72.32a7.75,7.75,0,1,0-2.89,10.57A7.74,7.74,0,0,0,250.24,72.32Z" style="fill:#f0b89f"/><path id="_Path_185" data-name="&lt;Path&gt;" d="M239.54,73.48c.9-2,3.5-1.92,5-.72.37.29,0,1.3-.47,1-1-.52-1.33-.66-2.24,0-1,.34-1,.76,0,1.25.31,0,.63.08,1,.1a.79.79,0,0,1,.59,1.31c-.83,1-.5,2.86,1.1,2.62,1.41-.2,1.88-1.27,2.1-2.55,0-.26.35-.46.5-.14.9,1.93-.8,3.65-2.63,4.07-2.42.57-3.53-1.84-3-3.81C240,76.24,238.73,75.29,239.54,73.48Z" style="fill:#db825e;opacity:0.5"/></g><path id="nose-5" data-name="nose" d="M284.35,64.91l-9.12,5.34s6.31.38,7.85-1.4A5.48,5.48,0,0,0,284.35,64.91Z" style="fill:#db825e"/><g id="mouth-5" data-name="mouth"><path id="_Path_186" data-name="&lt;Path&gt;" d="M281.76,76.1A3.2,3.2,0,0,1,279.52,80a8,8,0,0,1-8.72-2.48A19.49,19.49,0,0,0,281.76,76.1Z" style="fill:#ec5e76"/><path id="_Path_187" data-name="&lt;Path&gt;" d="M271.09,77.4A55.88,55.88,0,0,0,278.51,76c2.47-.66,4.72-1.91,7.15-2.65.41-.12.32.62.14.77-3.31,2.83-10.57,5-14.87,3.67C270.56,77.63,270.72,77.44,271.09,77.4Z" style="fill:#ca1535"/></g><path id="_Path_188" data-name="&lt;Path&gt;" d="M256,63a3.91,3.91,0,0,0,2.86.44,6.58,6.58,0,0,1,4.73-4.6c5.91-1.63,8.28,3,8.28,3a14.11,14.11,0,0,0-7.36.49,11.77,11.77,0,0,0-6.08,4.81,10,10,0,0,1,0-1.75A2.87,2.87,0,0,1,256,63Z" style="fill:#191f34"/><path id="_Path_189" data-name="&lt;Path&gt;" d="M294.26,50.61a3.7,3.7,0,0,1-1.83,2,6.13,6.13,0,0,0-6.12-.64c-5.26,2.21-4.3,7-4.3,7a13.17,13.17,0,0,1,5.67-3.88,11,11,0,0,1,7.22,0,8.69,8.69,0,0,0-1-1.26A2.69,2.69,0,0,0,294.26,50.61Z" style="fill:#191f34"/><path id="_Path_190" data-name="&lt;Path&gt;" d="M268.53,68.83c1.44,2,.5,5.17-2.11,7s-5.88,1.66-7.32-.38-.49-5.17,2.11-7S267.1,66.79,268.53,68.83Z" style="fill:#ec5e76;opacity:0.4"/><path id="_Path_191" data-name="&lt;Path&gt;" d="M287.49,59.71c.62-2.42,3.61-3.73,6.69-2.94s5.08,3.4,4.46,5.82S295,66.32,292,65.53,286.87,62.12,287.49,59.71Z" style="fill:#ec5e76;opacity:0.4"/></g><path id="_Path_192" data-name="&lt;Path&gt;" d="M294.57,45.36c-13.19,1.78-33.85-2.71-37.65-8.57h0s0,0,0,0a13.25,13.25,0,0,1,.29,4.18v0c-.48,6.06-4.31,12.51-6.09,16.24a20.74,20.74,0,0,0-.88,15.15c-3.86-4.81-10.56-2.89-10.56-2.89-8.39-14.75-.47-33.48,7-39a35.84,35.84,0,0,1,5.12-3.14h0a32.1,32.1,0,0,1,26.32-1.16C288.47,30.12,293.65,38.77,294.57,45.36Z" style="fill:#e85445"/><path id="_Path_193" data-name="&lt;Path&gt;" d="M261.34,48.91l-.25-.26a1.15,1.15,0,0,0-1.19-.42,9.26,9.26,0,0,0-4.45,5,14.1,14.1,0,0,0-.37,7.14c.06.25.3.18.36,0,.69-2.17,1.1-4.38,2.66-6.17,1.19-1.36,2.81-2.23,3.62-3.92A1.3,1.3,0,0,0,261.34,48.91Z" style="fill:#e85445"/><path id="_Path_194" data-name="&lt;Path&gt;" d="M279.47,42.29l-.09-.34a1.14,1.14,0,0,1,.28-1.23,9.28,9.28,0,0,1,6.63-1.08,14,14,0,0,1,6.22,3.5c.18.19,0,.35-.21.3-2.2-.58-4.3-1.42-6.63-1.06-1.8.28-3.39,1.19-5.26,1C279.9,43.29,279.58,42.74,279.47,42.29Z" style="fill:#d13c2c"/><path id="_Path_195" data-name="&lt;Path&gt;" d="M256.92,36.81q0,.36,0,.72c-.12-1.72-.14-2.16,0-.83v.08h0Z" style="fill:#d13c2c"/><path id="_Path_196" data-name="&lt;Path&gt;" d="M257,37.53c.06.87.16,2,.26,3.46v0c-.48,6.06-4.31,12.51-6.09,16.24a20.74,20.74,0,0,0-.88,15.15c-3.86-4.81-10.56-2.89-10.56-2.89-8.39-14.75-.47-33.48,7-39a35.84,35.84,0,0,1,5.12-3.14c-.81.63-11.88,6-11.29,21.83.38,10,2.8,10.82,7.63,5.15C252.84,48.9,257.17,44.4,257,37.53Z" style="fill:#d13c2c;opacity:0.5"/><path id="_Path_197" data-name="&lt;Path&gt;" d="M263.82,25.38c-.77-.12,22.13-2.59,28.69,17.76C292.51,43.14,284.37,28.49,263.82,25.38Z" style="fill:#f4dd69;opacity:0.5"/><path id="_Path_198" data-name="&lt;Path&gt;" d="M242.53,21a9.57,9.57,0,0,1,6.87-5.57A7.15,7.15,0,0,1,257,18.23s-1.51-5.19-6.81-4.46C242.53,14.8,242.53,21,242.53,21Z" style="fill:#f4dd69;opacity:0.5"/><path id="_Path_199" data-name="&lt;Path&gt;" d="M258.85,19.21c.9-.13,8.49-1.43,11,4.73,0,0,.33-4.27-5-5.42C261,17.68,258.85,19.21,258.85,19.21Z" style="fill:#f4dd69;opacity:0.5"/></g><path d="M218.11,257.55V244.94h4.47q6.71,0,6.71,6.15a6.21,6.21,0,0,1-1.83,4.7,6.76,6.76,0,0,1-4.88,1.76ZM221,247.26v8h1.41a3.78,3.78,0,0,0,2.89-1.11,4.22,4.22,0,0,0,1.05-3,3.82,3.82,0,0,0-1-2.83,4,4,0,0,0-2.92-1Z" style="fill:#fff"/><path d="M232.52,247.12a1.68,1.68,0,0,1-1.16-.41,1.38,1.38,0,0,1-.44-1,1.34,1.34,0,0,1,.44-1,1.71,1.71,0,0,1,1.16-.39,1.67,1.67,0,0,1,1.15.39,1.31,1.31,0,0,1,.45,1,1.34,1.34,0,0,1-.45,1A1.63,1.63,0,0,1,232.52,247.12Zm1.37,10.43h-2.78v-9h2.78Z" style="fill:#fff"/><path d="M242.1,251.05a2.46,2.46,0,0,0-1.17-.27,1.69,1.69,0,0,0-1.42.66,2.92,2.92,0,0,0-.51,1.81v4.3h-2.78v-9H239v1.67h0a2.4,2.4,0,0,1,2.37-1.83,1.66,1.66,0,0,1,.69.11Z" style="fill:#fff"/><path d="M251.4,253.84h-5.87c.1,1.31.92,2,2.47,2a4.9,4.9,0,0,0,2.61-.7v2a6.9,6.9,0,0,1-3.24.67,4.2,4.2,0,0,1-4.59-4.58,4.79,4.79,0,0,1,1.3-3.55,4.32,4.32,0,0,1,3.2-1.31,4,4,0,0,1,3.05,1.17,4.52,4.52,0,0,1,1.07,3.17Zm-2.57-1.71c0-1.29-.52-1.93-1.57-1.93a1.48,1.48,0,0,0-1.15.55,2.49,2.49,0,0,0-.6,1.38Z" style="fill:#fff"/><path d="M259.88,257.22a5.45,5.45,0,0,1-2.72.55,4.6,4.6,0,0,1-3.36-1.26,4.36,4.36,0,0,1-1.28-3.24,4.81,4.81,0,0,1,1.37-3.62,5.11,5.11,0,0,1,3.68-1.32,4.79,4.79,0,0,1,2.31.42v2.36a3.14,3.14,0,0,0-1.95-.65,2.4,2.4,0,0,0-2.59,2.62A2.54,2.54,0,0,0,256,255a2.47,2.47,0,0,0,1.84.68,3.72,3.72,0,0,0,2-.65Z" style="fill:#fff"/><path d="M267.14,257.44a4.07,4.07,0,0,1-1.86.33c-2,0-2.93-1-2.93-3V250.6h-1.46v-2h1.46v-1.94l2.76-.8v2.74h2v2h-2v3.63c0,.94.38,1.41,1.12,1.41a1.9,1.9,0,0,0,.91-.25Z" style="fill:#fff"/><path d="M276.19,257.55h-2.63v-1.29h0a3,3,0,0,1-2.69,1.51,2.8,2.8,0,0,1-2.06-.75,2.65,2.65,0,0,1-.75-2c0-1.74,1-2.75,3.1-3l2.45-.33c0-1-.54-1.47-1.6-1.47a5.47,5.47,0,0,0-3.06,1v-2.1a6.71,6.71,0,0,1,1.59-.52,7.89,7.89,0,0,1,1.83-.23q3.86,0,3.85,3.84Zm-2.61-3.66v-.6l-1.64.21c-.9.11-1.35.52-1.35,1.22a1,1,0,0,0,.33.78,1.28,1.28,0,0,0,.89.3,1.66,1.66,0,0,0,1.28-.54A2,2,0,0,0,273.58,253.89Z" style="fill:#fff"/><path d="M224.33,279.15h-3.09l-.9-2.81h-4.48l-.89,2.81H211.9l4.58-12.61h3.37Zm-4.64-5-1.35-4.23a5.54,5.54,0,0,1-.21-1.14h-.07a4.67,4.67,0,0,1-.22,1.1l-1.37,4.27Z" style="fill:#fff"/><path d="M234.19,279.15h-2.77v-1.37h0a3.13,3.13,0,0,1-2.75,1.59c-2.08,0-3.13-1.27-3.13-3.79v-5.43h2.77v5.18c0,1.27.51,1.91,1.51,1.91a1.5,1.5,0,0,0,1.2-.52,2.1,2.1,0,0,0,.45-1.42v-5.15h2.77Z" style="fill:#fff"/><path d="M235.93,278.91v-2.25a6.12,6.12,0,0,0,1.37.62,4.72,4.72,0,0,0,1.29.2,2.81,2.81,0,0,0,1.16-.2.66.66,0,0,0,.43-.62.56.56,0,0,0-.19-.44,1.86,1.86,0,0,0-.5-.31c-.2-.08-.42-.16-.66-.23a7.19,7.19,0,0,1-.7-.24,6.37,6.37,0,0,1-.94-.44,2.51,2.51,0,0,1-.69-.54,2.19,2.19,0,0,1-.42-.71,2.76,2.76,0,0,1-.15-1,2.49,2.49,0,0,1,.33-1.3,2.77,2.77,0,0,1,.88-.89,4.17,4.17,0,0,1,1.26-.51,6.43,6.43,0,0,1,1.47-.16,8.59,8.59,0,0,1,2.43.36v2.14a4.47,4.47,0,0,0-1.13-.46,4.89,4.89,0,0,0-1.18-.15,2.14,2.14,0,0,0-.52.05,1.3,1.3,0,0,0-.42.14.76.76,0,0,0-.29.23.57.57,0,0,0-.11.33.6.6,0,0,0,.16.43,1.5,1.5,0,0,0,.41.3,5.19,5.19,0,0,0,.57.23l.62.2a7.15,7.15,0,0,1,1,.43,3.17,3.17,0,0,1,.77.53,2.19,2.19,0,0,1,.49.72,2.5,2.5,0,0,1,.17,1,2.54,2.54,0,0,1-.34,1.36,2.85,2.85,0,0,1-.93.93,4.08,4.08,0,0,1-1.32.51,7.38,7.38,0,0,1-1.56.17A8.24,8.24,0,0,1,235.93,278.91Z" style="fill:#fff"/><path d="M249.88,279a4,4,0,0,1-1.85.33c-2,0-2.94-1-2.94-3.05V272.2h-1.46v-2.05h1.46v-1.94l2.77-.8v2.74h2v2.05h-2v3.63c0,.94.37,1.41,1.12,1.41a1.86,1.86,0,0,0,.9-.25Z" style="fill:#fff"/><path d="M257.32,272.65a2.46,2.46,0,0,0-1.17-.27,1.7,1.7,0,0,0-1.42.66,2.92,2.92,0,0,0-.51,1.81v4.3h-2.77v-9h2.77v1.67h0a2.4,2.4,0,0,1,2.37-1.83,1.83,1.83,0,0,1,.69.1Z" style="fill:#fff"/><path d="M266.1,279.15h-2.63v-1.29h0a3,3,0,0,1-2.69,1.51,2.8,2.8,0,0,1-2.06-.75,2.65,2.65,0,0,1-.75-2c0-1.74,1-2.75,3.1-3l2.45-.33c0-1-.53-1.47-1.6-1.47a5.47,5.47,0,0,0-3.06,1v-2.1a6.87,6.87,0,0,1,1.59-.52,7.89,7.89,0,0,1,1.83-.23q3.86,0,3.85,3.84Zm-2.61-3.66v-.61l-1.64.22c-.9.11-1.35.52-1.35,1.22a1,1,0,0,0,.33.77,1.24,1.24,0,0,0,.89.31,1.66,1.66,0,0,0,1.28-.54A2,2,0,0,0,263.49,275.49Z" style="fill:#fff"/><path d="M271.07,279.15H268.3V265.82h2.77Z" style="fill:#fff"/><path d="M274.82,268.72a1.63,1.63,0,0,1-1.15-.41,1.35,1.35,0,0,1-.45-1,1.31,1.31,0,0,1,.45-1,1.89,1.89,0,0,1,2.3,0,1.31,1.31,0,0,1,.45,1,1.34,1.34,0,0,1-.45,1A1.63,1.63,0,0,1,274.82,268.72Zm1.37,10.43h-2.78v-9h2.78Z" style="fill:#fff"/><path d="M286,279.15h-2.62v-1.29h0a3,3,0,0,1-2.68,1.51,2.79,2.79,0,0,1-2.06-.75,2.65,2.65,0,0,1-.75-2q0-2.61,3.1-3l2.44-.33c0-1-.53-1.47-1.6-1.47a5.41,5.41,0,0,0-3.05,1v-2.1a6.61,6.61,0,0,1,1.58-.52,7.9,7.9,0,0,1,1.84-.23q3.84,0,3.84,3.84Zm-2.61-3.66v-.61l-1.63.22c-.9.11-1.35.52-1.35,1.22a1,1,0,0,0,.33.77,1.21,1.21,0,0,0,.89.31,1.64,1.64,0,0,0,1.27-.54A2,2,0,0,0,283.4,275.49Z" style="fill:#fff"/></svg>