<svg id="Layer_1" data-name="Layer 1" xmlns="http://www.w3.org/2000/svg" xmlns:xlink="http://www.w3.org/1999/xlink" viewBox="0 0 222.7 242.2"><defs><linearGradient id="linear-gradient" x1="142.3" y1="654.42" x2="142.3" y2="627.3" gradientTransform="translate(0 -542)" gradientUnits="userSpaceOnUse"><stop offset="0" stop-color="#4f2280"/><stop offset="1" stop-color="#d4145a"/></linearGradient><linearGradient id="linear-gradient-3" x1="177.3" y1="691.17" x2="177.3" y2="648.42" xlink:href="#linear-gradient"/><linearGradient id="linear-gradient-4" x1="132.19" y1="710" x2="152.45" y2="710" xlink:href="#linear-gradient"/><linearGradient id="linear-gradient-5" x1="120.25" y1="624.5" x2="164.45" y2="624.5" xlink:href="#linear-gradient"/><linearGradient id="linear-gradient-6" x1="82" y1="594.92" x2="82" y2="604.5" xlink:href="#linear-gradient"/><linearGradient id="linear-gradient-7" x1="82.1" y1="594.92" x2="82.1" y2="604.5" xlink:href="#linear-gradient"/><radialGradient id="radial-gradient" cx="174.02" cy="677.44" fy="663.3101049400738" r="22.98" gradientTransform="translate(0 -542)" gradientUnits="userSpaceOnUse"><stop offset="0.25" stop-color="#021da3"/><stop offset="0.45" stop-color="#021da0"/><stop offset="0.57" stop-color="#041d98"/><stop offset="0.68" stop-color="#061c89"/><stop offset="0.77" stop-color="#091b74"/><stop offset="0.86" stop-color="#0e1a59"/><stop offset="0.93" stop-color="#131939"/><stop offset="1" stop-color="#181818"/></radialGradient><clipPath id="clip-path"><path d="M194.2,134.8A20,20,0,1,1,174,115.1h.2a19.87,19.87,0,0,1,20,19.7Z" style="fill:none"/></clipPath><radialGradient id="radial-gradient-2" cx="406.2" cy="654.1" fy="638.5103917970538" r="28.46" gradientTransform="matrix(1, 0.04, -0.04, 1, -204.28, -538.27)" gradientUnits="userSpaceOnUse"><stop offset="0.25" stop-color="#021da3"/><stop offset="0.48" stop-color="#021da1"/><stop offset="0.6" stop-color="#041d99"/><stop offset="0.7" stop-color="#061c8b"/><stop offset="0.78" stop-color="#091b78"/><stop offset="0.86" stop-color="#0d1b5f"/><stop offset="0.93" stop-color="#121940"/><stop offset="0.99" stop-color="#17181c"/><stop offset="1" stop-color="#181818"/></radialGradient></defs><title>graphic</title><g id="Objects"><path d="M32.1,47.3c4.5,4.6,11,6.4,17,3.1A16,16,0,0,0,57,38.1a105.46,105.46,0,0,1-13,5.5A102.17,102.17,0,0,1,32.1,47.3Z" style="fill:#f66"/><path d="M56,30.4l-.3-.6c-.2-.3-.3-.7-.5-1-4.1-7.3-13.5-9.6-21.1-5.4a13.45,13.45,0,0,0-6.5,16.4c.1.2.1.4.2.6a15.11,15.11,0,0,0,1.3,2.9,14.81,14.81,0,0,0,2.5,3.5A107.42,107.42,0,0,0,43.8,43a110.85,110.85,0,0,0,13.3-5.7A16.41,16.41,0,0,0,56,30.4Z" style="fill:#f66"/><path d="M66.6,30.1c-.5-1.4-3.4-1.7-8.5-.8a20.48,20.48,0,0,0-2.4.5l.3.6a18.46,18.46,0,0,1,2.3-.4c1-.2,1.8-.3,2.6-.4a12.1,12.1,0,0,1,3.8,0c.9.1,1.3.4,1.4.7.3.8-1.1,2.6-5.8,5.3a24,24,0,0,1-3.2,1.7A104.35,104.35,0,0,1,43.8,43c-4,1.5-8.1,2.7-12.2,3.8-1.9.4-3.6.8-5.2,1.1-5.3.9-7.5.4-7.8-.4-.4-1.2,3-4,9.2-7.1-.1-.2-.1-.4-.2-.6-6.1,3-10.3,6.1-9.6,8,.4,1.1,2.4,1.5,5.8,1.2.8-.1,1.7-.2,2.7-.4,1.7-.3,3.6-.7,5.6-1.2A102.17,102.17,0,0,0,44,43.7a123.46,123.46,0,0,0,13-5.5c1.3-.6,2.5-1.3,3.6-1.9,4.2-2.4,6.2-4.4,6.1-5.8C66.7,30.3,66.7,30.2,66.6,30.1Z" style="fill:#fbc96b"/><path d="M33.2,30.3a1.55,1.55,0,0,1-2-.9v-.1a1.35,1.35,0,0,1,.6-1.9.1.1,0,0,0,.1-.1,1.57,1.57,0,0,1,2.1.8h0A1.57,1.57,0,0,1,33.2,30.3Z" style="fill:#ef5b5b"/><path d="M30.6,31.8a.75.75,0,0,1-1-.5h0a.73.73,0,0,1,.4-1,.84.84,0,0,1,1.1.4h0A1,1,0,0,1,30.6,31.8Z" style="fill:#ef5b5b"/><path d="M50,48.5a.75.75,0,0,1-1-.5h0a.73.73,0,0,1,.4-1h.1a.84.84,0,0,1,1.1.4h0C50.6,47.9,50.4,48.4,50,48.5Z" style="fill:#ef5b5b"/><path d="M125.3,45.3a1.45,1.45,0,0,0-.7.2l-4.7-4.7a1.46,1.46,0,0,0-.5-2,1.85,1.85,0,0,0-.7-.2,1.37,1.37,0,0,0-1.5,1.3,1.88,1.88,0,0,0,.2.8l-4.8,4.7a1.33,1.33,0,0,0-1.4,0l-4.7-4.7a1.85,1.85,0,0,0,.2-.7,1.4,1.4,0,1,0-1.4,1.4,1.85,1.85,0,0,0,.7-.2l4.7,4.7a1.85,1.85,0,0,0-.2.7,1.46,1.46,0,0,0,1.6,1.3,1.4,1.4,0,0,0,1.3-1.3,1.85,1.85,0,0,0-.2-.7l4.8-4.8a1.32,1.32,0,0,0,1.4,0l4.8,4.7a1.45,1.45,0,0,0-.2.7,1.4,1.4,0,1,0,2.8,0A1.63,1.63,0,0,0,125.3,45.3Z" style="fill:#fff"/><path d="M175.5,74.2V182.9a3.33,3.33,0,0,1-3.3,3.3H112.5a3.33,3.33,0,0,1-3.3-3.3h0V74.2a3.33,3.33,0,0,1,3.3-3.3h59.7A3.4,3.4,0,0,1,175.5,74.2Z" style="fill:#da4444"/><path d="M169.4,78.8V173a1.79,1.79,0,0,1-1.8,1.8H117a1.77,1.77,0,0,1-1.8-1.7h0V78.8A1.79,1.79,0,0,1,117,77h50.6a1.79,1.79,0,0,1,1.8,1.8Z" style="fill:#fbc96b"/><path d="M142.3,183.4h0a3.12,3.12,0,0,1-3.1-3.1h0a3.12,3.12,0,0,1,3.1-3.1h0a3.12,3.12,0,0,1,3.1,3.1h0A3.12,3.12,0,0,1,142.3,183.4Z" style="fill:#f66"/><path d="M169.4,78.8v28.7H115.2V78.8A1.79,1.79,0,0,1,117,77h50.6a1.79,1.79,0,0,1,1.8,1.8Z" style="opacity:0.33000001311302185;isolation:isolate;fill:url(#linear-gradient)"/><circle cx="142.3" cy="107.5" r="12.5" style="opacity:0.33000001311302185;isolation:isolate;fill:url(#linear-gradient)"/><path d="M144.3,107.9a3.26,3.26,0,0,0,1-2.3v-1.5a3,3,0,0,0-2.9-3.1,2.89,2.89,0,0,0-3.1,2.9v1.7a3.26,3.26,0,0,0,1,2.3,6.59,6.59,0,0,0-4.2,4.4,1.35,1.35,0,0,0,1,1.6h10.1a1.32,1.32,0,0,0,1.3-1.3v-.3A6.59,6.59,0,0,0,144.3,107.9Z" style="fill:#fff"/><g style="opacity:0.20000000298023224"><path d="M175.5,119.9v33.5a19.42,19.42,0,0,1-2.4.2,16.9,16.9,0,0,1,0-33.8h.6A5.46,5.46,0,0,1,175.5,119.9Z"/></g><path d="M183.8,117.1a18.1,18.1,0,0,0-6.1-1.4h-.6a16.9,16.9,0,0,0,0,33.8,16.11,16.11,0,0,0,5.4-.9,16.87,16.87,0,0,0,1.3-31.5Z" style="opacity:0.33000001311302185;isolation:isolate;fill:url(#linear-gradient-3)"/><path d="M142.3,123.3a1,1,0,0,1-1-1,.6.6,0,0,1,.1-.4c0-.1.1-.2.2-.3l.1-.1.2-.1h.8c.1,0,.1.1.2.1s.1.1.2.1.2.2.2.3a.6.6,0,0,1,.1.4.91.91,0,0,1-.3.7A1.14,1.14,0,0,1,142.3,123.3Z" style="fill:#fff"/><path d="M141.3,130a.94.94,0,0,1,1-1h0a.94.94,0,0,1,1,1h0a.94.94,0,0,1-1,1h0A1,1,0,0,1,141.3,130Zm0-3.8a.94.94,0,0,1,1-1h0a.94.94,0,0,1,1,1h0a.94.94,0,0,1-1,1h0A1.08,1.08,0,0,1,141.3,126.2Z" style="fill:#fff"/><path d="M142.3,134.8a.91.91,0,0,1-.7-.3c-.1-.1-.2-.2-.2-.3s-.1-.2-.1-.4a.91.91,0,0,1,.3-.7l.1-.1.2-.1h.8l.2.1.2.1c.1.1.2.2.2.3a.6.6,0,0,1,.1.4.91.91,0,0,1-.3.7A1.14,1.14,0,0,1,142.3,134.8Z" style="fill:#fff"/><path d="M152.2,133.8a.94.94,0,0,1,1-1h0a.94.94,0,0,1,1,1h0a.94.94,0,0,1-1,1h0A1,1,0,0,1,152.2,133.8Zm-3.6,0a.94.94,0,0,1,1-1h0a.94.94,0,0,1,1,1h0a.94.94,0,0,1-1,1h0A.94.94,0,0,1,148.6,133.8Zm-3.6,0a.94.94,0,0,1,1-1h0a.94.94,0,0,1,1,1h0a.94.94,0,0,1-1,1h0A.94.94,0,0,1,145,133.8Z" style="fill:#fff"/><path d="M156.8,134.8a1,1,0,0,1-.7-1.7,1,1,0,0,1,1.4,0h0a1,1,0,0,1,0,1.4A.78.78,0,0,1,156.8,134.8Z" style="fill:#fff"/><rect x="120.2" y="140.8" width="33.3" height="2" style="fill:#dda345"/><rect x="120.2" y="146.8" width="33.3" height="2" style="fill:#dda345"/><rect x="120.2" y="152.6" width="12.7" height="2" style="fill:#dda345"/><path d="M132.2,173.2a10.1,10.1,0,0,1,20.2-.6v.6" style="opacity:0.33000001311302185;isolation:isolate;fill:url(#linear-gradient-4)"/><rect x="120.3" y="81.5" width="44.2" height="2" style="fill:url(#linear-gradient-5)"/><path d="M183.2,108.3a.94.94,0,0,1,1-1h0a.94.94,0,0,1,1,1h0a.94.94,0,0,1-1,1h0A.94.94,0,0,1,183.2,108.3Zm0-4a.94.94,0,0,1,1-1h0a.94.94,0,0,1,1,1h0a.94.94,0,0,1-1,1h0A.94.94,0,0,1,183.2,104.3Zm0-4a.94.94,0,0,1,1-1h0a.94.94,0,0,1,1,1h0a.94.94,0,0,1-1,1h0A.94.94,0,0,1,183.2,100.3Zm0-4a.94.94,0,0,1,1-1h0a.94.94,0,0,1,1,1h0a.94.94,0,0,1-1,1h0A.94.94,0,0,1,183.2,96.3Zm0-4a.94.94,0,0,1,1-1h0a.94.94,0,0,1,1,1h0a.94.94,0,0,1-1,1h0A.94.94,0,0,1,183.2,92.3Zm0-4a.94.94,0,0,1,1-1h0a.94.94,0,0,1,1,1h0a.94.94,0,0,1-1,1h0A.94.94,0,0,1,183.2,88.3Zm0-4a.94.94,0,0,1,1-1h0a.94.94,0,0,1,1,1h0a.94.94,0,0,1-1,1h0A.94.94,0,0,1,183.2,84.3Zm0-4a.94.94,0,0,1,1-1h0a.94.94,0,0,1,1,1h0a.94.94,0,0,1-1,1h0A.94.94,0,0,1,183.2,80.3Zm0-4a.94.94,0,0,1,1-1h0a.94.94,0,0,1,1,1h0a.94.94,0,0,1-1,1h0A.94.94,0,0,1,183.2,76.3Zm0-4a.94.94,0,0,1,1-1h0a.94.94,0,0,1,1,1h0a.94.94,0,0,1-1,1h0A.94.94,0,0,1,183.2,72.3Zm0-4a.94.94,0,0,1,1-1h0a.94.94,0,0,1,1,1h0a.94.94,0,0,1-1,1h0A.94.94,0,0,1,183.2,68.3Zm0-4a.94.94,0,0,1,1-1h0a.94.94,0,0,1,1,1h0a.94.94,0,0,1-1,1h0A.94.94,0,0,1,183.2,64.3Zm0-4a.94.94,0,0,1,1-1h0a.94.94,0,0,1,1,1h0a.94.94,0,0,1-1,1h0A.94.94,0,0,1,183.2,60.3Zm-1-3a.94.94,0,0,1,1-1h0a.94.94,0,0,1,1,1h0a.94.94,0,0,1-1,1h0A.94.94,0,0,1,182.2,57.3Zm-4,0a.94.94,0,0,1,1-1h0a.94.94,0,0,1,1,1h0a.94.94,0,0,1-1,1h0A.94.94,0,0,1,178.2,57.3Zm-4,0a.94.94,0,0,1,1-1h0a.94.94,0,0,1,1,1h0a.94.94,0,0,1-1,1h0A.94.94,0,0,1,174.2,57.3Zm-4,0a.94.94,0,0,1,1-1h0a.94.94,0,0,1,1,1h0a.94.94,0,0,1-1,1h0A.94.94,0,0,1,170.2,57.3Zm-4,0a.94.94,0,0,1,1-1h0a.94.94,0,0,1,1,1h0a.94.94,0,0,1-1,1h0A.94.94,0,0,1,166.2,57.3Zm-4,0a.94.94,0,0,1,1-1h0a.94.94,0,0,1,1,1h0a.94.94,0,0,1-1,1h0A.94.94,0,0,1,162.2,57.3Zm-4,0a.94.94,0,0,1,1-1h0a.94.94,0,0,1,1,1h0a.94.94,0,0,1-1,1h0A.94.94,0,0,1,158.2,57.3Zm-4,0a.94.94,0,0,1,1-1h0a.94.94,0,0,1,1,1h0a.94.94,0,0,1-1,1h0A.94.94,0,0,1,154.2,57.3Zm-4,0a.94.94,0,0,1,1-1h0a.94.94,0,0,1,1,1h0a.94.94,0,0,1-1,1h0A.94.94,0,0,1,150.2,57.3Zm-4,0a.94.94,0,0,1,1-1h0a.94.94,0,0,1,1,1h0a.94.94,0,0,1-1,1h0A.94.94,0,0,1,146.2,57.3Zm-4,0a.94.94,0,0,1,1-1h0a.94.94,0,0,1,1,1h0a.94.94,0,0,1-1,1h0A.94.94,0,0,1,142.2,57.3Zm-4,0a.94.94,0,0,1,1-1h0a.94.94,0,0,1,1,1h0a.94.94,0,0,1-1,1h0A.94.94,0,0,1,138.2,57.3Zm-4,0a.94.94,0,0,1,1-1h0a.94.94,0,0,1,1,1h0a.94.94,0,0,1-1,1h0A.94.94,0,0,1,134.2,57.3Zm-4,0a.94.94,0,0,1,1-1h0a.94.94,0,0,1,1,1h0a.94.94,0,0,1-1,1h0A.94.94,0,0,1,130.2,57.3Zm-4,0a.94.94,0,0,1,1-1h0a.94.94,0,0,1,1,1h0a.94.94,0,0,1-1,1h0A.94.94,0,0,1,126.2,57.3Z" style="fill:#fff"/><g style="opacity:0.5"><path d="M120.4,45.2v94.2a1.79,1.79,0,0,1-1.8,1.8H68a1.77,1.77,0,0,1-1.8-1.7h0V45.2A1.79,1.79,0,0,1,68,43.4h50.6a1.79,1.79,0,0,1,1.8,1.8Z" style="fill:#fbc96b"/></g><g style="opacity:0.6000000238418579"><rect x="70.6" y="47.8" width="23" height="23" style="fill:#ea5d3f"/></g><rect x="83.8" y="72" width="9.8" height="9.8" style="fill:#f66;opacity:0.6000000238418579;isolation:isolate"/><ellipse cx="94.4" cy="224.2" rx="26" ry="3.2" style="fill:#d8bda7;opacity:0.3199999928474426;isolation:isolate"/><path d="M136.1,122.1c.2,0,.3.1,0,.3a15.37,15.37,0,0,0-1.7,1.9,11.31,11.31,0,0,1-2.3,2.6,35.55,35.55,0,0,1-6.3,2.8c-.7.1-1.9-.1-.4-2.9a3.52,3.52,0,0,1,2.2-2.1,18.15,18.15,0,0,1,3-1.1c.3.1.1.5-1.9,1.7-.3.4,1.4.9,2,.7s1-2.3,1.5-2.7a.81.81,0,0,1,.9-.3c.2.1-.2.7-.5,1.4a1.38,1.38,0,0,0-.1,1.1,27.46,27.46,0,0,1,2.2-2.6A2.25,2.25,0,0,1,136.1,122.1Z" style="fill:#e49f98"/><path d="M122.7,131.4c.8-1.1,1.6-2.2,2.3-3.3.4-.8,2.7-1.8,4.3-1.5,0,0,.8-2.8,1.3-3s.9-.1.6.4c-.3.7-.5,1.4-.8,2.1,0,0,1.3.5,1.4-.6a3.88,3.88,0,0,1,1.8-2.8c.7-.2.7.1.2.7a2.86,2.86,0,0,0-.6,2.2c.1.4-1.1,1.4-2.2,2s-4,1.9-4.8,2.8-5.2,7-5.2,7l-3.1-1.6Z" style="fill:#f8b7b0"/><path d="M95.6,119.4a8.46,8.46,0,0,0,7.6-2.8c.8-1.1-1.8-2.1-2.8-3.2a3.22,3.22,0,0,1-.6-2.1,25.2,25.2,0,0,1,.6-4.7l-8.3-1.5s.3,4.2.3,5.8a1.7,1.7,0,0,1-.1.7c-.3,1-1.3,1.4-2.9,2.7C87.4,115.9,91.5,118.8,95.6,119.4Z" style="fill:#f8b7b0"/><path d="M90.6,102.5c-.7-.1-1.1.1-1.4-3.2a4.51,4.51,0,0,1,1.3-4.1s1.8-.4,2,1.9S92.2,102.1,90.6,102.5Z" style="fill:#1c1e38"/><path d="M92.3,110.9v.3a4.82,4.82,0,0,0,2.9,1.5,7.28,7.28,0,0,0,4.6-2.1,27.61,27.61,0,0,1,.6-4l-8.3-1.5S92.3,109.3,92.3,110.9Z" style="fill:#e49f98"/><path d="M101.9,102.6c-.4,3.6-.6,5.3-2.2,6.8a7.69,7.69,0,0,1-4.5,2.2c-1.6,0-4-2.6-4.4-4.1a27.67,27.67,0,0,1-.5-9.5,5.76,5.76,0,0,1,5.3-4.4C98.2,93.5,102.8,93.8,101.9,102.6Z" style="fill:#f8b7b0"/><path d="M89.6,103.5c.3,1.3,1.1,2.2,1.8,2.1s1-1.3.7-2.6-1.1-2.2-1.8-2.1S89.3,102.2,89.6,103.5Z" style="fill:#f8b7b0"/><path d="M102.1,96.1a12.18,12.18,0,0,1-7.5.9c-4.4-.6-4.4-1.7-4.4-1.7A4.41,4.41,0,0,1,94,92.2C97,92.1,101.3,92.3,102.1,96.1Z" style="fill:#1c1e38"/><path d="M101.4,102.5c-.7-.1-1.1.1-1.4-3.2a4.51,4.51,0,0,1,1.3-4.1s1.8-.4,2,1.9S103,102.1,101.4,102.5Z" style="fill:#1c1e38"/><path d="M114.7,134.9l8.5-4.3.8,5.3-12.2,6.5-5.4-12s-.1,17.9-.3,20.4-.8,2.7-1.9,2.7H87.3c-1.1,0-2-1.2-1.8-3.4.2-1.8,1.3-16.3.8-22.9,0,0-.8,5.6-1.4,11.8l10.6,9.3-1.4,4.2-15-10.2s.1-20.8,4.6-25c1.7-1.6,5.9-4.5,7.8-4.9l4.7,2.7.4,1.1.2-1.1,3-2.2c2.8.5,6.8,3.2,7.3,4.4C108.4,119.9,114.7,134.9,114.7,134.9Z" style="fill:#f22f5d"/><path d="M100.9,102.4c-.5,1.2-.4,2.5.3,2.7s1.6-.5,2.1-1.8.4-2.5-.3-2.7S101.3,101.2,100.9,102.4Z" style="fill:#f8b7b0"/><path d="M91.8,111.2a2.84,2.84,0,0,0-1.2,2,18.75,18.75,0,0,0,3.7,4.7s.7-2.3,1.8-2.7Z" style="fill:#cc1d4f"/><path d="M100.3,111a6.37,6.37,0,0,1,.4,2.4,11.63,11.63,0,0,1-3.2,4.4,3.7,3.7,0,0,0-.7-2.7Z" style="fill:#cc1d4f"/><path d="M86.2,140c-.1,2.6-.3,4.9-.4,6.8l-2.4-1.6a46.23,46.23,0,0,1,2.1-5.8Z" style="fill:#cc1d4f"/><path d="M84,218.6c.3,1.2.9,2.1.5,2.8s-.1,1.1.3,2.1,1.8,2.9-1.8,3c-3.9.1-5.9-.9-5.2-3a8.28,8.28,0,0,0,.5-3.5,2,2,0,0,1,.6-1.8C79.3,217.6,83.4,216.4,84,218.6Z" style="fill:#4c37a8"/><path d="M105.9,217.2a11.91,11.91,0,0,0,4.5,3.8c2.4,1.3,7.6,2.4,4.5,3.1s-5.1.6-9.7-.9a8.22,8.22,0,0,0-3.8-.6c-2.1.1-3.6.6-2.6-3.4S104.8,214.8,105.9,217.2Z" style="fill:#4c37a8"/><path d="M85.5,151.7s0-.9.7-1,1.9-.4,10.2-.4,9.6.2,9.6.8c0,0,.9,28.2.6,32.9s-.9,28.1-.6,30.2a22,22,0,0,0,.7,3.7l-3-.8s-4.7,2.7-5.2,3.6-.1-2-.4-5,.4-27.7.5-31.1-2-21.5-2-21.5H95.1s-4.3,14.3-5,18.1-1.2,6.3-1.7,8.3c-.7,2.9-3.6,24.6-3.9,26.6a14.08,14.08,0,0,0,0,4.1l-1.8-1.7s-4.1.4-4.7,1.9c0,0,1.9-31,3-35.2S85.5,151.7,85.5,151.7Z" style="fill:#fcba6b"/><path d="M93.2,105.1a1.13,1.13,0,0,0,1.3.9,1.43,1.43,0,0,0,1.2-.6,1.69,1.69,0,0,1-1,.3A1.72,1.72,0,0,1,93.2,105.1Z" style="fill:#e49f98"/><path d="M124,129.5a51,51,0,0,1,.8,6.7l-3.2,1.8.3-7.4Z" style="fill:#cc1d4f"/><path d="M87.3,57.4c0,2.9-5.3,9-5.3,9s-5.3-6.1-5.3-9a5.26,5.26,0,0,1,10.5-.5A.9.9,0,0,1,87.3,57.4Z" style="opacity:0.33000001311302185;isolation:isolate;fill:url(#linear-gradient-6)"/><path d="M84.3,57.4a2.2,2.2,0,1,1-2.2-2.2h0a2.22,2.22,0,0,1,2.2,2.2Z" style="opacity:0.33000001311302185;isolation:isolate;fill:url(#linear-gradient-7)"/><path d="M63.9,122.4a10.54,10.54,0,1,1,4.2-14.3h0A10.49,10.49,0,0,1,63.9,122.4Zm-9.1-16.5a8.39,8.39,0,1,0,11.4,3.3h0A8.28,8.28,0,0,0,54.8,105.9Z" style="fill:#fbc96b"/><path d="M63.3,112l-4,2.2a1,1,0,0,1-1.4-.4L54.7,108a1.08,1.08,0,0,1,.3-1.4h.1a1,1,0,0,1,1.4.4h0l2.7,4.9,3.1-1.7a1,1,0,0,1,1,1.8Z" style="fill:#fbc96b"/><path d="M194.2,134.8A20,20,0,1,1,174,115.1h.2a19.87,19.87,0,0,1,20,19.7Z" style="fill:url(#radial-gradient)"/><g style="clip-path:url(#clip-path)"><path d="M186.7,124.3l-1-.6c.1-.3.2-.5.3-.8l-.8.3-.6-1v.9l-1-.4.7.9-.7.5,1,.2c0,.4.1.6.1,1l.5-.7.9.8c-.2-.4-.2-.6-.4-1Z" style="fill:#fff"/><path d="M194,131.3l-1-.5a3,3,0,0,0,.4-.8l-1,.3a7.26,7.26,0,0,0-.5-.9c0,.4-.1.6-.1.9l-1.1-.4.7.8-.8.5,1.1.1v1l.7-.7.9.7c-.1-.4-.2-.6-.3-1Z" style="fill:#fff"/><path d="M182.4,136.3l-.9-.6.6-.9-1,.4-.4-1-.3,1-1-.4c.3.4.4.6.6.9l-.9.6,1.1.1-.1,1.1.8-.8.8.8-.1-1.1Z" style="fill:#fff"/><path d="M170,144.3l-2-1.3c.4-.8.7-1.1,1.1-1.9l-2.2.7c-.3-.9-.5-1.3-.8-2.2-.2.9-.4,1.3-.6,2.1a21.85,21.85,0,0,0-2.3-.9l1.5,2-1.8,1a17,17,0,0,0,2.2.4,17.7,17.7,0,0,0,.1,2.3c.5-.6.7-.9,1.3-1.6.7.7,1.1,1.1,1.7,1.8-.2-.9-.3-1.4-.5-2.3A17,17,0,0,0,170,144.3Z" style="fill:#fff"/><path d="M187.8,144.6l-.7-.4.8-.9-1.1.5c0-.4-.1-.6-.1-.9l-.5,1-.9-.3a3,3,0,0,1,.4.8l-1,.6h1l-.4,1.1.9-.9.5.7a3.4,3.4,0,0,0,.1-1Z" style="fill:#fff"/><path d="M189,137.4l-.7-.4-.7.5a6.89,6.89,0,0,0,.3-.8l-.7-.4h.8l.3-.7c.1.3.2.4.3.7h.8l-.7.5C188.9,136.9,188.9,137.1,189,137.4Z" style="fill:#fff"/><path d="M177.9,134.6c-9.2-.3-18.4-.9-27.6-1.5a35.09,35.09,0,0,1,5.4-16.6,114.92,114.92,0,0,1,22.7-1.3C178.3,121.8,178.1,128.2,177.9,134.6Z" style="fill:url(#radial-gradient-2)"/><path d="M178.3,116v-.7a22.6,22.6,0,0,0-2.6-.1c-3.6,2.9-7.3,5.7-11.2,8.3a70.07,70.07,0,0,1-7.3-7.1l-1.5.2a8.27,8.27,0,0,0-.9,1.6q3.6,3.6,7.5,6.9c-3.9,2.5-7.9,4.9-11.9,7.2v.9l2.9.2c3.7-2.2,7.3-4.4,10.9-6.8,3.2,2.7,6.4,5.3,9.6,7.9l4.3.2c-3.9-3.2-7.8-6.4-11.6-9.6,3.8-2.6,7.5-5.3,11.1-8.2Z" style="fill:#fff"/><path d="M155.6,116.6c-.2.4-.3.5-.5.9a100.11,100.11,0,0,0,7.5,7.1H164A79.42,79.42,0,0,1,155.6,116.6Z" style="fill:#f02300"/><path d="M177,134.6c-4-3.3-8.1-6.6-12-10h-1.4c3.9,3.4,7.9,6.7,11.9,10Z" style="fill:#f02300"/><path d="M176.6,115.2h1.1c-4,3.3-8.1,6.4-12.4,9.3H164C168.3,121.6,172.6,118.5,176.6,115.2Z" style="fill:#f02300"/><path d="M150.7,133.1c4.7-2.7,9.3-5.5,13.8-8.5h1.4c-4.5,3-9.1,5.9-13.7,8.6Z" style="fill:#f02300"/><path d="M178.2,122.8c-3.7-.2-7.4-.2-11-.3.4-2.4.9-4.9,1.5-7.3-1.3.1-2,.1-3.3.2a57.1,57.1,0,0,0-1.9,7.1c-3.7.1-7.3.2-11,.4a26.54,26.54,0,0,0-1.2,3.7c3.8,0,7.7,0,11.5.1q-.45,3.6-.6,7.2l4,.2c.1-2.5.3-4.9.5-7.4,3.8.1,7.7.2,11.5.4Z" style="fill:#fff"/><path d="M178.2,123.6c-4-.2-7.9-.3-11.9-.3.5-2.7,1-5.4,1.7-8.1-.8,0-1.2.1-2,.1-.8,2.6-1.4,5.3-2,8-4,0-8,.1-11.9.3a18.66,18.66,0,0,0-.7,2.2c4.1-.1,8.1-.1,12.2,0a73.77,73.77,0,0,0-.7,8.1l2.4.1a73.49,73.49,0,0,1,.7-8.2c4.1.1,8.1.2,12.2.4Z" style="fill:#f02300"/></g></g></svg>