<svg xmlns="http://www.w3.org/2000/svg" xmlns:xlink="http://www.w3.org/1999/xlink" viewBox="0 0 449.33 289.17"><defs><clipPath id="clip-path"><rect x="1" y="-2.83" width="450" height="300" rx="3.5" ry="3.5" style="fill:none"/></clipPath><linearGradient id="Gradient_bez_nazwy_6" x1="441.11" y1="315.79" x2="341.11" y2="19.79" gradientUnits="userSpaceOnUse"><stop offset="0" stop-color="#4f2280"/><stop offset="1" stop-color="#d4145a"/></linearGradient><clipPath id="clip-path-3"><path d="M361.93,207.71h23.63c9.94,0,34.19-5.79,34.19-35.54s-2.25-40,12-52S484,111.67,483,76.67s58-112-41-143.5-286.5-36-283.5,31c3.54,79.1,53.1,82.24,86.83,95.66,28.84,11.48,29.65,30,27.67,52-2,22.68,28.66,23.67,30.5,49.74,1.75,24.85,16.62,46.14,58.43,46.14" style="fill:none"/></clipPath><linearGradient id="Gradient_bez_nazwy_6-2" x1="360.29" y1="212.25" x2="282.29" y2="27.75" gradientTransform="translate(207.9 -192.25) rotate(45)" xlink:href="#Gradient_bez_nazwy_6"/><linearGradient id="Gradient_bez_nazwy_6-3" x1="388.27" y1="267.15" x2="295.27" y2="-50.35" gradientTransform="translate(253.22 -201.65) rotate(45)" xlink:href="#Gradient_bez_nazwy_6"/></defs><title>bgn-01</title><g style="isolation:isolate"><g id="Objects"><g style="clip-path:url(#clip-path)"><path d="M174.55,9.7c-8.69,7.11-42.16,34.5-51.17,82.11-1.91,10.13-10.92,57.74,15.71,89.46,35.23,42,95.21,11.29,137.91,47.93,36.71,31.51-3.7,85.4,32.54,125.2,18.92,20.77,51.84,33,77.26,27.42,79.33-17.39,168.65-226.23,72.77-340.38C389.78-41.64,244.53-47.55,174.55,9.7Z" style="fill:#fff8fa"/><path d="M303.67,354.84q-3.54,0-7-.21l0-.5,0,.5c-40.13-2.44-65.65-19.15-80-32.74-24.58-23.3-37.15-49.27-35.4-73.12,1.87-25.53,18.67-40,36.47-55.32,16-13.76,32.5-28,38.08-51.15,5-20.7-6.68-35.46-19-51.09C224.29,75.4,211.37,59.06,214.1,35.09,217,9.72,235-16.25,255.86-25.33,286.68-38.7,340.78-24,390.46,11.31c64.55,45.83,100.37,110,95.83,171.54C483,227.53,458.48,272.7,419,306.78,383.8,337.2,341.22,354.84,303.67,354.84ZM282.48-29.22c-9.86,0-18.74,1.57-26.22,4.81C235.65-15.47,218,10.16,215.1,35.2c-2.69,23.57,10.1,39.74,22.47,55.39,12.51,15.82,24.33,30.77,19.22,51.95-5.65,23.48-22.3,37.81-38.4,51.67-17.63,15.18-34.29,29.51-36.13,54.63-1.72,23.55,10.74,49.24,35.1,72.33,14.21,13.47,39.52,30,79.35,32.46l0,.5,0-.5c39,2.36,84.42-15.44,121.66-47.6,39.26-33.92,63.66-78.84,66.93-123.25,4.51-61.23-31.16-125-95.41-170.66C352.59-14.36,312.85-29.22,282.48-29.22Z" style="fill:#ffe9e9"/><path d="M361.93,207.71h23.63c9.94,0,34.19-5.79,34.19-35.54s-2.25-40,12-52S484,111.67,483,76.67s58-112-41-143.5-286.5-36-283.5,31c3.54,79.1,53.1,82.24,86.83,95.66,28.84,11.48,29.65,30,27.67,52-2,22.68,28.66,23.67,30.5,49.74,1.75,24.85,16.62,46.14,58.43,46.14" style="fill:url(#Gradient_bez_nazwy_6)"/><g style="clip-path:url(#clip-path-3)"><circle cx="336.02" cy="154.83" r="113.1" transform="translate(-11.07 282.95) rotate(-45)" style="fill:url(#Gradient_bez_nazwy_6-2)"/><circle cx="370.02" cy="204.83" r="113.1" transform="translate(-36.46 321.64) rotate(-45)" style="fill:url(#Gradient_bez_nazwy_6-3)"/></g><path d="M369.1,193C332,193,320.73,171.46,318,152.71c-1.77-12.08-9.77-17.76-17.51-23.25s-15.07-10.69-14.91-21.74c.31-21.15-1.67-38-29.54-46.77-4.77-1.49-9.77-2.74-15.07-4.07-31.2-7.78-66.57-16.61-74.29-80.72-1.31-10.95,2.81-20.77,12.25-29.2C197.83-69.93,238-81,292.09-84.32c48.62-3,101.47.93,141.35,10.4,32.28,7.66,51,22,57.21,43.94,5.36,18.85.63,39.94-3.53,58.54-2.74,12.23-5.11,22.8-4.27,30.87,2.4,23.11-14.23,30-28.9,36.13-6.58,2.73-12.78,5.31-16.66,9.11-10.83,10.61-10.1,19.1-8.34,39.63.27,3.07.55,6.41.83,10.06.93,12.4-2.69,22.08-10.78,28.75A36.53,36.53,0,0,1,399.48,191l-22.36,1.69C374.32,192.86,371.65,193,369.1,193ZM325-84.35c-61.38,0-120.9,10.21-145.37,32.06-9.19,8.2-13.2,17.73-11.92,28.33,7.63,63.42,42.64,72.16,73.53,79.87,5.31,1.33,10.33,2.58,15.13,4.09,28.48,8.92,30.55,26.9,30.24,47.74-.15,10.52,7,15.57,14.49,20.91,7.91,5.61,16.09,11.41,17.92,23.92,2.69,18.34,13.72,39.39,50.17,39.39,2.52,0,5.14-.1,7.9-.3L399.41,190a35.43,35.43,0,0,0,19-7.63c7.81-6.46,11.32-15.85,10.41-27.91-.27-3.64-.56-7-.82-10.05-1.8-20.85-2.54-29.49,8.63-40.42,4-3.94,10.31-6.55,17-9.33,14.36-6,30.62-12.73,28.3-35.09-.86-8.24,1.52-18.88,4.28-31.2,4.14-18.49,8.84-39.44,3.55-58-6.11-21.53-24.59-35.67-56.48-43.24C401.67-80.43,363-84.35,325-84.35Z" style="fill:#da4444;opacity:0.30000000000000004;mix-blend-mode:hard-light"/></g><path d="M253.28,64.85a.82.82,0,0,1-1.05-.5.76.76,0,0,1,.38-1,.83.83,0,0,1,1.11.4A.9.9,0,0,1,253.28,64.85Z" style="fill:#ef5b5b"/><path d="M272.62,81.54a.82.82,0,0,1-1.05-.5A.76.76,0,0,1,272,80a.84.84,0,0,1,1.12.41A.89.89,0,0,1,272.62,81.54Z" style="fill:#ef5b5b"/></g></g></svg>