<svg xmlns="http://www.w3.org/2000/svg" viewBox="0 0 529.53 527.54"><title>how-it-works-bg</title><g id="Background"><rect x="14.22" y="12.27" width="500" height="500" style="fill:#fff0"/></g><g id="Objects"><path d="M248.19,468V444.11H339a41.52,41.52,0,0,0,40.32-31.85h24.26A65.39,65.39,0,0,1,339,468Z" style="fill:#e84c3d"/><path d="M378.36,389.58A41.48,41.48,0,0,0,339,361.24H157.21a68.58,68.58,0,0,1-68-60.15h24.12a44.71,44.71,0,0,0,43.85,36.31H339c31.22,0,57.78,22.53,63.92,52.18Z" style="fill:#ffd800"/><path d="M90.27,278.41a68.62,68.62,0,0,1,66.94-54.11h128v23.84h-128A45,45,0,0,0,115,278.41Z" style="fill:#a4c639"/><path d="M307.88,248.14V224.3h41.5A28.33,28.33,0,0,0,369.51,176a28.12,28.12,0,0,0-20.13-8.4H286.76a39,39,0,0,1-39-39V94h23.84v34.64a15.17,15.17,0,0,0,15.15,15.15h62.62a52.17,52.17,0,0,1,52.17,52.69,52.34,52.34,0,0,1-52.17,51.65Z" style="fill:#33aeff"/><line x1="306.96" y1="479.48" x2="331.88" y2="479.48" style="fill:none;stroke:#e84c3d;stroke-linecap:round;stroke-miterlimit:10;stroke-width:5px"/><line x1="290.97" y1="479.48" x2="286.93" y2="479.48" style="fill:none;stroke:#e84c3d;stroke-linecap:round;stroke-miterlimit:10;stroke-width:5px"/><line x1="225" y1="322.82" x2="246.53" y2="322.82" style="fill:none;stroke:#ffd800;stroke-linecap:round;stroke-miterlimit:10;stroke-width:5px"/><path d="M102.15,354.6a54.79,54.79,0,0,0,44.49,16.77" style="fill:none;stroke:#ffd800;stroke-linecap:round;stroke-miterlimit:10;stroke-width:5px"/><line x1="237.79" y1="214.2" x2="212.78" y2="214.2" style="fill:none;stroke:#a4c639;stroke-linecap:round;stroke-miterlimit:10;stroke-width:5px"/><line x1="191.56" y1="215.46" x2="186.03" y2="215.46" style="fill:none;stroke:#a4c639;stroke-linecap:round;stroke-miterlimit:10;stroke-width:5px"/><path d="M395.83,149.47a58.06,58.06,0,0,1,17.09,45.05" style="fill:none;stroke:#33aeff;stroke-linecap:round;stroke-miterlimit:10;stroke-width:5px"/><path d="M235.49,141.91s2.64,13.66,9.63,22.12" style="fill:none;stroke:#33aeff;stroke-linecap:round;stroke-miterlimit:10;stroke-width:5px"/><line x1="178.06" y1="372.18" x2="185.11" y2="372.18" style="fill:none;stroke:#ffd800;stroke-linecap:round;stroke-miterlimit:10;stroke-width:5px"/><line x1="259.64" y1="360.36" x2="293.03" y2="360.36" style="fill:none;stroke:#f0c419;stroke-linecap:round;stroke-miterlimit:10;stroke-width:5px"/><line x1="310.04" y1="360.36" x2="316.34" y2="360.36" style="fill:none;stroke:#f0c419;stroke-linecap:round;stroke-miterlimit:10;stroke-width:5px"/><line x1="196.3" y1="343.44" x2="232.97" y2="343.44" style="fill:none;stroke:#f0c419;stroke-linecap:round;stroke-miterlimit:10;stroke-width:5px"/><line x1="294.71" y1="449.78" x2="331.67" y2="449.78" style="fill:none;stroke:#b5292a;stroke-linecap:round;stroke-miterlimit:10;stroke-width:5px"/><line x1="327.66" y1="461.16" x2="340.6" y2="461.16" style="fill:none;stroke:#b5292a;stroke-linecap:round;stroke-miterlimit:10;stroke-width:5px"/><line x1="226.78" y1="242.2" x2="210.61" y2="242.2" style="fill:none;stroke:#00ac65;stroke-linecap:round;stroke-miterlimit:10;stroke-width:5px"/><line x1="195.7" y1="242.2" x2="191.56" y2="242.2" style="fill:none;stroke:#00ac65;stroke-linecap:round;stroke-miterlimit:10;stroke-width:5px"/><line x1="202.21" y1="231.62" x2="175.33" y2="231.62" style="fill:none;stroke:#00ac65;stroke-linecap:round;stroke-miterlimit:10;stroke-width:5px"/><line x1="306.51" y1="152.93" x2="329.96" y2="152.93" style="fill:none;stroke:#0d68be;stroke-linecap:round;stroke-miterlimit:10;stroke-width:5px"/><line x1="353.2" y1="151.67" x2="354.88" y2="151.67" style="fill:none;stroke:#0d68be;stroke-linecap:round;stroke-miterlimit:10;stroke-width:5px"/><line x1="332.41" y1="166.47" x2="349.73" y2="166.47" style="fill:none;stroke:#0d68be;stroke-linecap:round;stroke-miterlimit:10;stroke-width:5px"/><path d="M387.91,182.69s6.83,12.2,2,22.69" style="fill:none;stroke:#0d68be;stroke-linecap:round;stroke-miterlimit:10;stroke-width:5px"/></g></svg>
