<svg id="Layer_1" data-name="Layer 1" xmlns="http://www.w3.org/2000/svg" xmlns:xlink="http://www.w3.org/1999/xlink" viewBox="0 0 829 814"><defs><linearGradient id="linear-gradient" x1="558.05" y1="340.6" x2="558.05" y2="826.3" gradientTransform="matrix(1, 0, 0, -1, 0, 850)" gradientUnits="userSpaceOnUse"><stop offset="0" stop-color="#8bc53f"/><stop offset="0.58" stop-color="#37cb85"/><stop offset="0.67" stop-color="#29cc91"/></linearGradient><linearGradient id="linear-gradient-2" x1="315.2" y1="296.55" x2="800.9" y2="296.55" gradientTransform="matrix(1, 0, 0, -1, 0, 850)" gradientUnits="userSpaceOnUse"><stop offset="0" stop-color="#00adee"/><stop offset="0.67" stop-color="#008cff"/></linearGradient><linearGradient id="linear-gradient-3" x1="31.14" y1="296.55" x2="516.76" y2="296.55" gradientTransform="matrix(1, 0, 0, -1, 0, 850)" gradientUnits="userSpaceOnUse"><stop offset="0" stop-color="#f05a28"/><stop offset="0.67" stop-color="#df1d3e"/></linearGradient><linearGradient id="linear-gradient-4" x1="71" y1="380.5" x2="476.9" y2="786.4" gradientTransform="matrix(1, 0, 0, -1, 0, 850)" gradientUnits="userSpaceOnUse"><stop offset="0" stop-color="#fff100"/><stop offset="0.67" stop-color="#ffcb1a"/></linearGradient></defs><title>New Logo</title><path d="M487.1,337.5c32.5,32.5,46,70.9,46,70.9a135.66,135.66,0,0,0,35.3,61.1c53.2,53.2,139.5,53.2,192.6,0s53.2-139.5,0-192.6a136.05,136.05,0,0,0-61.1-35.3s-38.4-13.4-70.9-46-46-70.9-46-70.9a135.66,135.66,0,0,0-35.3-61.1c-53.2-53.2-139.5-53.2-192.6,0s-53.2,139.5,0,192.6a136.05,136.05,0,0,0,61.1,35.3S454.6,305,487.1,337.5Z" style="fill:url(#linear-gradient)"/><path d="M487.1,482.5c-32.5,32.5-70.9,46-70.9,46a135.66,135.66,0,0,0-61.1,35.3c-53.2,53.2-53.2,139.5,0,192.6s139.5,53.2,192.6,0A136.05,136.05,0,0,0,583,695.3s13.4-38.4,46-70.9,70.9-46,70.9-46A135.66,135.66,0,0,0,761,543.1c53.2-53.2,53.2-139.5,0-192.6s-139.5-53.2-192.6,0a136.05,136.05,0,0,0-35.3,61.1S519.6,450,487.1,482.5Z" style="fill:url(#linear-gradient-2)"/><path d="M344.9,482.5c-32.5-32.5-46-70.9-46-70.9a135.66,135.66,0,0,0-35.3-61.1c-53.2-53.2-139.5-53.2-192.6,0S17.8,490,71,543.1a136.05,136.05,0,0,0,61.1,35.3s38.4,13.4,70.9,46,46,70.9,46,70.9a135.66,135.66,0,0,0,35.3,61.1c53.2,53.2,139.5,53.2,192.6,0s53.2-139.5,0-192.6a136.05,136.05,0,0,0-61.1-35.3S377.4,515,344.9,482.5Z" style="fill:url(#linear-gradient-3)"/><path d="M344.9,337.5c32.5-32.5,70.9-46,70.9-46a135.66,135.66,0,0,0,61.1-35.3c53.2-53.2,53.2-139.5,0-192.6s-139.5-53.2-192.6,0A136.05,136.05,0,0,0,249,124.7s-13.4,38.4-46,70.9-70.9,46-70.9,46A135.66,135.66,0,0,0,71,276.9c-53.2,53.2-53.2,139.5,0,192.6s139.5,53.2,192.6,0a136.05,136.05,0,0,0,35.3-61.1S312.4,370,344.9,337.5Z" style="fill:url(#linear-gradient-4)"/></svg>