<svg xmlns="http://www.w3.org/2000/svg" viewBox="0 0 668.61 562.54"><title>748</title><g id="objects"><path d="M513.64,391.75s53.87-8.07,74.72,25.63H511.55Z" style="fill:#00a14b;stroke:#1d293a;stroke-linecap:round;stroke-linejoin:round;stroke-width:2px"/><path d="M142.54,391.75s-53.86-8.07-74.71,25.63h76.81Z" style="fill:#00a14b;stroke:#1d293a;stroke-linecap:round;stroke-linejoin:round;stroke-width:2px"/><path d="M369.28,391.75s53.86-8.07,74.71,25.63H367.18Z" style="fill:#00a14b;stroke:#1d293a;stroke-linecap:round;stroke-linejoin:round;stroke-width:2px"/><path d="M335.8,388.27s48.93-4.59,69.79,29.11l-76.81-.8Z" style="fill:#00a14b;stroke:#1d293a;stroke-linecap:round;stroke-linejoin:round;stroke-width:2px"/><rect x="164.28" y="105.88" width="4.63" height="63.47" style="fill:#58595b;stroke:#1d293a;stroke-linecap:round;stroke-linejoin:round;stroke-width:2px"/><rect x="185.59" y="144.39" width="3.32" height="63.47" style="fill:#fff;stroke:#1d293a;stroke-linecap:round;stroke-linejoin:round;stroke-width:2px"/><rect x="134.74" y="223.88" width="87.94" height="194.3" style="fill:#d87178;stroke:#1d293a;stroke-linecap:round;stroke-linejoin:round;stroke-width:2px"/><polygon points="134.74 223.88 222.68 223.88 134.74 131.66 134.74 223.88" style="fill:#fff;stroke:#1d293a;stroke-linecap:round;stroke-linejoin:round;stroke-width:2px"/><rect x="141.24" y="233.38" width="19" height="19" style="fill:#57cbff;stroke:#1d293a;stroke-linecap:round;stroke-linejoin:round;stroke-width:2px"/><rect x="168.91" y="233.38" width="19" height="19" style="fill:#57cbff;stroke:#1d293a;stroke-linecap:round;stroke-linejoin:round;stroke-width:2px"/><rect x="196.57" y="233.38" width="19" height="19" style="fill:#57cbff;stroke:#1d293a;stroke-linecap:round;stroke-linejoin:round;stroke-width:2px"/><rect x="141.24" y="260.5" width="19" height="19" style="fill:#57cbff;stroke:#1d293a;stroke-linecap:round;stroke-linejoin:round;stroke-width:2px"/><rect x="168.91" y="260.5" width="19" height="19" style="fill:#57cbff;stroke:#1d293a;stroke-linecap:round;stroke-linejoin:round;stroke-width:2px"/><rect x="196.57" y="260.5" width="19" height="19" style="fill:#57cbff;stroke:#1d293a;stroke-linecap:round;stroke-linejoin:round;stroke-width:2px"/><rect x="141.24" y="287.63" width="19" height="19" style="fill:#57cbff;stroke:#1d293a;stroke-linecap:round;stroke-linejoin:round;stroke-width:2px"/><rect x="168.91" y="287.63" width="19" height="19" style="fill:#57cbff;stroke:#1d293a;stroke-linecap:round;stroke-linejoin:round;stroke-width:2px"/><rect x="196.57" y="287.63" width="19" height="19" style="fill:#57cbff;stroke:#1d293a;stroke-linecap:round;stroke-linejoin:round;stroke-width:2px"/><rect x="141.24" y="314.94" width="19" height="19" style="fill:#57cbff;stroke:#1d293a;stroke-linecap:round;stroke-linejoin:round;stroke-width:2px"/><rect x="168.91" y="314.94" width="19" height="19" style="fill:#57cbff;stroke:#1d293a;stroke-linecap:round;stroke-linejoin:round;stroke-width:2px"/><rect x="196.57" y="314.94" width="19" height="19" style="fill:#57cbff;stroke:#1d293a;stroke-linecap:round;stroke-linejoin:round;stroke-width:2px"/><rect x="141.24" y="342.26" width="19" height="19" style="fill:#57cbff;stroke:#1d293a;stroke-linecap:round;stroke-linejoin:round;stroke-width:2px"/><rect x="168.91" y="342.26" width="19" height="19" style="fill:#57cbff;stroke:#1d293a;stroke-linecap:round;stroke-linejoin:round;stroke-width:2px"/><rect x="196.57" y="342.26" width="19" height="19" style="fill:#57cbff;stroke:#1d293a;stroke-linecap:round;stroke-linejoin:round;stroke-width:2px"/><polyline points="491.25 357.3 491.25 313.67 510.8 358.76" style="fill:none;stroke:#1d293a;stroke-linecap:round;stroke-linejoin:round;stroke-width:2px"/><line x1="427" y1="292.63" x2="448.42" y2="328.24" style="fill:none;stroke:#1d293a;stroke-linecap:round;stroke-linejoin:round;stroke-width:2px"/><line x1="208.88" y1="297.49" x2="208.88" y2="357.3" style="fill:none;stroke:#1d293a;stroke-linecap:round;stroke-linejoin:round;stroke-width:2px"/><line x1="230.29" y1="291.58" x2="230.29" y2="357.3" style="fill:none;stroke:#1d293a;stroke-linecap:round;stroke-linejoin:round;stroke-width:2px"/><line x1="251.71" y1="287.2" x2="251.71" y2="357.3" style="fill:none;stroke:#1d293a;stroke-linecap:round;stroke-linejoin:round;stroke-width:2px"/><line x1="273.13" y1="283.38" x2="273.13" y2="357.3" style="fill:none;stroke:#1d293a;stroke-linecap:round;stroke-linejoin:round;stroke-width:2px"/><line x1="294.54" y1="280.92" x2="294.54" y2="357.3" style="fill:none;stroke:#1d293a;stroke-linecap:round;stroke-linejoin:round;stroke-width:2px"/><line x1="315.96" y1="279.5" x2="315.96" y2="357.3" style="fill:none;stroke:#1d293a;stroke-linecap:round;stroke-linejoin:round;stroke-width:2px"/><line x1="337.38" y1="279.5" x2="337.38" y2="357.3" style="fill:none;stroke:#1d293a;stroke-linecap:round;stroke-linejoin:round;stroke-width:2px"/><path d="M515.91,372.17s-95.72-76.86-187.26-76.86-187.26,76.86-187.26,76.86" style="fill:none;stroke:#1d293a;stroke-linecap:round;stroke-linejoin:round;stroke-width:2px"/><path d="M519.4,328.81s-68.86-47.62-190.75-49.71c-121.88,2.09-190.75,49.71-190.75,49.71" style="fill:none;stroke:#1d293a;stroke-linecap:round;stroke-linejoin:round;stroke-width:2px"/><rect x="118.84" y="358.76" width="406.85" height="8" style="fill:#a5a197;stroke:#1d293a;stroke-linecap:round;stroke-linejoin:round;stroke-width:2px"/><polygon points="118.98 347.77 138.41 347.77 138.41 337.95 148.35 337.95 146.51 319.15 111.22 319.15 109.38 337.95 118.98 337.95 118.98 347.77" style="fill:#a5a197;stroke:#1d293a;stroke-linecap:round;stroke-linejoin:round;stroke-width:2px"/><polygon points="152.58 381.07 149.32 347.77 148.35 337.95 138.41 337.95 138.41 347.77 118.98 347.77 118.98 337.95 109.38 337.95 108.42 347.77 105.16 381.07 101.52 418.18 156.22 418.18 152.58 381.07" style="fill:#a5a197;stroke:#1d293a;stroke-linecap:round;stroke-linejoin:round;stroke-width:2px"/><rect x="122.84" y="328.24" width="12.07" height="19.53" style="fill:#a5a197;stroke:#1d293a;stroke-linecap:round;stroke-linejoin:round;stroke-width:2px"/><rect x="113.35" y="310.66" width="29.89" height="8.49" style="fill:#a5a197;stroke:#1d293a;stroke-linecap:round;stroke-linejoin:round;stroke-width:2px"/><rect x="116.68" y="306.41" width="23.22" height="4.25" style="fill:#a5a197;stroke:#1d293a;stroke-linecap:round;stroke-linejoin:round;stroke-width:2px"/><polygon points="515.8 347.77 535.23 347.77 535.23 337.95 545.17 337.95 543.33 319.15 508.04 319.15 506.2 337.95 515.8 337.95 515.8 347.77" style="fill:#a5a197;stroke:#1d293a;stroke-linecap:round;stroke-linejoin:round;stroke-width:2px"/><polygon points="549.4 381.07 546.13 347.77 545.17 337.95 535.23 337.95 535.23 347.77 515.8 347.77 515.8 337.95 506.2 337.95 505.24 347.77 501.98 381.07 498.34 418.18 553.03 418.18 549.4 381.07" style="fill:#a5a197;stroke:#1d293a;stroke-linecap:round;stroke-linejoin:round;stroke-width:2px"/><rect x="519.65" y="328.24" width="12.07" height="19.53" style="fill:#a5a197;stroke:#1d293a;stroke-linecap:round;stroke-linejoin:round;stroke-width:2px"/><rect x="510.17" y="310.66" width="29.89" height="8.49" style="fill:#a5a197;stroke:#1d293a;stroke-linecap:round;stroke-linejoin:round;stroke-width:2px"/><rect x="513.5" y="306.41" width="23.22" height="4.25" style="fill:#a5a197;stroke:#1d293a;stroke-linecap:round;stroke-linejoin:round;stroke-width:2px"/><rect x="429.1" y="203.35" width="9.68" height="214.03" style="fill:#a5a197;stroke:#1d293a;stroke-linecap:round;stroke-linejoin:round;stroke-width:2px"/><path d="M464.31,203.35H403.58s-.37-25.83,0-34.44c.39-9.33,3.13-37.25,3.13-37.25h54.47s2.74,27.92,3.13,37.25C464.67,177.52,464.31,203.35,464.31,203.35Z" style="fill:#57cbff;stroke:#1d293a;stroke-linecap:round;stroke-linejoin:round;stroke-width:2px"/><rect x="398.87" y="167.2" width="70.15" height="4.31" style="fill:#a5a197;stroke:#1d293a;stroke-linecap:round;stroke-linejoin:round;stroke-width:2px"/><rect x="402.27" y="127.35" width="63.34" height="4.31" style="fill:#a5a197;stroke:#1d293a;stroke-linecap:round;stroke-linejoin:round;stroke-width:2px"/><rect x="402.27" y="123.04" width="63.34" height="4.31" style="fill:#a5a197;stroke:#1d293a;stroke-linecap:round;stroke-linejoin:round;stroke-width:2px"/><rect x="398.87" y="118.74" width="70.15" height="4.31" style="fill:#fff;stroke:#1d293a;stroke-linecap:round;stroke-linejoin:round;stroke-width:2px"/><rect x="398.87" y="176.12" width="70.15" height="4.31" style="fill:#a5a197;stroke:#1d293a;stroke-linecap:round;stroke-linejoin:round;stroke-width:2px"/><rect x="398.87" y="185.04" width="70.15" height="4.31" style="fill:#a5a197;stroke:#1d293a;stroke-linecap:round;stroke-linejoin:round;stroke-width:2px"/><rect x="398.87" y="193.97" width="70.15" height="4.31" style="fill:#a5a197;stroke:#1d293a;stroke-linecap:round;stroke-linejoin:round;stroke-width:2px"/><rect x="431.79" y="64.43" width="4.31" height="54.31" style="fill:#fff;stroke:#1d293a;stroke-linecap:round;stroke-linejoin:round;stroke-width:2px"/><line x1="415.64" y1="142.43" x2="413.79" y2="158.74" style="fill:#57cbff;stroke:#1d293a;stroke-linecap:round;stroke-linejoin:round;stroke-width:2px"/><polyline points="443.63 142.43 454.1 142.43 455.63 160.58" style="fill:#57cbff;stroke:#1d293a;stroke-linecap:round;stroke-linejoin:round;stroke-width:2px"/><rect x="55.78" y="418.18" width="543" height="30.12" style="fill:#bcd372"/><path d="M615.11,506.45a34,34,0,0,1-34.06,34.06H73.5a34.06,34.06,0,0,1-34.06-34.06V448.3H615.11Z" style="fill:#57cbff"/><line x1="25.78" y1="448.3" x2="631.78" y2="448.3" style="fill:none;stroke:#1d293a;stroke-linecap:round;stroke-linejoin:round;stroke-width:2px"/><line x1="59.96" y1="452.22" x2="412.5" y2="452.22" style="fill:none;stroke:#1d293a;stroke-linecap:round;stroke-linejoin:round;stroke-width:2px"/><line x1="106.23" y1="488.91" x2="272.23" y2="488.91" style="fill:none;stroke:#1d293a;stroke-linecap:round;stroke-linejoin:round;stroke-width:2px"/><line x1="362.81" y1="507.51" x2="441.99" y2="507.51" style="fill:none;stroke:#1d293a;stroke-linecap:round;stroke-linejoin:round;stroke-width:2px"/><line x1="263.78" y1="475.51" x2="293.81" y2="475.51" style="fill:none;stroke:#1d293a;stroke-linecap:round;stroke-linejoin:round;stroke-width:2px"/><line x1="168.36" y1="507.51" x2="198.4" y2="507.51" style="fill:none;stroke:#1d293a;stroke-linecap:round;stroke-linejoin:round;stroke-width:2px"/><path d="M332.92,357h23.21s-.42,5.18-.38,7.35l-21.62,13Z" style="fill:#fff;stroke:#1d293a;stroke-linecap:round;stroke-linejoin:round;stroke-width:2px"/><path d="M335.8,367.14s24.16-4.38,45.91-4.38c0,0-22.5,26.52-29.25,42.39L347,406.46Z" style="fill:#fff;stroke:#1d293a;stroke-linecap:round;stroke-linejoin:round;stroke-width:2px"/><polygon points="332.92 357 347.21 407.26 315.46 413.41 322.21 362.01 332.92 357" style="fill:#fff;stroke:#1d293a;stroke-linecap:round;stroke-linejoin:round;stroke-width:2px"/><path d="M312.72,350s8.24-7,26-8.74c0,0-19.5,51.29-23.25,72.15l-3.16,2.44-11.46-20.09Z" style="fill:#fff;stroke:#1d293a;stroke-linecap:round;stroke-linejoin:round;stroke-width:2px"/><path d="M296.07,339.8S306.71,336,313.46,336l-3.66,69-21.59-50Z" style="fill:#fff;stroke:#1d293a;stroke-linecap:round;stroke-linejoin:round;stroke-width:2px"/><path d="M192,370.83s23.67-53.32,87-65a158.38,158.38,0,0,0-2.66,22.66L223,389.89Z" style="fill:#fff;stroke:#1d293a;stroke-linecap:round;stroke-linejoin:round;stroke-width:2px"/><path d="M110.46,360s76.83-22.25,111.17,60.83H145Z" style="fill:#fff;stroke:#1d293a;stroke-linecap:round;stroke-linejoin:round;stroke-width:2px"/><path d="M110.46,360,129,420.84h20.25S131,379,110.46,360Z" style="fill:#2273aa;stroke:#1d293a;stroke-linecap:round;stroke-linejoin:round;stroke-width:2px"/><path d="M178.71,420.84l-24-49.08s41.5-7.75,65.5,8.75Z" style="fill:#fff;stroke:#1d293a;stroke-linecap:round;stroke-linejoin:round;stroke-width:2px"/><polygon points="190.27 408.83 178.71 420.84 266.71 420.84 241.27 399.2 190.27 408.83" style="fill:#2273aa;stroke:#1d293a;stroke-linecap:round;stroke-linejoin:round;stroke-width:2px"/><polygon points="220.21 380.51 250.21 407.76 221.63 413.26 220.21 380.51" style="fill:#fff;stroke:#1d293a;stroke-linecap:round;stroke-linejoin:round;stroke-width:2px"/><polygon points="221.58 413.26 190.27 408.83 220.21 380.51 221.58 413.26" style="fill:#fff;stroke:#1d293a;stroke-linecap:round;stroke-linejoin:round;stroke-width:2px"/><path d="M220.21,380.51l46.5,40.33H274s8.5-54.83,33.5-108.33C307.46,312.51,252,326,220.21,380.51Z" style="fill:#fff;stroke:#1d293a;stroke-linecap:round;stroke-linejoin:round;stroke-width:2px"/><path d="M292.42,350l5.21,2.51L279,420.84h-5S285.21,369.4,292.42,350Z" style="fill:#fff;stroke:#1d293a;stroke-linecap:round;stroke-linejoin:round;stroke-width:2px"/><polygon points="297.63 352.51 312.3 415.85 278.96 420.84 297.63 352.51" style="fill:#fff;stroke:#1d293a;stroke-linecap:round;stroke-linejoin:round;stroke-width:2px"/><polygon points="282.34 409.23 309.8 405.05 312.3 415.85 278.96 420.84 282.34 409.23" style="fill:#2273aa;stroke:#1d293a;stroke-linecap:round;stroke-linejoin:round;stroke-width:2px"/><polygon points="317.84 403.19 344.26 396.89 346.98 406.46 315.46 413.41 317.84 403.19" style="fill:#2273aa;stroke:#1d293a;stroke-linecap:round;stroke-linejoin:round;stroke-width:2px"/><polygon points="357.3 412.95 352.46 405.15 279.29 420.84 128.96 420.84 78.46 437.59 78.46 452.59 278.96 452.59 376.96 452.59 376.96 412.95 357.3 412.95" style="fill:#c49a6c;stroke:#1d293a;stroke-linecap:round;stroke-linejoin:round;stroke-width:2px"/><polygon points="384.96 419.76 370.71 419.76 317.71 443.51 317.71 452.59 384.96 452.59 384.96 419.76" style="fill:#937352;stroke:#1d293a;stroke-linecap:round;stroke-linejoin:round;stroke-width:2px"/><rect x="78.46" y="444.01" width="239.25" height="8.58" style="fill:#937352;stroke:#1d293a;stroke-linecap:round;stroke-linejoin:round;stroke-width:2px"/><line x1="224.86" y1="428.87" x2="311.26" y2="428.87" style="fill:none;stroke:#1d293a;stroke-linecap:round;stroke-linejoin:round;stroke-width:2px"/><line x1="316.65" y1="428.87" x2="328.27" y2="428.87" style="fill:none;stroke:#1d293a;stroke-linecap:round;stroke-linejoin:round;stroke-width:2px"/><polyline points="296.44 428.12 300.84 422.23 305.53 422.23" style="fill:none;stroke:#1d293a;stroke-linecap:round;stroke-linejoin:round;stroke-width:2px"/><polyline points="319.17 428.12 322.46 422.23 328.27 422.23" style="fill:none;stroke:#1d293a;stroke-linecap:round;stroke-linejoin:round;stroke-width:2px"/><polyline points="132.96 425.68 132.96 430.18 171.29 430.18" style="fill:none;stroke:#1d293a;stroke-linecap:round;stroke-linejoin:round;stroke-width:2px"/><line x1="142.96" y1="438.85" x2="173.96" y2="438.85" style="fill:none;stroke:#1d293a;stroke-linecap:round;stroke-linejoin:round;stroke-width:2px"/><line x1="106.63" y1="438.85" x2="129.13" y2="438.85" style="fill:none;stroke:#1d293a;stroke-linecap:round;stroke-linejoin:round;stroke-width:2px"/><line x1="285.8" y1="414.51" x2="307.46" y2="410.32" style="fill:none;stroke:#1d293a;stroke-linecap:round;stroke-linejoin:round;stroke-width:2px"/><line x1="320.5" y1="407.15" x2="342.17" y2="402.95" style="fill:none;stroke:#1d293a;stroke-linecap:round;stroke-linejoin:round;stroke-width:2px"/><line x1="221.58" y1="412.24" x2="221.63" y2="420.84" style="fill:none;stroke:#1d293a;stroke-linecap:round;stroke-linejoin:round;stroke-width:2px"/><path d="M574.11,470l-8.33-17.79H549L544.91,444H516.1l-5.91,8.21H479.78l-11,17.79h-99.5v3s55.42,7.5,72.71,18,19.29,19,51.79,19h87l12.5-40Z" style="fill:#fff;stroke:#1d293a;stroke-linecap:round;stroke-linejoin:round;stroke-width:2px"/><polygon points="477.53 470.01 484.35 456.51 494.85 456.51 494.85 470.01 477.53 470.01" style="fill:#2273aa;stroke:#1d293a;stroke-linecap:round;stroke-linejoin:round;stroke-width:2px"/><polygon points="567.28 470.01 560.45 456.51 549.96 456.51 549.96 470.01 567.28 470.01" style="fill:#2273aa;stroke:#1d293a;stroke-linecap:round;stroke-linejoin:round;stroke-width:2px"/><rect x="499.04" y="456.51" width="12.6" height="13.5" style="fill:#2273aa;stroke:#1d293a;stroke-linecap:round;stroke-linejoin:round;stroke-width:2px"/><rect x="516.1" y="456.51" width="12.6" height="13.5" style="fill:#2273aa;stroke:#1d293a;stroke-linecap:round;stroke-linejoin:round;stroke-width:2px"/><rect x="533.16" y="456.51" width="12.6" height="13.5" style="fill:#2273aa;stroke:#1d293a;stroke-linecap:round;stroke-linejoin:round;stroke-width:2px"/><line x1="441.99" y1="476.26" x2="580.78" y2="476.26" style="fill:#c6c6c6;stroke:#1d293a;stroke-linecap:round;stroke-linejoin:round;stroke-width:2px"/><rect x="462.86" y="482.01" width="7.33" height="7.33" style="fill:#2273aa"/><rect x="483.63" y="496.01" width="4.12" height="4.12" style="fill:#58595b"/><rect x="491.8" y="496.01" width="4.12" height="4.12" style="fill:#58595b"/><rect x="499.96" y="496.01" width="4.12" height="4.12" style="fill:#58595b"/><rect x="508.13" y="496.01" width="4.12" height="4.12" style="fill:#58595b"/><rect x="516.29" y="496.01" width="4.12" height="4.12" style="fill:#58595b"/><rect x="524.46" y="496.01" width="4.12" height="4.12" style="fill:#58595b"/><rect x="532.63" y="496.01" width="4.12" height="4.12" style="fill:#58595b"/><rect x="540.79" y="496.01" width="4.12" height="4.12" style="fill:#58595b"/><rect x="548.96" y="496.01" width="4.12" height="4.12" style="fill:#58595b"/><rect x="557.12" y="496.01" width="4.12" height="4.12" style="fill:#58595b"/><rect x="474.69" y="482.01" width="7.33" height="7.33" style="fill:#2273aa"/><rect x="486.52" y="482.01" width="7.33" height="7.33" style="fill:#2273aa"/><rect x="498.35" y="482.01" width="7.33" height="7.33" style="fill:#2273aa"/><rect x="510.19" y="482.01" width="7.33" height="7.33" style="fill:#2273aa"/><rect x="522.02" y="482.01" width="7.33" height="7.33" style="fill:#2273aa"/><rect x="533.85" y="482.01" width="7.33" height="7.33" style="fill:#2273aa"/><rect x="545.68" y="482.01" width="7.33" height="7.33" style="fill:#2273aa"/><rect x="557.51" y="482.01" width="7.33" height="7.33" style="fill:#2273aa"/><rect x="569.76" y="482.01" width="7.33" height="7.33" style="fill:#2273aa"/><path d="M459.28,384.61l-55,76.57,55-8.59S444.61,419,459.28,384.61Z" style="fill:#e74e4e;stroke:#1d293a;stroke-linecap:round;stroke-linejoin:round;stroke-width:2px"/><polyline points="587.78 470.01 583.78 456.51 567.79 456.51" style="fill:none;stroke:#1d293a;stroke-linecap:round;stroke-linejoin:round;stroke-width:2px"/><rect x="534.69" y="350.18" width="4.77" height="93.83" style="fill:#a5a197;stroke:#1d293a;stroke-linecap:round;stroke-linejoin:round;stroke-width:2px"/><rect x="459.28" y="384.61" width="4.77" height="85.2" style="fill:#a5a197;stroke:#1d293a;stroke-linecap:round;stroke-linejoin:round;stroke-width:2px"/><path d="M534.41,436.18,482.58,444l51.83-93.83S526.49,393.17,534.41,436.18Z" style="fill:#e74e4e;stroke:#1d293a;stroke-linecap:round;stroke-linejoin:round;stroke-width:2px"/><path d="M539.46,350.18v86l32.64,3.33S559.14,370.18,539.46,350.18Z" style="fill:#e74e4e;stroke:#1d293a;stroke-linecap:round;stroke-linejoin:round;stroke-width:2px"/><line x1="525.69" y1="378.56" x2="495.92" y2="434.01" style="fill:none;stroke:#1d293a;stroke-linecap:round;stroke-linejoin:round;stroke-width:2px"/><line x1="544.91" y1="374.85" x2="544.91" y2="386.68" style="fill:none;stroke:#1d293a;stroke-linecap:round;stroke-linejoin:round;stroke-width:2px"/><line x1="544.91" y1="399.51" x2="544.91" y2="410.85" style="fill:none;stroke:#1d293a;stroke-linecap:round;stroke-linejoin:round;stroke-width:2px"/><line x1="444.44" y1="418.18" x2="423.44" y2="444.01" style="fill:none;stroke:#1d293a;stroke-linecap:round;stroke-linejoin:round;stroke-width:2px"/><polyline points="166.04 357.3 166.04 313.67 187.46 341.22" style="fill:none;stroke:#1d293a;stroke-linecap:round;stroke-linejoin:round;stroke-width:2px"/><polyline points="187.46 357.3 187.46 305.85 208.88 329.41" style="fill:none;stroke:#1d293a;stroke-linecap:round;stroke-linejoin:round;stroke-width:2px"/><line x1="469.84" y1="305.85" x2="469.84" y2="357.3" style="fill:none;stroke:#1d293a;stroke-linecap:round;stroke-linejoin:round;stroke-width:2px"/><polyline points="448.42 357.3 448.42 297.49 469.91 341.26" style="fill:none;stroke:#1d293a;stroke-linecap:round;stroke-linejoin:round;stroke-width:2px"/><line x1="427" y1="291.58" x2="427" y2="357.3" style="fill:none;stroke:#1d293a;stroke-linecap:round;stroke-linejoin:round;stroke-width:2px"/><polyline points="405.59 357.3 405.59 287.2 427 317.13" style="fill:none;stroke:#1d293a;stroke-linecap:round;stroke-linejoin:round;stroke-width:2px"/><polyline points="384.17 357.3 384.17 283.38 405.59 310.37" style="fill:none;stroke:#1d293a;stroke-linecap:round;stroke-linejoin:round;stroke-width:2px"/><polyline points="361.28 357.3 361.28 280.92 384.18 303.55" style="fill:none;stroke:#1d293a;stroke-linecap:round;stroke-linejoin:round;stroke-width:2px"/><line x1="147.4" y1="328.24" x2="166.05" y2="354.57" style="fill:none;stroke:#1d293a;stroke-linecap:round;stroke-linejoin:round;stroke-width:2px"/><line x1="208.88" y1="297.5" x2="230.29" y2="318.41" style="fill:none;stroke:#1d293a;stroke-linecap:round;stroke-linejoin:round;stroke-width:2px"/><line x1="230.29" y1="291.58" x2="251.71" y2="310.47" style="fill:none;stroke:#1d293a;stroke-linecap:round;stroke-linejoin:round;stroke-width:2px"/><line x1="251.71" y1="287.2" x2="273.13" y2="303.55" style="fill:none;stroke:#1d293a;stroke-linecap:round;stroke-linejoin:round;stroke-width:2px"/><line x1="273.13" y1="284.38" x2="294.54" y2="298.57" style="fill:none;stroke:#1d293a;stroke-linecap:round;stroke-linejoin:round;stroke-width:2px"/><line x1="294.54" y1="281.88" x2="315.96" y2="295.31" style="fill:none;stroke:#1d293a;stroke-linecap:round;stroke-linejoin:round;stroke-width:2px"/><line x1="315.96" y1="279.5" x2="337.38" y2="295.54" style="fill:none;stroke:#1d293a;stroke-linecap:round;stroke-linejoin:round;stroke-width:2px"/><line x1="337.38" y1="279.1" x2="361.28" y2="298.31" style="fill:none;stroke:#1d293a;stroke-linecap:round;stroke-linejoin:round;stroke-width:2px"/><line x1="469.91" y1="304.81" x2="491.25" y2="354.57" style="fill:none;stroke:#1d293a;stroke-linecap:round;stroke-linejoin:round;stroke-width:2px"/><polygon points="143.17 152.55 141.39 152.55 141.39 164.44 154.5 164.44 143.17 152.55" style="fill:#58595b;stroke:#1d293a;stroke-linecap:round;stroke-linejoin:round;stroke-width:2px"/><polygon points="167.01 177.55 154.5 164.44 141.39 164.44 141.39 177.55 167.01 177.55" style="fill:#a5a197;stroke:#1d293a;stroke-linecap:round;stroke-linejoin:round;stroke-width:2px"/><polygon points="141.39 190.66 179.51 190.66 167.01 177.55 141.39 177.55 141.39 190.66" style="fill:#58595b;stroke:#1d293a;stroke-linecap:round;stroke-linejoin:round;stroke-width:2px"/><polygon points="141.39 203.77 192.01 203.77 179.51 190.66 141.39 190.66 141.39 203.77" style="fill:#a5a197;stroke:#1d293a;stroke-linecap:round;stroke-linejoin:round;stroke-width:2px"/><polygon points="141.39 215.22 202.92 215.22 192.01 203.77 141.39 203.77 141.39 215.22" style="fill:#58595b;stroke:#1d293a;stroke-linecap:round;stroke-linejoin:round;stroke-width:2px"/><path d="M255.38,179.2a5.67,5.67,0,0,0-1.81.29,8.17,8.17,0,0,0-7.48-5.07,12.3,12.3,0,0,0-23.9,3.24,6.77,6.77,0,0,0,2.44,13.08h30.75a5.77,5.77,0,0,0,0-11.54Z" style="fill:#fff;stroke:#1d293a;stroke-linecap:round;stroke-linejoin:round;stroke-width:2px"/><path d="M62.59,171.76a5.72,5.72,0,0,1,1.81.3A8.14,8.14,0,0,1,71.88,167a12.29,12.29,0,0,1,23.89,3.23,6.76,6.76,0,0,1-2.43,13.08H62.59a5.77,5.77,0,1,1,0-11.54Z" style="fill:#fff;stroke:#1d293a;stroke-linecap:round;stroke-linejoin:round;stroke-width:2px"/><path d="M377.15,234.15a5.72,5.72,0,0,0-1.81.3,8.15,8.15,0,0,0-7.48-5.07,12.3,12.3,0,0,0-23.9,3.23,6.77,6.77,0,0,0,2.44,13.08h30.75a5.77,5.77,0,1,0,0-11.54Z" style="fill:#fff;stroke:#1d293a;stroke-linecap:round;stroke-linejoin:round;stroke-width:2px"/><path d="M538.28,65.2a5.67,5.67,0,0,0-1.81.29A8.17,8.17,0,0,0,529,60.42a12.3,12.3,0,0,0-23.9,3.24,6.77,6.77,0,0,0,2.44,13.08h30.75a5.77,5.77,0,0,0,0-11.54Z" style="fill:#fff;stroke:#1d293a;stroke-linecap:round;stroke-linejoin:round;stroke-width:2px"/><path d="M221.8,65.2a5.72,5.72,0,0,0-1.81.29,8.17,8.17,0,0,0-7.48-5.07,12.3,12.3,0,0,0-23.9,3.24,6.77,6.77,0,0,0,2.44,13.08H221.8a5.77,5.77,0,0,0,0-11.54Z" style="fill:#fff;stroke:#1d293a;stroke-linecap:round;stroke-linejoin:round;stroke-width:2px"/><path d="M276.79,192.43a5.72,5.72,0,0,0-1.81.29,8.13,8.13,0,0,0-7.47-5.06,12.29,12.29,0,0,0-23.9,3.23A6.77,6.77,0,0,0,246,204h30.75a5.77,5.77,0,0,0,0-11.54Z" style="fill:#c6c6c6;stroke:#1d293a;stroke-linecap:round;stroke-linejoin:round;stroke-width:2px"/><path d="M531.55,218a5.74,5.74,0,0,1,1.82.29,8.14,8.14,0,0,1,7.47-5.07,12.3,12.3,0,0,1,23.9,3.24,6.77,6.77,0,0,1-2.44,13.08H531.55a5.77,5.77,0,1,1,0-11.54Z" style="fill:#fff;stroke:#1d293a;stroke-linecap:round;stroke-linejoin:round;stroke-width:2px"/><path d="M510.14,231.27a5.72,5.72,0,0,1,1.81.29,8.17,8.17,0,0,1,7.48-5.07,12.29,12.29,0,0,1,23.89,3.24,6.76,6.76,0,0,1-2.43,13.08H510.14a5.77,5.77,0,1,1,0-11.54Z" style="fill:#c6c6c6;stroke:#1d293a;stroke-linecap:round;stroke-linejoin:round;stroke-width:2px"/><circle cx="336.39" cy="106.37" r="18.19" transform="translate(156.13 409.65) rotate(-76.82)" style="fill:#f2ca52;stroke:#1d293a;stroke-linecap:round;stroke-linejoin:round;stroke-width:2px"/><path d="M314.2,106.37a22.19,22.19,0,1,1,22.19,22.19A22.19,22.19,0,0,1,314.2,106.37Z" style="fill:none;stroke:#1d293a;stroke-linecap:round;stroke-linejoin:round;stroke-width:2px"/><circle cx="336.39" cy="106.37" r="42.85" transform="translate(156.86 410.09) rotate(-76.96)" style="fill:none;stroke:#1d293a;stroke-miterlimit:10;stroke-width:30px;stroke-dasharray:2.039249897003174,10.196200370788574"/><path d="M374.45,92.3a5.72,5.72,0,0,0-1.81.29,8.17,8.17,0,0,0-7.48-5.07,12.3,12.3,0,0,0-23.9,3.24,6.77,6.77,0,0,0,2.44,13.08h30.75a5.77,5.77,0,1,0,0-11.54Z" style="fill:#fff;stroke:#1d293a;stroke-linecap:round;stroke-linejoin:round;stroke-width:2px"/></g></svg>